<svg width="168" height="243" viewBox="0 0 168 243" fill="none" xmlns="http://www.w3.org/2000/svg">
<g clip-path="url(#clip0)">
<path d="M167.532 235.548C167.532 239.325 164.445 242.417 160.661 242.417H7.80615C4.03125 242.417 0.945312 239.325 0.945312 235.548V7.12012C0.945312 3.34277 4.03125 0.25 7.80615 0.25H160.661C164.445 0.25 167.532 3.34277 167.532 7.12012V235.548V235.548Z" fill="white" stroke="black" stroke-width="0.5"/>
<path d="M21.3861 43.7397C21.3861 43.7397 24.9146 40.917 24.9146 37.0037C24.9146 34.7129 22.8807 30.9096 18.1786 30.9096C13.4765 30.9096 11.4427 34.7144 11.4427 37.0037C11.4427 40.917 14.9711 43.7397 14.9711 43.7397C11.052 40.6867 4.06494 42.771 4.06494 48.8726C4.06494 51.9271 6.56084 55.2876 10.48 55.2876C15.1821 55.2876 17.2159 50.1547 17.2159 50.1547C17.2159 50.1547 17.8132 56.0052 14.3293 59.137H22.0279C18.5441 56.0067 19.1413 50.1547 19.1413 50.1547C19.1413 50.1547 21.1752 55.2876 25.8773 55.2876C29.7979 55.2876 32.2923 51.9256 32.2923 48.8726C32.2923 42.771 25.3053 40.6867 21.3861 43.7397Z" fill="black"/>
<path d="M147.179 198.74C147.179 198.74 143.651 201.563 143.651 205.476C143.651 207.767 145.684 211.57 150.386 211.57C155.089 211.57 157.122 207.765 157.122 205.476C157.122 201.563 153.594 198.74 153.594 198.74C157.513 201.793 164.5 199.709 164.5 193.607C164.5 190.553 162.004 187.192 158.085 187.192C153.383 187.192 151.349 192.325 151.349 192.325C151.349 192.325 150.752 186.475 154.236 183.343H146.537C150.021 186.473 149.424 192.325 149.424 192.325C149.424 192.325 147.39 187.192 142.688 187.192C138.767 187.192 136.273 190.554 136.273 193.607C136.273 199.709 143.26 201.793 147.179 198.74Z" fill="black"/>
<path d="M58.2681 25.0999C58.2681 25.0999 64.2355 20.326 64.2355 13.7079C64.2355 9.83351 60.7958 3.40131 52.8435 3.40131C44.8912 3.40131 41.4515 9.83602 41.4515 13.7079C41.4515 20.326 47.4188 25.0999 47.4188 25.0999C40.7907 19.9366 28.974 23.4617 28.974 33.7809C28.974 38.9467 33.1951 44.6302 39.8233 44.6302C47.7756 44.6302 51.2153 35.9492 51.2153 35.9492C51.2153 35.9492 52.2254 45.8438 46.3334 51.1403H59.3536C53.4616 45.8463 54.4716 35.9492 54.4716 35.9492C54.4716 35.9492 57.9114 44.6302 65.8637 44.6302C72.4944 44.6302 76.713 38.9442 76.713 33.7809C76.713 23.4617 64.8963 19.9366 58.2681 25.0999V25.0999Z" fill="black"/>
<path d="M57.8057 93.2008C57.8057 93.2008 63.7731 88.4269 63.7731 81.8087C63.7731 77.9343 60.3334 71.5021 52.3811 71.5021C44.4288 71.5021 40.9891 77.9368 40.9891 81.8087C40.9891 88.4269 46.9564 93.2008 46.9564 93.2008C40.3283 88.0374 28.5116 91.5626 28.5116 101.882C28.5116 107.048 32.7327 112.731 39.3609 112.731C47.3132 112.731 50.7529 104.05 50.7529 104.05C50.7529 104.05 51.763 113.945 45.871 119.241H58.8912C52.9992 113.947 54.0092 104.05 54.0092 104.05C54.0092 104.05 57.449 112.731 65.4013 112.731C72.032 112.731 76.2506 107.045 76.2506 101.882C76.2506 91.5626 64.4339 88.0374 57.8057 93.2008V93.2008Z" fill="black"/>
<path d="M122.253 24.9262C122.253 24.9262 128.221 20.1523 128.221 13.5342C128.221 9.6598 124.781 3.2276 116.829 3.2276C108.876 3.2276 105.437 9.66231 105.437 13.5342C105.437 20.1523 111.404 24.9262 111.404 24.9262C104.776 19.7629 92.9591 23.288 92.9591 33.6072C92.9591 38.773 97.1802 44.4565 103.808 44.4565C111.761 44.4565 115.2 35.7755 115.2 35.7755C115.2 35.7755 116.211 45.6701 110.319 50.9666H123.339C117.447 45.6726 118.457 35.7755 118.457 35.7755C118.457 35.7755 121.896 44.4565 129.849 44.4565C136.479 44.4565 140.698 38.7705 140.698 33.6072C140.698 23.288 128.881 19.7629 122.253 24.9262V24.9262Z" fill="black"/>
<path d="M122.253 93.027C122.253 93.027 128.221 88.2531 128.221 81.635C128.221 77.7606 124.781 71.3284 116.829 71.3284C108.876 71.3284 105.437 77.7631 105.437 81.635C105.437 88.2531 111.404 93.027 111.404 93.027C104.776 87.8636 92.9591 91.3888 92.9591 101.708C92.9591 106.874 97.1802 112.557 103.808 112.557C111.761 112.557 115.2 103.876 115.2 103.876C115.2 103.876 116.211 113.771 110.319 119.067H123.339C117.447 113.773 118.457 103.876 118.457 103.876C118.457 103.876 121.896 112.557 129.849 112.557C136.479 112.557 140.698 106.871 140.698 101.708C140.698 91.3888 128.881 87.8636 122.253 93.027V93.027Z" fill="black"/>
<path d="M90.2722 59.2811C90.2722 59.2811 96.2395 54.5072 96.2395 47.8891C96.2395 44.0147 92.7998 37.5825 84.8475 37.5825C76.8952 37.5825 73.4555 44.0172 73.4555 47.8891C73.4555 54.5072 79.4229 59.2811 79.4229 59.2811C72.7947 54.1177 60.978 57.6429 60.978 67.962C60.978 73.1279 65.1992 78.8113 71.8273 78.8113C79.7796 78.8113 83.2194 70.1304 83.2194 70.1304C83.2194 70.1304 84.2294 80.0249 78.3374 85.3214H91.3576C85.4656 80.0274 86.4757 70.1304 86.4757 70.1304C86.4757 70.1304 89.9154 78.8113 97.8677 78.8113C104.498 78.8113 108.717 73.1254 108.717 67.962C108.717 57.6429 96.9004 54.1177 90.2722 59.2811V59.2811Z" fill="black"/>
<path d="M110.758 217.802C110.758 217.802 104.791 222.576 104.791 229.194C104.791 233.069 108.23 239.501 116.183 239.501C124.135 239.501 127.575 233.066 127.575 229.194C127.575 222.576 121.607 217.802 121.607 217.802C128.235 222.966 140.052 219.44 140.052 209.121C140.052 203.955 135.831 198.272 129.203 198.272C121.25 198.272 117.811 206.953 117.811 206.953C117.811 206.953 116.801 197.058 122.693 191.762H109.673C115.565 197.056 114.554 206.953 114.554 206.953C114.554 206.953 111.115 198.272 103.162 198.272C96.5317 198.272 92.3131 203.958 92.3131 209.121C92.3131 219.44 104.13 222.966 110.758 217.802V217.802Z" fill="black"/>
<path d="M111.404 149.701C111.404 149.701 105.436 154.475 105.436 161.093C105.436 164.968 108.876 171.4 116.828 171.4C124.781 171.4 128.22 164.965 128.22 161.093C128.22 154.475 122.253 149.701 122.253 149.701C128.881 154.865 140.698 151.34 140.698 141.02C140.698 135.855 136.477 130.171 129.848 130.171C121.896 130.171 118.456 138.852 118.456 138.852C118.456 138.852 117.446 128.958 123.338 123.661H110.318C116.21 128.955 115.2 138.852 115.2 138.852C115.2 138.852 111.76 130.171 103.808 130.171C97.1774 130.171 92.9587 135.857 92.9587 141.02C92.9587 151.34 104.775 154.865 111.404 149.701Z" fill="black"/>
<path d="M46.773 217.976C46.773 217.976 40.8056 222.749 40.8056 229.368C40.8056 233.242 44.2453 239.674 52.1976 239.674C60.1499 239.674 63.5896 233.239 63.5896 229.368C63.5896 222.749 57.6223 217.976 57.6223 217.976C64.2505 223.139 76.0671 219.614 76.0671 209.295C76.0671 204.129 71.846 198.445 65.2178 198.445C57.2655 198.445 53.8258 207.126 53.8258 207.126C53.8258 207.126 52.8157 197.232 58.7077 191.935H45.6875C51.5795 197.229 50.5695 207.126 50.5695 207.126C50.5695 207.126 47.1297 198.445 39.1774 198.445C32.5467 198.445 28.3281 204.131 28.3281 209.295C28.3281 219.614 40.1448 223.139 46.773 217.976V217.976Z" fill="black"/>
<path d="M46.9564 149.875C46.9564 149.875 40.9891 154.649 40.9891 161.267C40.9891 165.141 44.4288 171.574 52.3811 171.574C60.3334 171.574 63.7731 165.139 63.7731 161.267C63.7731 154.649 57.8057 149.875 57.8057 149.875C64.4339 155.038 76.2506 151.513 76.2506 141.194C76.2506 136.028 72.0294 130.345 65.4013 130.345C57.449 130.345 54.0092 139.026 54.0092 139.026C54.0092 139.026 52.9992 129.131 58.8912 123.835H45.871C51.763 129.129 50.7529 139.026 50.7529 139.026C50.7529 139.026 47.3132 130.345 39.3609 130.345C32.7302 130.345 28.5116 136.031 28.5116 141.194C28.5116 151.513 40.3283 155.038 46.9564 149.875V149.875Z" fill="black"/>
<path d="M10.9238 25.1704H8.01758V5.90479L2.18945 8.04541V5.42041L10.4707 2.31104H10.9238V25.1704Z" fill="black"/>
<path d="M27.8521 15.796C27.8521 19.1814 27.2739 21.697 26.1177 23.3428C24.9614 24.9887 23.1541 25.8116 20.6958 25.8116C18.2687 25.8116 16.4718 25.0095 15.3052 23.4053C14.1385 21.7908 13.5343 19.3845 13.4927 16.1866V12.3272C13.4927 8.98346 14.0708 6.49908 15.2271 4.87408C16.3833 3.24908 18.1958 2.43658 20.6646 2.43658C23.1125 2.43658 24.9146 3.22304 26.0708 4.79596C27.2271 6.35846 27.8208 8.77513 27.8521 12.046V15.796ZM24.9614 11.8428C24.9614 9.39492 24.6177 7.61367 23.9302 6.49908C23.2427 5.37408 22.1541 4.81158 20.6646 4.81158C19.1854 4.81158 18.1073 5.36888 17.4302 6.48346C16.7531 7.59804 16.4041 9.31158 16.3833 11.6241V16.2491C16.3833 18.7074 16.7375 20.5251 17.4458 21.7022C18.1646 22.8689 19.2479 23.4522 20.6958 23.4522C22.1229 23.4522 23.1802 22.9001 23.8677 21.796C24.5656 20.6918 24.9302 18.9522 24.9614 16.5772V11.8428Z" fill="black"/>
<path d="M78.7652 183.938C78.7652 183.938 72.7978 188.711 72.7978 195.33C72.7978 199.204 76.2375 205.636 84.1898 205.636C92.1421 205.636 95.5818 199.201 95.5818 195.33C95.5818 188.711 89.6145 183.938 89.6145 183.938C96.2426 189.101 108.059 185.576 108.059 175.257C108.059 170.091 103.838 164.407 97.21 164.407C89.2577 164.407 85.8179 173.088 85.8179 173.088C85.8179 173.088 84.8079 163.194 90.6999 157.897H77.6797C83.5717 163.191 82.5617 173.088 82.5617 173.088C82.5617 173.088 79.1219 164.407 71.1696 164.407C64.5389 164.407 60.3203 170.093 60.3203 175.257C60.3203 185.576 72.137 189.101 78.7652 183.938V183.938Z" fill="black"/>
<path d="M158.114 218.226H161.02V237.492L166.848 235.351V237.976L158.567 241.086H158.114V218.226Z" fill="black"/>
<path d="M141.185 227.601C141.185 224.215 141.764 221.7 142.92 220.054C144.076 218.408 145.883 217.585 148.342 217.585C150.769 217.585 152.566 218.387 153.732 219.991C154.899 221.606 155.503 224.012 155.545 227.21V231.069C155.545 234.413 154.967 236.897 153.81 238.522C152.654 240.147 150.842 240.96 148.373 240.96C145.925 240.96 144.123 240.174 142.967 238.601C141.81 237.038 141.217 234.621 141.185 231.351V227.601ZM144.076 231.554C144.076 234.002 144.42 235.783 145.107 236.897C145.795 238.022 146.883 238.585 148.373 238.585C149.852 238.585 150.93 238.028 151.607 236.913C152.284 235.799 152.633 234.085 152.654 231.772V227.147C152.654 224.689 152.3 222.871 151.592 221.694C150.873 220.528 149.79 219.944 148.342 219.944C146.915 219.944 145.857 220.496 145.17 221.601C144.472 222.705 144.107 224.444 144.076 226.819V231.554Z" fill="black"/>
</g>
<defs>
<clipPath id="clip0">
<rect x="0.695312" width="167.087" height="242.667" fill="white"/>
</clipPath>
</defs>
</svg>
