<svg width="168" height="243" viewBox="0 0 168 243" fill="none" xmlns="http://www.w3.org/2000/svg">
<g clip-path="url(#clip0)">
<path d="M166.837 235.548C166.837 239.325 163.75 242.417 159.966 242.417H7.11084C3.33594 242.417 0.25 239.325 0.25 235.548V7.12012C0.25 3.34277 3.33594 0.25 7.11084 0.25H159.966C163.75 0.25 166.837 3.34277 166.837 7.12012V235.548V235.548Z" fill="white" stroke="black" stroke-width="0.5"/>
<path d="M25.1074 25.5484H10.2012V23.4703L18.0762 14.7203C19.2428 13.3974 20.0449 12.3244 20.4824 11.5015C20.9303 10.6682 21.1543 9.80882 21.1543 8.9234C21.1543 7.7359 20.7949 6.76194 20.0762 6.00153C19.3574 5.24111 18.3991 4.8609 17.2012 4.8609C15.7637 4.8609 14.6439 5.27236 13.8418 6.09528C13.0501 6.90778 12.6543 8.04319 12.6543 9.50153H9.76367C9.76367 7.40778 10.4355 5.71507 11.7793 4.4234C13.1335 3.13173 14.9408 2.4859 17.2012 2.4859C19.3158 2.4859 20.9876 3.04319 22.2168 4.15778C23.446 5.26194 24.0605 6.7359 24.0605 8.57965C24.0605 10.8192 22.6335 13.4859 19.7793 16.5797L13.6855 23.189H25.1074V25.5484Z" fill="black"/>
<path d="M142.067 216.467H156.973V218.545L149.098 227.295C147.932 228.618 147.13 229.691 146.692 230.513C146.244 231.347 146.02 232.206 146.02 233.092C146.02 234.279 146.38 235.253 147.098 236.013C147.817 236.774 148.775 237.154 149.973 237.154C151.411 237.154 152.531 236.743 153.333 235.92C154.124 235.107 154.52 233.972 154.52 232.513H157.411C157.411 234.607 156.739 236.3 155.395 237.592C154.041 238.883 152.234 239.529 149.973 239.529C147.859 239.529 146.187 238.972 144.958 237.857C143.729 236.753 143.114 235.279 143.114 233.435C143.114 231.196 144.541 228.529 147.395 225.435L153.489 218.826H142.067V216.467Z" fill="black"/>
<path d="M20.6909 43.7397C20.6909 43.7397 24.2193 40.917 24.2193 37.0037C24.2193 34.7129 22.1855 30.9096 17.4834 30.9096C12.7813 30.9096 10.7474 34.7144 10.7474 37.0037C10.7474 40.917 14.2759 43.7397 14.2759 43.7397C10.3567 40.6867 3.36969 42.771 3.36969 48.8726C3.36969 51.9271 5.86558 55.2876 9.78473 55.2876C14.4868 55.2876 16.5207 50.1547 16.5207 50.1547C16.5207 50.1547 17.1179 56.0052 13.6341 59.137H21.3327C17.8488 56.0067 18.4461 50.1547 18.4461 50.1547C18.4461 50.1547 20.4799 55.2876 25.182 55.2876C29.1026 55.2876 31.5971 51.9256 31.5971 48.8726C31.5971 42.771 24.61 40.6867 20.6909 43.7397Z" fill="black"/>
<path d="M146.484 198.74C146.484 198.74 142.955 201.563 142.955 205.476C142.955 207.767 144.989 211.57 149.691 211.57C154.393 211.57 156.427 207.765 156.427 205.476C156.427 201.563 152.899 198.74 152.899 198.74C156.818 201.793 163.805 199.709 163.805 193.607C163.805 190.553 161.309 187.192 157.39 187.192C152.688 187.192 150.654 192.325 150.654 192.325C150.654 192.325 150.057 186.475 153.54 183.343H145.842C149.326 186.473 148.728 192.325 148.728 192.325C148.728 192.325 146.695 187.192 141.992 187.192C138.072 187.192 135.577 190.554 135.577 193.607C135.577 199.709 142.564 201.793 146.484 198.74Z" fill="black"/>
<path d="M78.7683 188.244C78.7683 188.244 72.8009 193.018 72.8009 199.636C72.8009 203.51 76.2406 209.943 84.193 209.943C92.1453 209.943 95.585 203.508 95.585 199.636C95.585 193.018 89.6176 188.244 89.6176 188.244C96.2458 193.407 108.062 189.882 108.062 179.563C108.062 174.397 103.841 168.714 97.2131 168.714C89.2608 168.714 85.8211 177.395 85.8211 177.395C85.8211 177.395 84.811 167.5 90.703 162.204H77.6829C83.5749 167.498 82.5648 177.395 82.5648 177.395C82.5648 177.395 79.1251 168.714 71.1728 168.714C64.5421 168.714 60.3235 174.4 60.3235 179.563C60.3235 189.882 72.1401 193.407 78.7683 188.244Z" fill="black"/>
<path d="M89.5728 55.5C89.5728 55.5 95.5402 50.7261 95.5402 44.1079C95.5402 40.2335 92.1005 33.8013 84.1482 33.8013C76.1959 33.8013 72.7561 40.236 72.7561 44.1079C72.7561 50.7261 78.7235 55.5 78.7235 55.5C72.0953 50.3366 60.2787 53.8618 60.2787 64.1809C60.2787 69.3468 64.4998 75.0302 71.128 75.0302C79.0803 75.0302 82.52 66.3493 82.52 66.3493C82.52 66.3493 83.5301 76.2438 77.6381 81.5403H90.6583C84.7663 76.2463 85.7763 66.3493 85.7763 66.3493C85.7763 66.3493 89.216 75.0302 97.1684 75.0302C103.799 75.0302 108.018 69.3443 108.018 64.1809C108.018 53.8618 96.201 50.3366 89.5728 55.5Z" fill="black"/>
</g>
<defs>
<clipPath id="clip0">
<rect width="167.087" height="242.667" fill="white"/>
</clipPath>
</defs>
</svg>
