<svg width="168" height="243" viewBox="0 0 168 243" fill="none" xmlns="http://www.w3.org/2000/svg">
<g clip-path="url(#clip0)">
<path d="M166.924 235.548C166.924 239.325 163.837 242.417 160.053 242.417H7.19775C3.42285 242.417 0.336914 239.325 0.336914 235.548V7.12012C0.336914 3.34277 3.42285 0.25 7.19775 0.25H160.053C163.837 0.25 166.924 3.34277 166.924 7.12012V235.548V235.548Z" fill="white" stroke="black" stroke-width="0.5"/>
<path d="M14.4912 12.7672H16.6631C18.0277 12.7463 19.1006 12.3869 19.8818 11.689C20.6631 10.9911 21.0537 10.0484 21.0537 8.8609C21.0537 6.19423 19.7256 4.8609 17.0693 4.8609C15.8193 4.8609 14.8193 5.22028 14.0693 5.93903C13.3298 6.64736 12.96 7.59007 12.96 8.76715H10.0693C10.0693 6.96507 10.7256 5.47028 12.0381 4.28278C13.361 3.08486 15.0381 2.4859 17.0693 2.4859C19.2152 2.4859 20.8975 3.05361 22.1162 4.18903C23.335 5.32444 23.9443 6.90257 23.9443 8.9234C23.9443 9.91298 23.6214 10.8713 22.9756 11.7984C22.3402 12.7255 21.4704 13.4182 20.3662 13.8765C21.6162 14.2724 22.5798 14.9286 23.2568 15.8453C23.9443 16.7619 24.2881 17.8817 24.2881 19.2047C24.2881 21.2463 23.6214 22.8661 22.2881 24.064C20.9548 25.2619 19.2204 25.8609 17.085 25.8609C14.9495 25.8609 13.21 25.2828 11.8662 24.1265C10.5329 22.9703 9.86621 21.4442 9.86621 19.5484H12.7725C12.7725 20.7463 13.1631 21.7047 13.9443 22.4234C14.7256 23.1422 15.7725 23.5015 17.085 23.5015C18.4808 23.5015 19.5485 23.1369 20.2881 22.4078C21.0277 21.6786 21.3975 20.6317 21.3975 19.2672C21.3975 17.9442 20.9912 16.9286 20.1787 16.2203C19.3662 15.5119 18.1943 15.1474 16.6631 15.1265H14.4912V12.7672Z" fill="black"/>
<path d="M20.7778 43.7397C20.7778 43.7397 24.3062 40.917 24.3062 37.0037C24.3062 34.7129 22.2724 30.9096 17.5703 30.9096C12.8682 30.9096 10.8343 34.7144 10.8343 37.0037C10.8343 40.917 14.3628 43.7397 14.3628 43.7397C10.4436 40.6867 3.4566 42.771 3.4566 48.8726C3.4566 51.9271 5.9525 55.2876 9.87164 55.2876C14.5737 55.2876 16.6076 50.1547 16.6076 50.1547C16.6076 50.1547 17.2048 56.0052 13.721 59.137H21.4196C17.9358 56.0067 18.533 50.1547 18.533 50.1547C18.533 50.1547 20.5668 55.2876 25.2689 55.2876C29.1896 55.2876 31.684 51.9256 31.684 48.8726C31.684 42.771 24.697 40.6867 20.7778 43.7397Z" fill="black"/>
<path d="M152.857 229.248H150.685C149.321 229.269 148.248 229.628 147.466 230.326C146.685 231.024 146.295 231.967 146.295 233.154C146.295 235.821 147.623 237.154 150.279 237.154C151.529 237.154 152.529 236.795 153.279 236.076C154.019 235.368 154.388 234.425 154.388 233.248H157.279C157.279 235.05 156.623 236.545 155.31 237.732C153.987 238.93 152.31 239.529 150.279 239.529C148.133 239.529 146.451 238.961 145.232 237.826C144.013 236.691 143.404 235.112 143.404 233.092C143.404 232.102 143.727 231.144 144.373 230.217C145.008 229.29 145.878 228.597 146.982 228.138C145.732 227.743 144.769 227.086 144.091 226.17C143.404 225.253 143.06 224.133 143.06 222.81C143.06 220.769 143.727 219.149 145.06 217.951C146.394 216.753 148.128 216.154 150.263 216.154C152.399 216.154 154.138 216.732 155.482 217.888C156.815 219.045 157.482 220.571 157.482 222.467H154.576C154.576 221.269 154.185 220.31 153.404 219.592C152.623 218.873 151.576 218.513 150.263 218.513C148.868 218.513 147.8 218.878 147.06 219.607C146.321 220.336 145.951 221.383 145.951 222.748C145.951 224.071 146.357 225.086 147.17 225.795C147.982 226.503 149.154 226.868 150.685 226.888H152.857V229.248Z" fill="black"/>
<path d="M146.571 198.74C146.571 198.74 143.042 201.563 143.042 205.476C143.042 207.767 145.076 211.57 149.778 211.57C154.48 211.57 156.514 207.765 156.514 205.476C156.514 201.563 152.986 198.74 152.986 198.74C156.905 201.793 163.892 199.709 163.892 193.607C163.892 190.553 161.396 187.192 157.477 187.192C152.775 187.192 150.741 192.325 150.741 192.325C150.741 192.325 150.144 186.475 153.627 183.343H145.929C149.413 186.473 148.815 192.325 148.815 192.325C148.815 192.325 146.781 187.192 142.079 187.192C138.159 187.192 135.664 190.554 135.664 193.607C135.664 199.709 142.651 201.793 146.571 198.74Z" fill="black"/>
<path d="M89.6597 47.5C89.6597 47.5 95.6271 42.7261 95.6271 36.1079C95.6271 32.2335 92.1874 25.8013 84.2351 25.8013C76.2828 25.8013 72.8431 32.236 72.8431 36.1079C72.8431 42.7261 78.8104 47.5 78.8104 47.5C72.1823 42.3366 60.3656 45.8618 60.3656 56.1809C60.3656 61.3468 64.5867 67.0302 71.2149 67.0302C79.1672 67.0302 82.6069 58.3493 82.6069 58.3493C82.6069 58.3493 83.617 68.2438 77.725 73.5403H90.7452C84.8532 68.2463 85.8632 58.3493 85.8632 58.3493C85.8632 58.3493 89.303 67.0302 97.2553 67.0302C103.886 67.0302 108.105 61.3443 108.105 56.1809C108.105 45.8618 96.2879 42.3366 89.6597 47.5Z" fill="black"/>
<path d="M78.8552 196.244C78.8552 196.244 72.8878 201.018 72.8878 207.636C72.8878 211.51 76.3276 217.943 84.2799 217.943C92.2322 217.943 95.6719 211.508 95.6719 207.636C95.6719 201.018 89.7045 196.244 89.7045 196.244C96.3327 201.407 108.149 197.882 108.149 187.563C108.149 182.397 103.928 176.714 97.3 176.714C89.3477 176.714 85.908 185.395 85.908 185.395C85.908 185.395 84.898 175.5 90.79 170.204H77.7698C83.6618 175.498 82.6517 185.395 82.6517 185.395C82.6517 185.395 79.212 176.714 71.2597 176.714C64.629 176.714 60.4104 182.4 60.4104 187.563C60.4104 197.882 72.227 201.407 78.8552 196.244Z" fill="black"/>
<path d="M89.6597 117.201C89.6597 117.201 95.6271 112.427 95.6271 105.809C95.6271 101.934 92.1874 95.5021 84.2351 95.5021C76.2828 95.5021 72.8431 101.937 72.8431 105.809C72.8431 112.427 78.8104 117.201 78.8104 117.201C72.1823 112.037 60.3656 115.563 60.3656 125.882C60.3656 131.048 64.5867 136.731 71.2149 136.731C79.1672 136.731 82.6069 128.05 82.6069 128.05C82.6069 128.05 83.617 137.945 77.725 143.241H90.7452C84.8532 137.947 85.8632 128.05 85.8632 128.05C85.8632 128.05 89.303 136.731 97.2553 136.731C103.886 136.731 108.105 131.045 108.105 125.882C108.105 115.563 96.2879 112.037 89.6597 117.201Z" fill="black"/>
</g>
<defs>
<clipPath id="clip0">
<rect x="0.0869141" width="167.087" height="242.667" fill="white"/>
</clipPath>
</defs>
</svg>
