<svg width="168" height="243" viewBox="0 0 168 243" fill="none" xmlns="http://www.w3.org/2000/svg">
<g clip-path="url(#clip0)">
<path d="M167.011 235.548C167.011 239.325 163.924 242.417 160.14 242.417H7.28467C3.50977 242.417 0.423828 239.325 0.423828 235.548V7.12012C0.423828 3.34277 3.50977 0.25 7.28467 0.25H160.14C163.924 0.25 167.011 3.34277 167.011 7.12012V235.548V235.548Z" fill="white" stroke="black" stroke-width="0.5"/>
<path d="M22.5781 17.9078H25.7344V20.2672H22.5781V25.5484H19.6719V20.2672H9.3125V18.564L19.5 2.7984H22.5781V17.9078ZM12.5938 17.9078H19.6719V6.75153L19.3281 7.37653L12.5938 17.9078Z" fill="black"/>
<path d="M20.8647 43.7397C20.8647 43.7397 24.3931 40.917 24.3931 37.0037C24.3931 34.7129 22.3593 30.9096 17.6572 30.9096C12.9551 30.9096 10.9213 34.7144 10.9213 37.0037C10.9213 40.917 14.4497 43.7397 14.4497 43.7397C10.5305 40.6867 3.54352 42.771 3.54352 48.8726C3.54352 51.9271 6.03941 55.2876 9.95856 55.2876C14.6606 55.2876 16.6945 50.1547 16.6945 50.1547C16.6945 50.1547 17.2917 56.0052 13.8079 59.137H21.5065C18.0227 56.0067 18.6199 50.1547 18.6199 50.1547C18.6199 50.1547 20.6538 55.2876 25.3558 55.2876C29.2765 55.2876 31.7709 51.9256 31.7709 48.8726C31.7709 42.771 24.7839 40.6867 20.8647 43.7397Z" fill="black"/>
<path d="M144.944 224.107H141.788V221.748H144.944V216.467H147.85V221.748H158.21V223.451L148.022 239.217H144.944V224.107ZM154.928 224.107H147.85V235.263L148.194 234.638L154.928 224.107Z" fill="black"/>
<path d="M146.657 198.74C146.657 198.74 143.129 201.563 143.129 205.476C143.129 207.767 145.163 211.57 149.865 211.57C154.567 211.57 156.601 207.765 156.601 205.476C156.601 201.563 153.072 198.74 153.072 198.74C156.992 201.793 163.979 199.709 163.979 193.607C163.979 190.553 161.483 187.192 157.564 187.192C152.862 187.192 150.828 192.325 150.828 192.325C150.828 192.325 150.23 186.475 153.714 183.343H146.016C149.499 186.473 148.902 192.325 148.902 192.325C148.902 192.325 146.868 187.192 142.166 187.192C138.246 187.192 135.751 190.554 135.751 193.607C135.751 199.709 142.738 201.793 146.657 198.74Z" fill="black"/>
<path d="M59.3466 55.5C59.3466 55.5 65.314 50.7261 65.314 44.1079C65.314 40.2335 61.8743 33.8013 53.922 33.8013C45.9697 33.8013 42.53 40.236 42.53 44.1079C42.53 50.7261 48.4973 55.5 48.4973 55.5C41.8691 50.3366 30.0525 53.8618 30.0525 64.1809C30.0525 69.3468 34.2736 75.0302 40.9018 75.0302C48.8541 75.0302 52.2938 66.3493 52.2938 66.3493C52.2938 66.3493 53.3039 76.2438 47.4119 81.5403H60.4321C54.5401 76.2463 55.5501 66.3493 55.5501 66.3493C55.5501 66.3493 58.9898 75.0302 66.9422 75.0302C73.5728 75.0302 77.7915 69.3443 77.7915 64.1809C77.7915 53.8618 65.9748 50.3366 59.3466 55.5Z" fill="black"/>
<path d="M48.5422 188.244C48.5422 188.244 42.5748 193.018 42.5748 199.636C42.5748 203.51 46.0145 209.943 53.9668 209.943C61.9191 209.943 65.3588 203.508 65.3588 199.636C65.3588 193.018 59.3915 188.244 59.3915 188.244C66.0197 193.407 77.8363 189.882 77.8363 179.563C77.8363 174.397 73.6152 168.714 66.987 168.714C59.0347 168.714 55.595 177.395 55.595 177.395C55.595 177.395 54.5849 167.5 60.4769 162.204H47.4567C53.3487 167.498 52.3387 177.395 52.3387 177.395C52.3387 177.395 48.8989 168.714 40.9466 168.714C34.3159 168.714 30.0973 174.4 30.0973 179.563C30.0973 189.882 41.914 193.407 48.5422 188.244Z" fill="black"/>
<path d="M117.423 55.5C117.423 55.5 123.391 50.7261 123.391 44.1079C123.391 40.2335 119.951 33.8013 111.999 33.8013C104.047 33.8013 100.607 40.236 100.607 44.1079C100.607 50.7261 106.574 55.5 106.574 55.5C99.946 50.3366 88.1293 53.8618 88.1293 64.1809C88.1293 69.3468 92.3505 75.0302 98.9786 75.0302C106.931 75.0302 110.371 66.3493 110.371 66.3493C110.371 66.3493 111.381 76.2438 105.489 81.5403H118.509C112.617 76.2463 113.627 66.3493 113.627 66.3493C113.627 66.3493 117.067 75.0302 125.019 75.0302C131.65 75.0302 135.868 69.3443 135.868 64.1809C135.868 53.8618 124.052 50.3366 117.423 55.5Z" fill="black"/>
<path d="M106.619 188.244C106.619 188.244 100.652 193.018 100.652 199.636C100.652 203.51 104.091 209.943 112.044 209.943C119.996 209.943 123.436 203.508 123.436 199.636C123.436 193.018 117.468 188.244 117.468 188.244C124.096 193.407 135.913 189.882 135.913 179.563C135.913 174.397 131.692 168.714 125.064 168.714C117.111 168.714 113.672 177.395 113.672 177.395C113.672 177.395 112.662 167.5 118.554 162.204H105.534C111.426 167.498 110.415 177.395 110.415 177.395C110.415 177.395 106.976 168.714 99.0234 168.714C92.3927 168.714 88.1741 174.4 88.1741 179.563C88.1741 189.882 99.9908 193.407 106.619 188.244Z" fill="black"/>
</g>
<defs>
<clipPath id="clip0">
<rect x="0.173828" width="167.087" height="242.667" fill="white"/>
</clipPath>
</defs>
</svg>
