<svg width="168" height="243" viewBox="0 0 168 243" fill="none" xmlns="http://www.w3.org/2000/svg">
<g clip-path="url(#clip0)">
<path d="M167.098 235.548C167.098 239.325 164.011 242.417 160.227 242.417H7.37164C3.59674 242.417 0.510803 239.325 0.510803 235.548V7.12012C0.510803 3.34277 3.59674 0.25 7.37164 0.25H160.227C164.011 0.25 167.098 3.34277 167.098 7.12012V235.548V235.548Z" fill="white" stroke="black" stroke-width="0.5"/>
<path d="M11.7901 14.1422L12.9464 2.7984H24.6026V5.47028H15.3995L14.712 11.6734C15.8266 11.0172 17.0922 10.689 18.5089 10.689C20.5818 10.689 22.2276 11.3765 23.4464 12.7515C24.6651 14.1161 25.2745 15.9651 25.2745 18.2984C25.2745 20.6422 24.6391 22.4911 23.3682 23.8453C22.1078 25.189 20.3422 25.8609 18.0714 25.8609C16.0609 25.8609 14.4203 25.3036 13.1495 24.189C11.8786 23.0744 11.1547 21.5328 10.9776 19.564H13.712C13.8891 20.8661 14.3526 21.8505 15.1026 22.5172C15.8526 23.1734 16.8422 23.5015 18.0714 23.5015C19.4151 23.5015 20.4672 23.0432 21.2276 22.1265C21.9984 21.2099 22.3839 19.9442 22.3839 18.3297C22.3839 16.8088 21.9672 15.5901 21.1339 14.6734C20.3109 13.7463 19.212 13.2828 17.837 13.2828C16.5766 13.2828 15.587 13.5588 14.8682 14.1109L14.1026 14.7359L11.7901 14.1422Z" fill="black"/>
<path d="M20.9517 43.7397C20.9517 43.7397 24.4801 40.917 24.4801 37.0037C24.4801 34.7129 22.4463 30.9096 17.7442 30.9096C13.0421 30.9096 11.0082 34.7144 11.0082 37.0037C11.0082 40.917 14.5367 43.7397 14.5367 43.7397C10.6175 40.6867 3.63049 42.771 3.63049 48.8726C3.63049 51.9271 6.12639 55.2876 10.0455 55.2876C14.7476 55.2876 16.7815 50.1547 16.7815 50.1547C16.7815 50.1547 17.3787 56.0052 13.8949 59.137H21.5935C18.1096 56.0067 18.7069 50.1547 18.7069 50.1547C18.7069 50.1547 20.7407 55.2876 25.4428 55.2876C29.3634 55.2876 31.8579 51.9256 31.8579 48.8726C31.8579 42.771 24.8708 40.6867 20.9517 43.7397Z" fill="black"/>
<path d="M155.906 227.873L154.75 239.217H143.094V236.545H152.297L152.984 230.342C151.87 230.998 150.604 231.326 149.187 231.326C147.114 231.326 145.469 230.638 144.25 229.263C143.031 227.899 142.422 226.05 142.422 223.717C142.422 221.373 143.057 219.524 144.328 218.17C145.588 216.826 147.354 216.154 149.625 216.154C151.635 216.154 153.276 216.711 154.547 217.826C155.817 218.941 156.541 220.482 156.719 222.451H153.984C153.807 221.149 153.344 220.165 152.594 219.498C151.844 218.842 150.854 218.513 149.625 218.513C148.281 218.513 147.229 218.972 146.469 219.888C145.698 220.805 145.312 222.071 145.312 223.685C145.312 225.206 145.729 226.425 146.562 227.342C147.385 228.269 148.484 228.732 149.859 228.732C151.12 228.732 152.109 228.456 152.828 227.904L153.594 227.279L155.906 227.873Z" fill="black"/>
<path d="M146.744 198.74C146.744 198.74 143.216 201.563 143.216 205.476C143.216 207.767 145.25 211.57 149.952 211.57C154.654 211.57 156.688 207.765 156.688 205.476C156.688 201.563 153.159 198.74 153.159 198.74C157.079 201.793 164.066 199.709 164.066 193.607C164.066 190.553 161.57 187.192 157.651 187.192C152.948 187.192 150.915 192.325 150.915 192.325C150.915 192.325 150.317 186.475 153.801 183.343H146.103C149.586 186.473 148.989 192.325 148.989 192.325C148.989 192.325 146.955 187.192 142.253 187.192C138.333 187.192 135.838 190.554 135.838 193.607C135.838 199.709 142.825 201.793 146.744 198.74Z" fill="black"/>
<path d="M59.4337 55.5C59.4337 55.5 65.401 50.7261 65.401 44.1079C65.401 40.2335 61.9613 33.8013 54.009 33.8013C46.0567 33.8013 42.617 40.236 42.617 44.1079C42.617 50.7261 48.5844 55.5 48.5844 55.5C41.9562 50.3366 30.1395 53.8618 30.1395 64.1809C30.1395 69.3468 34.3607 75.0302 40.9888 75.0302C48.9411 75.0302 52.3809 66.3493 52.3809 66.3493C52.3809 66.3493 53.3909 76.2438 47.4989 81.5403H60.5191C54.6271 76.2463 55.6372 66.3493 55.6372 66.3493C55.6372 66.3493 59.0769 75.0302 67.0292 75.0302C73.6599 75.0302 77.8785 69.3443 77.8785 64.1809C77.8785 53.8618 66.0619 50.3366 59.4337 55.5Z" fill="black"/>
<path d="M48.6291 188.244C48.6291 188.244 42.6618 193.018 42.6618 199.636C42.6618 203.51 46.1015 209.943 54.0538 209.943C62.0061 209.943 65.4458 203.508 65.4458 199.636C65.4458 193.018 59.4784 188.244 59.4784 188.244C66.1066 193.407 77.9233 189.882 77.9233 179.563C77.9233 174.397 73.7021 168.714 67.074 168.714C59.1217 168.714 55.6819 177.395 55.6819 177.395C55.6819 177.395 54.6719 167.5 60.5639 162.204H47.5437C53.4357 167.498 52.4256 177.395 52.4256 177.395C52.4256 177.395 48.9859 168.714 41.0336 168.714C34.4029 168.714 30.1843 174.4 30.1843 179.563C30.1843 189.882 42.001 193.407 48.6291 188.244Z" fill="black"/>
<path d="M117.51 55.5C117.51 55.5 123.478 50.7261 123.478 44.1079C123.478 40.2335 120.038 33.8013 112.086 33.8013C104.133 33.8013 100.694 40.236 100.694 44.1079C100.694 50.7261 106.661 55.5 106.661 55.5C100.033 50.3366 88.2163 53.8618 88.2163 64.1809C88.2163 69.3468 92.4374 75.0302 99.0656 75.0302C107.018 75.0302 110.458 66.3493 110.458 66.3493C110.458 66.3493 111.468 76.2438 105.576 81.5403H118.596C112.704 76.2463 113.714 66.3493 113.714 66.3493C113.714 66.3493 117.154 75.0302 125.106 75.0302C131.737 75.0302 135.955 69.3443 135.955 64.1809C135.955 53.8618 124.139 50.3366 117.51 55.5Z" fill="black"/>
<path d="M106.706 188.244C106.706 188.244 100.739 193.018 100.739 199.636C100.739 203.51 104.178 209.943 112.131 209.943C120.083 209.943 123.523 203.508 123.523 199.636C123.523 193.018 117.555 188.244 117.555 188.244C124.183 193.407 136 189.882 136 179.563C136 174.397 131.779 168.714 125.151 168.714C117.198 168.714 113.759 177.395 113.759 177.395C113.759 177.395 112.749 167.5 118.641 162.204H105.62C111.512 167.498 110.502 177.395 110.502 177.395C110.502 177.395 107.063 168.714 99.1104 168.714C92.4797 168.714 88.2611 174.4 88.2611 179.563C88.2611 189.882 100.078 193.407 106.706 188.244Z" fill="black"/>
<path d="M88.2337 118.801C88.2337 118.801 94.201 114.027 94.201 107.409C94.201 103.534 90.7613 97.1021 82.809 97.1021C74.8567 97.1021 71.417 103.537 71.417 107.409C71.417 114.027 77.3843 118.801 77.3843 118.801C70.7562 113.637 58.9395 117.163 58.9395 127.482C58.9395 132.648 63.1606 138.331 69.7888 138.331C77.7411 138.331 81.1809 129.65 81.1809 129.65C81.1809 129.65 82.1909 139.545 76.2989 144.841H89.3191C83.4271 139.547 84.4372 129.65 84.4372 129.65C84.4372 129.65 87.8769 138.331 95.8292 138.331C102.46 138.331 106.678 132.645 106.678 127.482C106.678 117.163 94.8618 113.637 88.2337 118.801Z" fill="black"/>
</g>
<defs>
<clipPath id="clip0">
<rect x="0.260803" width="167.087" height="242.667" fill="white"/>
</clipPath>
</defs>
</svg>
