<svg width="168" height="243" viewBox="0 0 168 243" fill="none" xmlns="http://www.w3.org/2000/svg">
<g clip-path="url(#clip0)">
<path d="M167.185 235.548C167.185 239.325 164.098 242.417 160.314 242.417H7.45856C3.68365 242.417 0.597717 239.325 0.597717 235.548V7.12012C0.597717 3.34277 3.68365 0.25 7.45856 0.25H160.314C164.098 0.25 167.185 3.34277 167.185 7.12012V235.548V235.548Z" fill="white" stroke="black" stroke-width="0.5"/>
<path d="M21.8926 2.78278V5.2359H21.3614C19.1114 5.27757 17.3197 5.94423 15.9864 7.2359C14.6531 8.52757 13.8822 10.3453 13.6739 12.689C14.8718 11.314 16.5072 10.6265 18.5801 10.6265C20.5593 10.6265 22.1374 11.3244 23.3145 12.7203C24.502 14.1161 25.0958 15.9182 25.0958 18.1265C25.0958 20.4703 24.4551 22.3453 23.1739 23.7515C21.9031 25.1578 20.1947 25.8609 18.0489 25.8609C15.8718 25.8609 14.1062 25.0276 12.752 23.3609C11.3978 21.6838 10.7208 19.5276 10.7208 16.8922V15.7828C10.7208 11.5953 11.6114 8.39736 13.3926 6.18903C15.1843 3.97028 17.8458 2.83486 21.377 2.78278H21.8926ZM18.0958 13.0328C17.1062 13.0328 16.1947 13.3297 15.3614 13.9234C14.5281 14.5172 13.9499 15.2619 13.627 16.1578V17.2203C13.627 19.0953 14.0489 20.6057 14.8926 21.7515C15.7364 22.8974 16.7885 23.4703 18.0489 23.4703C19.351 23.4703 20.3718 22.9911 21.1114 22.0328C21.8614 21.0744 22.2364 19.8192 22.2364 18.2672C22.2364 16.7047 21.8562 15.4442 21.0958 14.4859C20.3458 13.5172 19.3458 13.0328 18.0958 13.0328Z" fill="black"/>
<path d="M21.0386 43.7397C21.0386 43.7397 24.567 40.917 24.567 37.0037C24.567 34.7129 22.5332 30.9096 17.8311 30.9096C13.129 30.9096 11.0951 34.7144 11.0951 37.0037C11.0951 40.917 14.6236 43.7397 14.6236 43.7397C10.7044 40.6867 3.71741 42.771 3.71741 48.8726C3.71741 51.9271 6.2133 55.2876 10.1324 55.2876C14.8345 55.2876 16.8684 50.1547 16.8684 50.1547C16.8684 50.1547 17.4656 56.0052 13.9818 59.137H21.6804C18.1966 56.0067 18.7938 50.1547 18.7938 50.1547C18.7938 50.1547 20.8276 55.2876 25.5297 55.2876C29.4504 55.2876 31.9448 51.9256 31.9448 48.8726C31.9448 42.771 24.9578 40.6867 21.0386 43.7397Z" fill="black"/>
<path d="M145.977 239.232V236.779H146.509C148.759 236.737 150.55 236.071 151.884 234.779C153.217 233.487 153.988 231.67 154.196 229.326C152.998 230.701 151.363 231.388 149.29 231.388C147.311 231.388 145.733 230.691 144.555 229.295C143.368 227.899 142.774 226.097 142.774 223.888C142.774 221.545 143.415 219.67 144.696 218.263C145.967 216.857 147.675 216.154 149.821 216.154C151.998 216.154 153.764 216.987 155.118 218.654C156.472 220.331 157.149 222.487 157.149 225.123V226.232C157.149 230.42 156.259 233.618 154.477 235.826C152.686 238.045 150.024 239.18 146.493 239.232H145.977ZM149.774 228.982C150.764 228.982 151.675 228.685 152.509 228.092C153.342 227.498 153.92 226.753 154.243 225.857V224.795C154.243 222.92 153.821 221.409 152.977 220.263C152.134 219.118 151.081 218.545 149.821 218.545C148.519 218.545 147.498 219.024 146.759 219.982C146.009 220.941 145.634 222.196 145.634 223.748C145.634 225.31 146.014 226.571 146.774 227.529C147.524 228.498 148.524 228.982 149.774 228.982Z" fill="black"/>
<path d="M146.831 198.74C146.831 198.74 143.303 201.563 143.303 205.476C143.303 207.767 145.337 211.57 150.039 211.57C154.741 211.57 156.775 207.765 156.775 205.476C156.775 201.563 153.246 198.74 153.246 198.74C157.166 201.793 164.153 199.709 164.153 193.607C164.153 190.553 161.657 187.192 157.738 187.192C153.035 187.192 151.002 192.325 151.002 192.325C151.002 192.325 150.404 186.475 153.888 183.343H146.19C149.673 186.473 149.076 192.325 149.076 192.325C149.076 192.325 147.042 187.192 142.34 187.192C138.42 187.192 135.925 190.554 135.925 193.607C135.925 199.709 142.912 201.793 146.831 198.74Z" fill="black"/>
<path d="M62.7205 47.5C62.7205 47.5 68.6879 42.7261 68.6879 36.1079C68.6879 32.2335 65.2482 25.8013 57.2959 25.8013C49.3436 25.8013 45.9039 32.236 45.9039 36.1079C45.9039 42.7261 51.8712 47.5 51.8712 47.5C45.243 42.3366 33.4264 45.8618 33.4264 56.1809C33.4264 61.3468 37.6475 67.0302 44.2757 67.0302C52.228 67.0302 55.6677 58.3493 55.6677 58.3493C55.6677 58.3493 56.6778 68.2438 50.7858 73.5403H63.806C57.914 68.2463 58.924 58.3493 58.924 58.3493C58.924 58.3493 62.3637 67.0302 70.3161 67.0302C76.9467 67.0302 81.1654 61.3443 81.1654 56.1809C81.1654 45.8618 69.3487 42.3366 62.7205 47.5Z" fill="black"/>
<path d="M51.9161 196.244C51.9161 196.244 45.9487 201.018 45.9487 207.636C45.9487 211.51 49.3884 217.943 57.3407 217.943C65.293 217.943 68.7327 211.508 68.7327 207.636C68.7327 201.018 62.7654 196.244 62.7654 196.244C69.3936 201.407 81.2102 197.882 81.2102 187.563C81.2102 182.397 76.9891 176.714 70.3609 176.714C62.4086 176.714 58.9689 185.395 58.9689 185.395C58.9689 185.395 57.9588 175.5 63.8508 170.204H50.8306C56.7226 175.498 55.7126 185.395 55.7126 185.395C55.7126 185.395 52.2728 176.714 44.3205 176.714C37.6898 176.714 33.4712 182.4 33.4712 187.563C33.4712 197.882 45.2879 201.407 51.9161 196.244Z" fill="black"/>
<path d="M62.7205 117.201C62.7205 117.201 68.6879 112.427 68.6879 105.809C68.6879 101.934 65.2482 95.5021 57.2959 95.5021C49.3436 95.5021 45.9039 101.937 45.9039 105.809C45.9039 112.427 51.8712 117.201 51.8712 117.201C45.243 112.037 33.4264 115.563 33.4264 125.882C33.4264 131.048 37.6475 136.731 44.2757 136.731C52.228 136.731 55.6677 128.05 55.6677 128.05C55.6677 128.05 56.6778 137.945 50.7858 143.241H63.806C57.914 137.947 58.924 128.05 58.924 128.05C58.924 128.05 62.3637 136.731 70.3161 136.731C76.9467 136.731 81.1654 131.045 81.1654 125.882C81.1654 115.563 69.3487 112.037 62.7205 117.201Z" fill="black"/>
<path d="M115.506 47.3262C115.506 47.3262 121.473 42.5523 121.473 35.9342C121.473 32.0598 118.033 25.6276 110.081 25.6276C102.129 25.6276 98.6889 32.0623 98.6889 35.9342C98.6889 42.5523 104.656 47.3262 104.656 47.3262C98.0281 42.1629 86.2114 45.688 86.2114 56.0072C86.2114 61.1731 90.4326 66.8565 97.0607 66.8565C105.013 66.8565 108.453 58.1756 108.453 58.1756C108.453 58.1756 109.463 68.0701 103.571 73.3666H116.591C110.699 68.0726 111.709 58.1756 111.709 58.1756C111.709 58.1756 115.149 66.8565 123.101 66.8565C129.732 66.8565 133.95 61.1706 133.95 56.0072C133.95 45.688 122.134 42.1629 115.506 47.3262Z" fill="black"/>
<path d="M104.701 196.07C104.701 196.07 98.7337 200.844 98.7337 207.462C98.7337 211.337 102.173 217.769 110.126 217.769C118.078 217.769 121.518 211.334 121.518 207.462C121.518 200.844 115.55 196.07 115.55 196.07C122.179 201.234 133.995 197.709 133.995 187.389C133.995 182.224 129.774 176.54 123.146 176.54C115.194 176.54 111.754 185.221 111.754 185.221C111.754 185.221 110.744 175.327 116.636 170.03H103.616C109.508 175.324 108.498 185.221 108.498 185.221C108.498 185.221 105.058 176.54 97.1056 176.54C90.4749 176.54 86.2563 182.226 86.2563 187.389C86.2563 197.709 98.0729 201.234 104.701 196.07Z" fill="black"/>
<path d="M115.506 117.027C115.506 117.027 121.473 112.253 121.473 105.635C121.473 101.761 118.033 95.3284 110.081 95.3284C102.129 95.3284 98.6889 101.763 98.6889 105.635C98.6889 112.253 104.656 117.027 104.656 117.027C98.0281 111.864 86.2114 115.389 86.2114 125.708C86.2114 130.874 90.4326 136.557 97.0607 136.557C105.013 136.557 108.453 127.876 108.453 127.876C108.453 127.876 109.463 137.771 103.571 143.067H116.591C110.699 137.773 111.709 127.876 111.709 127.876C111.709 127.876 115.149 136.557 123.101 136.557C129.732 136.557 133.95 130.871 133.95 125.708C133.95 115.389 122.134 111.864 115.506 117.027Z" fill="black"/>
</g>
<defs>
<clipPath id="clip0">
<rect x="0.347717" width="167.087" height="242.667" fill="white"/>
</clipPath>
</defs>
</svg>
