<svg width="168" height="243" viewBox="0 0 168 243" fill="none" xmlns="http://www.w3.org/2000/svg">
<g clip-path="url(#clip0)">
<path d="M167.271 235.548C167.271 239.325 164.185 242.417 160.4 242.417H7.54541C3.77051 242.417 0.68457 239.325 0.68457 235.548V7.12012C0.68457 3.34277 3.77051 0.25 7.54541 0.25H160.4C164.185 0.25 167.271 3.34277 167.271 7.12012V235.548V235.548Z" fill="white" stroke="black" stroke-width="0.5"/>
<path d="M25.3232 4.4234L15.9014 25.5484H12.8701L22.2607 5.1734H9.94824V2.7984H25.3232V4.4234Z" fill="black"/>
<path d="M21.1254 43.7397C21.1254 43.7397 24.6538 40.917 24.6538 37.0037C24.6538 34.7129 22.62 30.9096 17.9179 30.9096C13.2158 30.9096 11.1819 34.7144 11.1819 37.0037C11.1819 40.917 14.7104 43.7397 14.7104 43.7397C10.7912 40.6867 3.8042 42.771 3.8042 48.8726C3.8042 51.9271 6.30009 55.2876 10.2192 55.2876C14.9213 55.2876 16.9552 50.1547 16.9552 50.1547C16.9552 50.1547 17.5524 56.0052 14.0686 59.137H21.7672C18.2833 56.0067 18.8806 50.1547 18.8806 50.1547C18.8806 50.1547 20.9144 55.2876 25.6165 55.2876C29.5372 55.2876 32.0316 51.9256 32.0316 48.8726C32.0316 42.771 25.0445 40.6867 21.1254 43.7397Z" fill="black"/>
<path d="M142.72 237.592L152.142 216.467H155.174L145.783 236.842H158.095V239.217H142.72V237.592Z" fill="black"/>
<path d="M146.918 198.74C146.918 198.74 143.39 201.563 143.39 205.476C143.39 207.767 145.424 211.57 150.126 211.57C154.828 211.57 156.862 207.765 156.862 205.476C156.862 201.563 153.333 198.74 153.333 198.74C157.252 201.793 164.239 199.709 164.239 193.607C164.239 190.553 161.743 187.192 157.824 187.192C153.122 187.192 151.088 192.325 151.088 192.325C151.088 192.325 150.491 186.475 153.975 183.343H146.276C149.76 186.473 149.163 192.325 149.163 192.325C149.163 192.325 147.129 187.192 142.427 187.192C138.506 187.192 136.012 190.554 136.012 193.607C136.012 199.709 142.999 201.793 146.918 198.74Z" fill="black"/>
<path d="M62.8075 29.9C62.8075 29.9 68.7748 25.1261 68.7748 18.5079C68.7748 14.6336 65.3351 8.20135 57.3828 8.20135C49.4305 8.20135 45.9908 14.6361 45.9908 18.5079C45.9908 25.1261 51.9581 29.9 51.9581 29.9C45.33 24.7366 33.5133 28.2618 33.5133 38.5809C33.5133 43.7468 37.7344 49.4302 44.3626 49.4302C52.3149 49.4302 55.7546 40.7493 55.7546 40.7493C55.7546 40.7493 56.7647 50.6438 50.8727 55.9403H63.8929C58.0009 50.6463 59.0109 40.7493 59.0109 40.7493C59.0109 40.7493 62.4507 49.4302 70.403 49.4302C77.0337 49.4302 81.2523 43.7443 81.2523 38.5809C81.2523 28.2618 69.4356 24.7366 62.8075 29.9Z" fill="black"/>
<path d="M52.0029 212.244C52.0029 212.244 46.0355 217.018 46.0355 223.636C46.0355 227.51 49.4752 233.943 57.4275 233.943C65.3798 233.943 68.8195 227.508 68.8195 223.636C68.8195 217.018 62.8522 212.244 62.8522 212.244C69.4803 217.407 81.297 213.882 81.297 203.563C81.297 198.397 77.0759 192.714 70.4477 192.714C62.4954 192.714 59.0557 201.395 59.0557 201.395C59.0557 201.395 58.0456 191.5 63.9376 186.204H50.9174C56.8094 191.498 55.7994 201.395 55.7994 201.395C55.7994 201.395 52.3596 192.714 44.4073 192.714C37.7766 192.714 33.558 198.4 33.558 203.563C33.558 213.882 45.3747 217.407 52.0029 212.244Z" fill="black"/>
<path d="M62.8075 120.401C62.8075 120.401 68.7748 115.627 68.7748 109.009C68.7748 105.134 65.3351 98.7021 57.3828 98.7021C49.4305 98.7021 45.9908 105.137 45.9908 109.009C45.9908 115.627 51.9581 120.401 51.9581 120.401C45.33 115.237 33.5133 118.763 33.5133 129.082C33.5133 134.248 37.7344 139.931 44.3626 139.931C52.3149 139.931 55.7546 131.25 55.7546 131.25C55.7546 131.25 56.7647 141.145 50.8727 146.441H63.8929C58.0009 141.147 59.0109 131.25 59.0109 131.25C59.0109 131.25 62.4507 139.931 70.403 139.931C77.0337 139.931 81.2523 134.245 81.2523 129.082C81.2523 118.763 69.4356 115.237 62.8075 120.401Z" fill="black"/>
<path d="M115.592 29.7262C115.592 29.7262 121.56 24.9523 121.56 18.3342C121.56 14.4598 118.12 8.02759 110.168 8.02759C102.216 8.02759 98.7758 14.4623 98.7758 18.3342C98.7758 24.9523 104.743 29.7262 104.743 29.7262C98.115 24.5629 86.2983 28.088 86.2983 38.4072C86.2983 43.573 90.5195 49.2565 97.1477 49.2565C105.1 49.2565 108.54 40.5755 108.54 40.5755C108.54 40.5755 109.55 50.4701 103.658 55.7666H116.678C110.786 50.4726 111.796 40.5755 111.796 40.5755C111.796 40.5755 115.236 49.2565 123.188 49.2565C129.819 49.2565 134.037 43.5705 134.037 38.4072C134.037 28.088 122.221 24.5629 115.592 29.7262Z" fill="black"/>
<path d="M104.788 212.07C104.788 212.07 98.8205 216.844 98.8205 223.462C98.8205 227.337 102.26 233.769 110.213 233.769C118.165 233.769 121.605 227.334 121.605 223.462C121.605 216.844 115.637 212.07 115.637 212.07C122.265 217.234 134.082 213.709 134.082 203.389C134.082 198.224 129.861 192.54 123.233 192.54C115.28 192.54 111.841 201.221 111.841 201.221C111.841 201.221 110.831 191.327 116.723 186.03H103.702C109.594 191.324 108.584 201.221 108.584 201.221C108.584 201.221 105.145 192.54 97.1924 192.54C90.5617 192.54 86.3431 198.226 86.3431 203.389C86.3431 213.709 98.1597 217.234 104.788 212.07Z" fill="black"/>
<path d="M115.592 120.227C115.592 120.227 121.56 115.453 121.56 108.835C121.56 104.961 118.12 98.5284 110.168 98.5284C102.216 98.5284 98.7758 104.963 98.7758 108.835C98.7758 115.453 104.743 120.227 104.743 120.227C98.115 115.064 86.2983 118.589 86.2983 128.908C86.2983 134.074 90.5195 139.757 97.1477 139.757C105.1 139.757 108.54 131.076 108.54 131.076C108.54 131.076 109.55 140.971 103.658 146.267H116.678C110.786 140.973 111.796 131.076 111.796 131.076C111.796 131.076 115.236 139.757 123.188 139.757C129.819 139.757 134.037 134.071 134.037 128.908C134.037 118.589 122.221 115.064 115.592 120.227Z" fill="black"/>
<path d="M88.7401 75.6534C88.7401 75.6534 94.7074 70.8795 94.7074 64.2614C94.7074 60.387 91.2677 53.9548 83.3154 53.9548C75.3631 53.9548 71.9234 60.3895 71.9234 64.2614C71.9234 70.8795 77.8908 75.6534 77.8908 75.6534C71.2626 70.49 59.4459 74.0152 59.4459 84.3344C59.4459 89.5002 63.6671 95.1837 70.2952 95.1837C78.2475 95.1837 81.6873 86.5027 81.6873 86.5027C81.6873 86.5027 82.6973 96.3972 76.8053 101.694H89.8255C83.9335 96.3997 84.9436 86.5027 84.9436 86.5027C84.9436 86.5027 88.3833 95.1837 96.3356 95.1837C102.966 95.1837 107.185 89.4977 107.185 84.3344C107.185 74.0152 95.3682 70.49 88.7401 75.6534Z" fill="black"/>
</g>
<defs>
<clipPath id="clip0">
<rect x="0.43457" width="167.087" height="242.667" fill="white"/>
</clipPath>
</defs>
</svg>
