<svg width="168" height="243" viewBox="0 0 168 243" fill="none" xmlns="http://www.w3.org/2000/svg">
<g clip-path="url(#clip0)">
<path d="M167.358 235.548C167.358 239.325 164.271 242.417 160.487 242.417H7.63232C3.85742 242.417 0.771484 239.325 0.771484 235.548V7.12012C0.771484 3.34277 3.85742 0.25 7.63232 0.25H160.487C164.271 0.25 167.358 3.34277 167.358 7.12012V235.548V235.548Z" fill="white" stroke="black" stroke-width="0.5"/>
<path d="M24.5195 8.7359C24.5195 9.87132 24.2174 10.8817 23.6133 11.7672C23.0195 12.6526 22.2122 13.3453 21.1914 13.8453C22.3789 14.3557 23.3164 15.1005 24.0039 16.0797C24.7018 17.0588 25.0508 18.1682 25.0508 19.4078C25.0508 21.3765 24.3841 22.9442 23.0508 24.1109C21.7279 25.2776 19.9831 25.8609 17.8164 25.8609C15.6289 25.8609 13.8737 25.2776 12.5508 24.1109C11.2383 22.9338 10.582 21.3661 10.582 19.4078C10.582 18.1786 10.9154 17.0692 11.582 16.0797C12.2591 15.0901 13.1914 14.3401 14.3789 13.8297C13.3685 13.3297 12.5716 12.6369 11.9883 11.7515C11.4049 10.8661 11.1133 9.8609 11.1133 8.7359C11.1133 6.81923 11.7279 5.2984 12.957 4.1734C14.1862 3.0484 15.806 2.4859 17.8164 2.4859C19.8164 2.4859 21.431 3.0484 22.6602 4.1734C23.8997 5.2984 24.5195 6.81923 24.5195 8.7359ZM22.1602 19.3453C22.1602 18.0744 21.7539 17.038 20.9414 16.2359C20.1393 15.4338 19.0872 15.0328 17.7852 15.0328C16.4831 15.0328 15.4362 15.4286 14.6445 16.2203C13.8633 17.0119 13.4727 18.0536 13.4727 19.3453C13.4727 20.6369 13.8529 21.6526 14.6133 22.3922C15.3841 23.1317 16.4518 23.5015 17.8164 23.5015C19.1706 23.5015 20.2331 23.1317 21.0039 22.3922C21.7747 21.6422 22.1602 20.6265 22.1602 19.3453ZM17.8164 4.8609C16.681 4.8609 15.7591 5.21507 15.0508 5.9234C14.3529 6.62132 14.0039 7.57444 14.0039 8.78278C14.0039 9.93903 14.3477 10.8765 15.0352 11.5953C15.7331 12.3036 16.6602 12.6578 17.8164 12.6578C18.9727 12.6578 19.8945 12.3036 20.582 11.5953C21.2799 10.8765 21.6289 9.93903 21.6289 8.78278C21.6289 7.62653 21.2695 6.68382 20.5508 5.95465C19.832 5.22548 18.9206 4.8609 17.8164 4.8609Z" fill="black"/>
<path d="M21.2123 43.7397C21.2123 43.7397 24.7407 40.917 24.7407 37.0037C24.7407 34.7129 22.7069 30.9096 18.0048 30.9096C13.3027 30.9096 11.2689 34.7144 11.2689 37.0037C11.2689 40.917 14.7973 43.7397 14.7973 43.7397C10.8781 40.6867 3.89111 42.771 3.89111 48.8726C3.89111 51.9271 6.38701 55.2876 10.3062 55.2876C15.0082 55.2876 17.0421 50.1547 17.0421 50.1547C17.0421 50.1547 17.6393 56.0052 14.1555 59.137H21.8541C18.3703 56.0067 18.9675 50.1547 18.9675 50.1547C18.9675 50.1547 21.0014 55.2876 25.7034 55.2876C29.6241 55.2876 32.1185 51.9256 32.1185 48.8726C32.1185 42.771 25.1315 40.6867 21.2123 43.7397Z" fill="black"/>
<path d="M143.698 233.279C143.698 232.144 144 231.133 144.604 230.248C145.198 229.362 146.005 228.67 147.026 228.17C145.839 227.659 144.901 226.915 144.214 225.935C143.516 224.956 143.167 223.847 143.167 222.607C143.167 220.638 143.833 219.071 145.167 217.904C146.49 216.737 148.234 216.154 150.401 216.154C152.589 216.154 154.344 216.737 155.667 217.904C156.979 219.081 157.635 220.649 157.635 222.607C157.635 223.836 157.302 224.946 156.635 225.935C155.958 226.925 155.026 227.675 153.839 228.185C154.849 228.685 155.646 229.378 156.229 230.263C156.813 231.149 157.104 232.154 157.104 233.279C157.104 235.196 156.49 236.717 155.26 237.842C154.031 238.967 152.412 239.529 150.401 239.529C148.401 239.529 146.787 238.967 145.557 237.842C144.318 236.717 143.698 235.196 143.698 233.279ZM146.057 222.67C146.057 223.941 146.464 224.977 147.276 225.779C148.078 226.581 149.13 226.982 150.432 226.982C151.734 226.982 152.781 226.586 153.573 225.795C154.354 225.003 154.745 223.961 154.745 222.67C154.745 221.378 154.365 220.362 153.604 219.623C152.833 218.883 151.766 218.513 150.401 218.513C149.047 218.513 147.984 218.883 147.214 219.623C146.443 220.373 146.057 221.388 146.057 222.67ZM150.401 237.154C151.537 237.154 152.458 236.8 153.167 236.092C153.865 235.394 154.214 234.441 154.214 233.232C154.214 232.076 153.87 231.138 153.182 230.42C152.484 229.711 151.557 229.357 150.401 229.357C149.245 229.357 148.323 229.711 147.635 230.42C146.938 231.138 146.589 232.076 146.589 233.232C146.589 234.388 146.948 235.331 147.667 236.06C148.385 236.79 149.297 237.154 150.401 237.154Z" fill="black"/>
<path d="M147.005 198.74C147.005 198.74 143.477 201.563 143.477 205.476C143.477 207.767 145.511 211.57 150.213 211.57C154.915 211.57 156.949 207.765 156.949 205.476C156.949 201.563 153.42 198.74 153.42 198.74C157.339 201.793 164.326 199.709 164.326 193.607C164.326 190.553 161.83 187.192 157.911 187.192C153.209 187.192 151.175 192.325 151.175 192.325C151.175 192.325 150.578 186.475 154.062 183.343H146.363C149.847 186.473 149.25 192.325 149.25 192.325C149.25 192.325 147.216 187.192 142.514 187.192C138.593 187.192 136.099 190.554 136.099 193.607C136.099 199.709 143.086 201.793 147.005 198.74Z" fill="black"/>
<path d="M62.8944 29.9C62.8944 29.9 68.8617 25.1261 68.8617 18.5079C68.8617 14.6336 65.422 8.20135 57.4697 8.20135C49.5174 8.20135 46.0777 14.6361 46.0777 18.5079C46.0777 25.1261 52.0451 29.9 52.0451 29.9C45.4169 24.7366 33.6002 28.2618 33.6002 38.5809C33.6002 43.7468 37.8214 49.4302 44.4495 49.4302C52.4018 49.4302 55.8416 40.7493 55.8416 40.7493C55.8416 40.7493 56.8516 50.6438 50.9596 55.9403H63.9798C58.0878 50.6463 59.0979 40.7493 59.0979 40.7493C59.0979 40.7493 62.5376 49.4302 70.4899 49.4302C77.1206 49.4302 81.3392 43.7443 81.3392 38.5809C81.3392 28.2618 69.5225 24.7366 62.8944 29.9Z" fill="black"/>
<path d="M52.0898 212.244C52.0898 212.244 46.1224 217.018 46.1224 223.636C46.1224 227.51 49.5621 233.943 57.5144 233.943C65.4667 233.943 68.9065 227.508 68.9065 223.636C68.9065 217.018 62.9391 212.244 62.9391 212.244C69.5673 217.407 81.3839 213.882 81.3839 203.563C81.3839 198.397 77.1628 192.714 70.5346 192.714C62.5823 192.714 59.1426 201.395 59.1426 201.395C59.1426 201.395 58.1325 191.5 64.0245 186.204H51.0043C56.8963 191.498 55.8863 201.395 55.8863 201.395C55.8863 201.395 52.4466 192.714 44.4942 192.714C37.8636 192.714 33.6449 198.4 33.6449 203.563C33.6449 213.882 45.4616 217.407 52.0898 212.244Z" fill="black"/>
<path d="M62.8944 120.401C62.8944 120.401 68.8617 115.627 68.8617 109.009C68.8617 105.134 65.422 98.7021 57.4697 98.7021C49.5174 98.7021 46.0777 105.137 46.0777 109.009C46.0777 115.627 52.0451 120.401 52.0451 120.401C45.4169 115.237 33.6002 118.763 33.6002 129.082C33.6002 134.248 37.8214 139.931 44.4495 139.931C52.4018 139.931 55.8416 131.25 55.8416 131.25C55.8416 131.25 56.8516 141.145 50.9596 146.441H63.9798C58.0878 141.147 59.0979 131.25 59.0979 131.25C59.0979 131.25 62.5376 139.931 70.4899 139.931C77.1206 139.931 81.3392 134.245 81.3392 129.082C81.3392 118.763 69.5225 115.237 62.8944 120.401Z" fill="black"/>
<path d="M115.679 29.7262C115.679 29.7262 121.647 24.9523 121.647 18.3342C121.647 14.4598 118.207 8.02759 110.255 8.02759C102.302 8.02759 98.8627 14.4623 98.8627 18.3342C98.8627 24.9523 104.83 29.7262 104.83 29.7262C98.2019 24.5629 86.3853 28.088 86.3853 38.4072C86.3853 43.573 90.6064 49.2565 97.2346 49.2565C105.187 49.2565 108.627 40.5755 108.627 40.5755C108.627 40.5755 109.637 50.4701 103.745 55.7666H116.765C110.873 50.4726 111.883 40.5755 111.883 40.5755C111.883 40.5755 115.323 49.2565 123.275 49.2565C129.906 49.2565 134.124 43.5705 134.124 38.4072C134.124 28.088 122.308 24.5629 115.679 29.7262Z" fill="black"/>
<path d="M104.875 212.07C104.875 212.07 98.9074 216.844 98.9074 223.462C98.9074 227.337 102.347 233.769 110.299 233.769C118.252 233.769 121.691 227.334 121.691 223.462C121.691 216.844 115.724 212.07 115.724 212.07C122.352 217.234 134.169 213.709 134.169 203.389C134.169 198.224 129.948 192.54 123.32 192.54C115.367 192.54 111.928 201.221 111.928 201.221C111.928 201.221 110.918 191.327 116.81 186.03H103.789C109.681 191.324 108.671 201.221 108.671 201.221C108.671 201.221 105.232 192.54 97.2793 192.54C90.6486 192.54 86.43 198.226 86.43 203.389C86.43 213.709 98.2466 217.234 104.875 212.07Z" fill="black"/>
<path d="M115.679 120.227C115.679 120.227 121.647 115.453 121.647 108.835C121.647 104.961 118.207 98.5284 110.255 98.5284C102.302 98.5284 98.8627 104.963 98.8627 108.835C98.8627 115.453 104.83 120.227 104.83 120.227C98.2019 115.064 86.3853 118.589 86.3853 128.908C86.3853 134.074 90.6064 139.757 97.2346 139.757C105.187 139.757 108.627 131.076 108.627 131.076C108.627 131.076 109.637 140.971 103.745 146.267H116.765C110.873 140.973 111.883 131.076 111.883 131.076C111.883 131.076 115.323 139.757 123.275 139.757C129.906 139.757 134.124 134.071 134.124 128.908C134.124 118.589 122.308 115.064 115.679 120.227Z" fill="black"/>
<path d="M88.827 75.6534C88.827 75.6534 94.7944 70.8795 94.7944 64.2614C94.7944 60.387 91.3546 53.9548 83.4023 53.9548C75.45 53.9548 72.0103 60.3895 72.0103 64.2614C72.0103 70.8795 77.9777 75.6534 77.9777 75.6534C71.3495 70.49 59.5328 74.0152 59.5328 84.3344C59.5328 89.5002 63.754 95.1837 70.3821 95.1837C78.3345 95.1837 81.7742 86.5027 81.7742 86.5027C81.7742 86.5027 82.7842 96.3972 76.8922 101.694H89.9124C84.0204 96.3997 85.0305 86.5027 85.0305 86.5027C85.0305 86.5027 88.4702 95.1837 96.4225 95.1837C103.053 95.1837 107.272 89.4977 107.272 84.3344C107.272 74.0152 95.4552 70.49 88.827 75.6534Z" fill="black"/>
<path d="M78.5916 169.561C78.5916 169.561 72.6242 174.335 72.6242 180.953C72.6242 184.828 76.0639 191.26 84.0163 191.26C91.9686 191.26 95.4083 184.825 95.4083 180.953C95.4083 174.335 89.4409 169.561 89.4409 169.561C96.0691 174.724 107.886 171.199 107.886 160.88C107.886 155.714 103.665 150.031 97.0364 150.031C89.0841 150.031 85.6444 158.712 85.6444 158.712C85.6444 158.712 84.6343 148.817 90.5263 143.521H77.5062C83.3982 148.815 82.3881 158.712 82.3881 158.712C82.3881 158.712 78.9484 150.031 70.9961 150.031C64.3654 150.031 60.1468 155.717 60.1468 160.88C60.1468 171.199 71.9634 174.724 78.5916 169.561Z" fill="black"/>
</g>
<defs>
<clipPath id="clip0">
<rect x="0.521484" width="167.087" height="242.667" fill="white"/>
</clipPath>
</defs>
</svg>
