<svg width="168" height="243" viewBox="0 0 168 243" fill="none" xmlns="http://www.w3.org/2000/svg">
<g clip-path="url(#clip0)">
<path d="M167.445 235.548C167.445 239.325 164.358 242.417 160.574 242.417H7.71924C3.94434 242.417 0.858398 239.325 0.858398 235.548V7.12012C0.858398 3.34277 3.94434 0.25 7.71924 0.25H160.574C164.358 0.25 167.445 3.34277 167.445 7.12012V235.548V235.548Z" fill="white" stroke="black" stroke-width="0.5"/>
<path d="M21.8877 15.5484C21.2835 16.2672 20.5596 16.8453 19.7158 17.2828C18.8825 17.7203 17.9658 17.939 16.9658 17.939C15.6533 17.939 14.5075 17.6161 13.5283 16.9703C12.5596 16.3244 11.8096 15.4182 11.2783 14.2515C10.7471 13.0744 10.4814 11.7776 10.4814 10.3609C10.4814 8.84007 10.7679 7.47028 11.3408 6.25153C11.9242 5.03278 12.7471 4.10048 13.8096 3.45465C14.8721 2.80882 16.1117 2.4859 17.5283 2.4859C19.7783 2.4859 21.5492 3.32965 22.8408 5.01715C24.1429 6.69423 24.7939 8.9859 24.7939 11.8922V12.7359C24.7939 17.163 23.9189 20.3974 22.1689 22.439C20.4189 24.4703 17.7783 25.5119 14.2471 25.564H13.6846V23.1265H14.2939C16.6794 23.0849 18.5127 22.4651 19.7939 21.2672C21.0752 20.0588 21.7731 18.1526 21.8877 15.5484ZM17.4346 15.5484C18.4033 15.5484 19.2939 15.2515 20.1064 14.6578C20.9294 14.064 21.5283 13.3297 21.9033 12.4547V11.2984C21.9033 9.40257 21.4919 7.8609 20.6689 6.6734C19.846 5.4859 18.8044 4.89215 17.5439 4.89215C16.2731 4.89215 15.2523 5.38173 14.4814 6.3609C13.7106 7.32965 13.3252 8.6109 13.3252 10.2047C13.3252 11.7567 13.695 13.038 14.4346 14.0484C15.1846 15.0484 16.1846 15.5484 17.4346 15.5484Z" fill="black"/>
<path d="M21.2992 43.7397C21.2992 43.7397 24.8276 40.917 24.8276 37.0037C24.8276 34.7129 22.7938 30.9096 18.0917 30.9096C13.3896 30.9096 11.3558 34.7144 11.3558 37.0037C11.3558 40.917 14.8842 43.7397 14.8842 43.7397C10.965 40.6867 3.97803 42.771 3.97803 48.8726C3.97803 51.9271 6.47392 55.2876 10.3931 55.2876C15.0952 55.2876 17.129 50.1547 17.129 50.1547C17.129 50.1547 17.7262 56.0052 14.2424 59.137H21.941C18.4572 56.0067 19.0544 50.1547 19.0544 50.1547C19.0544 50.1547 21.0883 55.2876 25.7903 55.2876C29.711 55.2876 32.2054 51.9256 32.2054 48.8726C32.2054 42.771 25.2184 40.6867 21.2992 43.7397Z" fill="black"/>
<path d="M146.504 226.467C147.108 225.748 147.832 225.17 148.676 224.732C149.509 224.295 150.426 224.076 151.426 224.076C152.738 224.076 153.884 224.399 154.863 225.045C155.832 225.691 156.582 226.597 157.113 227.763C157.644 228.941 157.91 230.237 157.91 231.654C157.91 233.175 157.623 234.545 157.051 235.763C156.467 236.982 155.644 237.915 154.582 238.56C153.519 239.206 152.28 239.529 150.863 239.529C148.613 239.529 146.842 238.685 145.551 236.998C144.248 235.321 143.597 233.029 143.597 230.123V229.279C143.597 224.852 144.472 221.618 146.222 219.576C147.972 217.545 150.613 216.503 154.144 216.451H154.707V218.888H154.097C151.712 218.93 149.879 219.55 148.597 220.748C147.316 221.956 146.618 223.862 146.504 226.467ZM150.957 226.467C149.988 226.467 149.097 226.763 148.285 227.357C147.462 227.951 146.863 228.685 146.488 229.56V230.717C146.488 232.612 146.899 234.154 147.722 235.342C148.545 236.529 149.587 237.123 150.847 237.123C152.118 237.123 153.139 236.633 153.91 235.654C154.681 234.685 155.066 233.404 155.066 231.81C155.066 230.258 154.696 228.977 153.957 227.967C153.207 226.967 152.207 226.467 150.957 226.467Z" fill="black"/>
<path d="M147.092 198.74C147.092 198.74 143.564 201.563 143.564 205.476C143.564 207.767 145.597 211.57 150.3 211.57C155.002 211.57 157.035 207.765 157.035 205.476C157.035 201.563 153.507 198.74 153.507 198.74C157.426 201.793 164.413 199.709 164.413 193.607C164.413 190.553 161.917 187.192 157.998 187.192C153.296 187.192 151.262 192.325 151.262 192.325C151.262 192.325 150.665 186.475 154.149 183.343H146.45C149.934 186.473 149.337 192.325 149.337 192.325C149.337 192.325 147.303 187.192 142.601 187.192C138.68 187.192 136.186 190.554 136.186 193.607C136.186 199.709 143.173 201.793 147.092 198.74Z" fill="black"/>
<path d="M58.1812 25.0999C58.1812 25.0999 64.1486 20.326 64.1486 13.7079C64.1486 9.83351 60.7089 3.40131 52.7566 3.40131C44.8043 3.40131 41.3645 9.83602 41.3645 13.7079C41.3645 20.326 47.3319 25.0999 47.3319 25.0999C40.7037 19.9366 28.8871 23.4617 28.8871 33.7809C28.8871 38.9467 33.1082 44.6302 39.7364 44.6302C47.6887 44.6302 51.1284 35.9492 51.1284 35.9492C51.1284 35.9492 52.1385 45.8438 46.2465 51.1403H59.2667C53.3747 45.8463 54.3847 35.9492 54.3847 35.9492C54.3847 35.9492 57.8244 44.6302 65.7768 44.6302C72.4074 44.6302 76.6261 38.9442 76.6261 33.7809C76.6261 23.4617 64.8094 19.9366 58.1812 25.0999V25.0999Z" fill="black"/>
<path d="M57.7188 93.2008C57.7188 93.2008 63.6862 88.4269 63.6862 81.8087C63.6862 77.9343 60.2465 71.5021 52.2942 71.5021C44.3419 71.5021 40.9021 77.9368 40.9021 81.8087C40.9021 88.4269 46.8695 93.2008 46.8695 93.2008C40.2413 88.0374 28.4247 91.5626 28.4247 101.882C28.4247 107.048 32.6458 112.731 39.274 112.731C47.2263 112.731 50.666 104.05 50.666 104.05C50.666 104.05 51.6761 113.945 45.7841 119.241H58.8043C52.9123 113.947 53.9223 104.05 53.9223 104.05C53.9223 104.05 57.362 112.731 65.3143 112.731C71.945 112.731 76.1637 107.045 76.1637 101.882C76.1637 91.5626 64.347 88.0374 57.7188 93.2008V93.2008Z" fill="black"/>
<path d="M122.166 24.9262C122.166 24.9262 128.134 20.1523 128.134 13.5342C128.134 9.6598 124.694 3.2276 116.742 3.2276C108.789 3.2276 105.35 9.66231 105.35 13.5342C105.35 20.1523 111.317 24.9262 111.317 24.9262C104.689 19.7629 92.8722 23.288 92.8722 33.6072C92.8722 38.773 97.0933 44.4565 103.721 44.4565C111.674 44.4565 115.114 35.7755 115.114 35.7755C115.114 35.7755 116.124 45.6701 110.232 50.9666H123.252C117.36 45.6726 118.37 35.7755 118.37 35.7755C118.37 35.7755 121.81 44.4565 129.762 44.4565C136.393 44.4565 140.611 38.7705 140.611 33.6072C140.611 23.288 128.795 19.7629 122.166 24.9262V24.9262Z" fill="black"/>
<path d="M122.166 93.027C122.166 93.027 128.134 88.2531 128.134 81.635C128.134 77.7606 124.694 71.3284 116.742 71.3284C108.789 71.3284 105.35 77.7631 105.35 81.635C105.35 88.2531 111.317 93.027 111.317 93.027C104.689 87.8636 92.8722 91.3888 92.8722 101.708C92.8722 106.874 97.0933 112.557 103.721 112.557C111.674 112.557 115.114 103.876 115.114 103.876C115.114 103.876 116.124 113.771 110.232 119.067H123.252C117.36 113.773 118.37 103.876 118.37 103.876C118.37 103.876 121.81 112.557 129.762 112.557C136.393 112.557 140.611 106.871 140.611 101.708C140.611 91.3888 128.795 87.8636 122.166 93.027V93.027Z" fill="black"/>
<path d="M90.1849 59.2811C90.1849 59.2811 96.1523 54.5072 96.1523 47.8891C96.1523 44.0147 92.7125 37.5825 84.7602 37.5825C76.8079 37.5825 73.3682 44.0172 73.3682 47.8891C73.3682 54.5072 79.3356 59.2811 79.3356 59.2811C72.7074 54.1177 60.8907 57.6429 60.8907 67.962C60.8907 73.1279 65.1119 78.8113 71.7401 78.8113C79.6924 78.8113 83.1321 70.1304 83.1321 70.1304C83.1321 70.1304 84.1421 80.0249 78.2501 85.3214H91.2703C85.3783 80.0274 86.3884 70.1304 86.3884 70.1304C86.3884 70.1304 89.8281 78.8113 97.7804 78.8113C104.411 78.8113 108.63 73.1254 108.63 67.962C108.63 57.6429 96.8131 54.1177 90.1849 59.2811V59.2811Z" fill="black"/>
<path d="M110.671 217.802C110.671 217.802 104.704 222.576 104.704 229.194C104.704 233.069 108.143 239.501 116.096 239.501C124.048 239.501 127.488 233.066 127.488 229.194C127.488 222.576 121.52 217.802 121.52 217.802C128.149 222.966 139.965 219.44 139.965 209.121C139.965 203.955 135.744 198.272 129.116 198.272C121.164 198.272 117.724 206.953 117.724 206.953C117.724 206.953 116.714 197.058 122.606 191.762H109.586C115.478 197.056 114.468 206.953 114.468 206.953C114.468 206.953 111.028 198.272 103.076 198.272C96.4448 198.272 92.2262 203.958 92.2262 209.121C92.2262 219.44 104.043 222.966 110.671 217.802V217.802Z" fill="black"/>
<path d="M111.317 149.701C111.317 149.701 105.349 154.475 105.349 161.093C105.349 164.968 108.789 171.4 116.741 171.4C124.694 171.4 128.133 164.965 128.133 161.093C128.133 154.475 122.166 149.701 122.166 149.701C128.794 154.865 140.611 151.34 140.611 141.02C140.611 135.855 136.39 130.171 129.761 130.171C121.809 130.171 118.369 138.852 118.369 138.852C118.369 138.852 117.359 128.958 123.251 123.661H110.231C116.123 128.955 115.113 138.852 115.113 138.852C115.113 138.852 111.673 130.171 103.721 130.171C97.0904 130.171 92.8718 135.857 92.8718 141.02C92.8718 151.34 104.688 154.865 111.317 149.701Z" fill="black"/>
<path d="M46.6859 217.976C46.6859 217.976 40.7186 222.75 40.7186 229.368C40.7186 233.242 44.1583 239.675 52.1106 239.675C60.0629 239.675 63.5026 233.24 63.5026 229.368C63.5026 222.75 57.5352 217.976 57.5352 217.976C64.1634 223.139 75.9801 219.614 75.9801 209.295C75.9801 204.129 71.7589 198.446 65.1308 198.446C57.1784 198.446 53.7387 207.127 53.7387 207.127C53.7387 207.127 52.7287 197.232 58.6207 191.936H45.6005C51.4925 197.23 50.4824 207.127 50.4824 207.127C50.4824 207.127 47.0427 198.446 39.0904 198.446C32.4597 198.446 28.2411 204.132 28.2411 209.295C28.2411 219.614 40.0577 223.139 46.6859 217.976Z" fill="black"/>
<path d="M46.8695 149.875C46.8695 149.875 40.9021 154.649 40.9021 161.267C40.9021 165.141 44.3419 171.574 52.2942 171.574C60.2465 171.574 63.6862 165.139 63.6862 161.267C63.6862 154.649 57.7188 149.875 57.7188 149.875C64.347 155.038 76.1637 151.513 76.1637 141.194C76.1637 136.028 71.9425 130.345 65.3143 130.345C57.362 130.345 53.9223 139.026 53.9223 139.026C53.9223 139.026 52.9123 129.131 58.8043 123.835H45.7841C51.6761 129.129 50.666 139.026 50.666 139.026C50.666 139.026 47.2263 130.345 39.274 130.345C32.6433 130.345 28.4247 136.031 28.4247 141.194C28.4247 151.513 40.2413 155.038 46.8695 149.875V149.875Z" fill="black"/>
</g>
<defs>
<clipPath id="clip0">
<rect x="0.608398" width="167.087" height="242.667" fill="white"/>
</clipPath>
</defs>
</svg>
