<svg width="168" height="243" viewBox="0 0 168 243" fill="none" xmlns="http://www.w3.org/2000/svg">
<g clip-path="url(#clip0)">
<path d="M166.88 235.548C166.88 239.325 163.793 242.417 160.009 242.417H7.15381C3.37891 242.417 0.292969 239.325 0.292969 235.548V7.12012C0.292969 3.34277 3.37891 0.25 7.15381 0.25H160.009C163.793 0.25 166.88 3.34277 166.88 7.12012V235.548V235.548Z" fill="white" stroke="black" stroke-width="0.5"/>
<path d="M96.6087 113.44C96.6087 113.44 110.792 102.093 110.792 86.3631C110.792 77.1543 102.617 61.8658 83.715 61.8658C64.8135 61.8658 56.6378 77.1602 56.6378 86.3631C56.6378 102.093 70.8214 113.44 70.8214 113.44C55.0672 101.168 26.9807 109.547 26.9807 134.074C26.9807 146.352 37.0137 159.861 52.768 159.861C71.6694 159.861 79.8452 139.228 79.8452 139.228C79.8452 139.228 82.2459 162.745 68.2415 175.334H99.1886C85.1842 162.751 87.5849 139.228 87.5849 139.228C87.5849 139.228 95.7606 159.861 114.662 159.861C130.422 159.861 140.449 146.346 140.449 134.074C140.449 109.547 112.363 101.168 96.6087 113.44Z" fill="black"/>
<path d="M21.9565 19.611H12.4253L10.2847 25.5485H7.19092L15.8784 2.79846H18.5034L27.2065 25.5485H24.1284L21.9565 19.611ZM13.3315 17.1422H21.0659L17.1909 6.50159L13.3315 17.1422Z" fill="black"/>
<path d="M145.304 222.404H154.835L156.976 216.467H160.069L151.382 239.217H148.757L140.054 216.467H143.132L145.304 222.404ZM153.929 224.873H146.194L150.069 235.513L153.929 224.873Z" fill="black"/>
<path d="M146.526 198.74C146.526 198.74 142.998 201.563 142.998 205.476C142.998 207.767 145.032 211.57 149.734 211.57C154.436 211.57 156.47 207.766 156.47 205.476C156.47 201.563 152.941 198.74 152.941 198.74C156.861 201.793 163.848 199.709 163.848 193.607C163.848 190.553 161.352 187.192 157.433 187.192C152.731 187.192 150.697 192.325 150.697 192.325C150.697 192.325 150.099 186.475 153.583 183.343H145.885C149.369 186.473 148.771 192.325 148.771 192.325C148.771 192.325 146.737 187.192 142.035 187.192C138.115 187.192 135.62 190.554 135.62 193.607C135.62 199.709 142.607 201.793 146.526 198.74Z" fill="black"/>
<path d="M20.7338 43.7397C20.7338 43.7397 24.2622 40.917 24.2622 37.0038C24.2622 34.7129 22.2284 30.9097 17.5263 30.9097C12.8242 30.9097 10.7903 34.7144 10.7903 37.0038C10.7903 40.917 14.3188 43.7397 14.3188 43.7397C10.3996 40.6867 3.4126 42.7711 3.4126 48.8727C3.4126 51.9272 5.90849 55.2877 9.82764 55.2877C14.5297 55.2877 16.5636 50.1548 16.5636 50.1548C16.5636 50.1548 17.1608 56.0053 13.677 59.137H21.3756C17.8917 56.0068 18.489 50.1548 18.489 50.1548C18.489 50.1548 20.5228 55.2877 25.2249 55.2877C29.1456 55.2877 31.64 51.9257 31.64 48.8727C31.64 42.7711 24.6529 40.6867 20.7338 43.7397Z" fill="black"/>
</g>
<defs>
<clipPath id="clip0">
<rect x="0.0429688" width="167.087" height="242.667" fill="white"/>
</clipPath>
</defs>
</svg>
