<svg width="168" height="243" viewBox="0 0 168 243" fill="none" xmlns="http://www.w3.org/2000/svg">
<g clip-path="url(#clip0)">
<path d="M167.532 235.549C167.532 239.326 164.445 242.418 160.661 242.418H7.80615C4.03125 242.418 0.945312 239.326 0.945312 235.549V7.12109C0.945312 3.34375 4.03125 0.250977 7.80615 0.250977H160.661C164.445 0.250977 167.532 3.34375 167.532 7.12109V235.549V235.549Z" fill="white" stroke="black" stroke-width="0.5"/>
<path d="M12.4935 24.4143H9.58728V5.14868L3.75916 7.28931V4.66431L12.0404 1.55493H12.4935V24.4143Z" fill="#DF0000"/>
<path d="M22.4535 37.2583C19.3269 33.0284 17.6634 28.7296 17.6634 28.7296C17.6634 28.7296 15.9999 33.0284 12.8733 37.2583C9.74522 41.4866 5.84814 44.2371 5.84814 44.2371C5.84814 44.2371 9.74522 46.9861 12.8733 51.2175C15.9999 55.4459 17.6634 59.7446 17.6634 59.7446C17.6634 59.7446 19.3269 55.4459 22.4535 51.2175C25.5816 46.9861 29.4786 44.2371 29.4786 44.2371C29.4786 44.2371 25.5816 41.4866 22.4535 37.2583Z" fill="#DF0000"/>
<path d="M156.106 191.526C152.98 187.296 151.316 182.997 151.316 182.997C151.316 182.997 149.653 187.296 146.526 191.526C143.398 195.754 139.501 198.504 139.501 198.504C139.501 198.504 143.398 201.253 146.526 205.485C149.653 209.713 151.316 214.012 151.316 214.012C151.316 214.012 152.98 209.713 156.106 205.485C159.234 201.253 163.131 198.504 163.131 198.504C163.131 198.504 159.234 195.754 156.106 191.526Z" fill="#DF0000"/>
<path d="M63.2187 198.685C57.7393 191.272 54.824 183.739 54.824 183.739C54.824 183.739 51.9087 191.272 46.4293 198.685C40.9473 206.095 34.1177 210.916 34.1177 210.916C34.1177 210.916 40.9473 215.733 46.4293 223.149C51.9087 230.559 54.824 238.093 54.824 238.093C54.824 238.093 57.7393 230.559 63.2187 223.149C68.7007 215.733 75.5303 210.916 75.5303 210.916C75.5303 210.916 68.7007 206.095 63.2187 198.685Z" fill="#DF0000"/>
<path d="M63.2187 19.39C57.7393 11.9771 54.824 4.44348 54.824 4.44348C54.824 4.44348 51.9087 11.9771 46.4293 19.39C40.9473 26.8003 34.1177 31.6205 34.1177 31.6205C34.1177 31.6205 40.9473 36.4382 46.4293 43.8536C51.9087 51.2639 54.824 58.7976 54.824 58.7976C54.824 58.7976 57.7393 51.2639 63.2187 43.8536C68.7007 36.4382 75.5303 31.6205 75.5303 31.6205C75.5303 31.6205 68.7007 26.8003 63.2187 19.39Z" fill="#DF0000"/>
<path d="M63.2187 138.953C57.7393 131.54 54.824 124.007 54.824 124.007C54.824 124.007 51.9087 131.54 46.4293 138.953C40.9473 146.364 34.1177 151.184 34.1177 151.184C34.1177 151.184 40.9473 156.001 46.4293 163.417C51.9087 170.827 54.824 178.361 54.824 178.361C54.824 178.361 57.7393 170.827 63.2187 163.417C68.7007 156.001 75.5303 151.184 75.5303 151.184C75.5303 151.184 68.7007 146.364 63.2187 138.953Z" fill="#DF0000"/>
<path d="M63.2187 79.1219C57.7393 71.7091 54.824 64.1754 54.824 64.1754C54.824 64.1754 51.9087 71.7091 46.4293 79.1219C40.9473 86.5322 34.1177 91.3525 34.1177 91.3525C34.1177 91.3525 40.9473 96.1701 46.4293 103.586C51.9087 110.996 54.824 118.53 54.824 118.53C54.824 118.53 57.7393 110.996 63.2187 103.586C68.7007 96.1701 75.5303 91.3525 75.5303 91.3525C75.5303 91.3525 68.7007 86.5322 63.2187 79.1219Z" fill="#DF0000"/>
<path d="M121.986 198.685C116.506 191.272 113.591 183.739 113.591 183.739C113.591 183.739 110.676 191.272 105.197 198.685C99.7145 206.095 92.8849 210.916 92.8849 210.916C92.8849 210.916 99.7145 215.733 105.197 223.149C110.676 230.559 113.591 238.093 113.591 238.093C113.591 238.093 116.506 230.559 121.986 223.149C127.468 215.733 134.298 210.916 134.298 210.916C134.298 210.916 127.468 206.095 121.986 198.685Z" fill="#DF0000"/>
<path d="M121.986 19.39C116.506 11.9771 113.591 4.44348 113.591 4.44348C113.591 4.44348 110.676 11.9771 105.197 19.39C99.7145 26.8003 92.8849 31.6205 92.8849 31.6205C92.8849 31.6205 99.7145 36.4382 105.197 43.8536C110.676 51.2639 113.591 58.7976 113.591 58.7976C113.591 58.7976 116.506 51.2639 121.986 43.8536C127.468 36.4382 134.298 31.6205 134.298 31.6205C134.298 31.6205 127.468 26.8003 121.986 19.39Z" fill="#DF0000"/>
<path d="M121.986 138.953C116.506 131.54 113.591 124.007 113.591 124.007C113.591 124.007 110.676 131.54 105.197 138.953C99.7145 146.364 92.8849 151.184 92.8849 151.184C92.8849 151.184 99.7145 156.001 105.197 163.417C110.676 170.827 113.591 178.361 113.591 178.361C113.591 178.361 116.506 170.827 121.986 163.417C127.468 156.001 134.298 151.184 134.298 151.184C134.298 151.184 127.468 146.364 121.986 138.953Z" fill="#DF0000"/>
<path d="M121.986 79.1219C116.506 71.7091 113.591 64.1754 113.591 64.1754C113.591 64.1754 110.676 71.7091 105.197 79.1219C99.7145 86.5322 92.8849 91.3525 92.8849 91.3525C92.8849 91.3525 99.7145 96.1701 105.197 103.586C110.676 110.996 113.591 118.53 113.591 118.53C113.591 118.53 116.506 110.996 121.986 103.586C127.468 96.1701 134.298 91.3525 134.298 91.3525C134.298 91.3525 127.468 86.5322 121.986 79.1219Z" fill="#DF0000"/>
<path d="M92.3034 49.5994C86.824 42.1865 83.9087 34.6528 83.9087 34.6528C83.9087 34.6528 80.9935 42.1865 75.514 49.5994C70.032 57.0096 63.2024 61.8299 63.2024 61.8299C63.2024 61.8299 70.032 66.6475 75.514 74.063C80.9935 81.4733 83.9087 89.0069 83.9087 89.0069C83.9087 89.0069 86.824 81.4733 92.3034 74.063C97.7854 66.6475 104.615 61.8299 104.615 61.8299C104.615 61.8299 97.7854 57.0096 92.3034 49.5994Z" fill="#DF0000"/>
<path d="M92.0981 168.609C86.6187 161.196 83.7034 153.662 83.7034 153.662C83.7034 153.662 80.7881 161.196 75.3087 168.609C69.8267 176.019 62.9971 180.839 62.9971 180.839C62.9971 180.839 69.8267 185.657 75.3087 193.072C80.7881 200.482 83.7034 208.016 83.7034 208.016C83.7034 208.016 86.6187 200.482 92.0981 193.072C97.5801 185.657 104.41 180.839 104.41 180.839C104.41 180.839 97.5801 176.019 92.0981 168.609Z" fill="#DF0000"/>
<path d="M30.068 14.674C30.068 18.0594 29.4899 20.575 28.3336 22.2208C27.1774 23.8667 25.3701 24.6896 22.9117 24.6896C20.4847 24.6896 18.6878 23.8875 17.5211 22.2833C16.3545 20.6687 15.7503 18.2625 15.7086 15.0646V11.2052C15.7086 7.86145 16.2867 5.37708 17.443 3.75208C18.5992 2.12708 20.4117 1.31458 22.8805 1.31458C25.3284 1.31458 27.1305 2.10103 28.2867 3.67395C29.443 5.23645 30.0367 7.65312 30.068 10.924V14.674ZM27.1774 10.7208C27.1774 8.27291 26.8336 6.49166 26.1461 5.37708C25.4586 4.25208 24.3701 3.68958 22.8805 3.68958C21.4013 3.68958 20.3232 4.24687 19.6461 5.36145C18.969 6.47603 18.6201 8.18958 18.5992 10.5021V15.1271C18.5992 17.5854 18.9534 19.4031 19.6617 20.5802C20.3805 21.7469 21.4638 22.3302 22.9117 22.3302C24.3388 22.3302 25.3961 21.7781 26.0836 20.674C26.7815 19.5698 27.1461 17.8302 27.1774 15.4552V10.7208Z" fill="#DF0000"/>
<path d="M155.74 217.985H158.646V237.251L164.474 235.11V237.735L156.193 240.844H155.74V217.985Z" fill="#DF0000"/>
<path d="M138.166 227.725C138.166 224.34 138.744 221.824 139.9 220.178C141.056 218.533 142.864 217.71 145.322 217.71C147.749 217.71 149.546 218.512 150.713 220.116C151.879 221.731 152.483 224.137 152.525 227.335V231.194C152.525 234.538 151.947 237.022 150.791 238.647C149.634 240.272 147.822 241.085 145.353 241.085C142.905 241.085 141.103 240.298 139.947 238.725C138.791 237.163 138.197 234.746 138.166 231.475V227.725ZM141.056 231.678C141.056 234.126 141.4 235.908 142.088 237.022C142.775 238.147 143.864 238.71 145.353 238.71C146.832 238.71 147.91 238.152 148.588 237.038C149.265 235.923 149.614 234.21 149.634 231.897V227.272C149.634 224.814 149.28 222.996 148.572 221.819C147.853 220.652 146.77 220.069 145.322 220.069C143.895 220.069 142.838 220.621 142.15 221.725C141.452 222.83 141.088 224.569 141.056 226.944V231.678Z" fill="#DF0000"/>
</g>
<defs>
<clipPath id="clip0">
<rect x="0.695312" y="0.000976562" width="167.087" height="242.667" fill="white"/>
</clipPath>
</defs>
</svg>
