<svg width="168" height="243" viewBox="0 0 168 243" fill="none" xmlns="http://www.w3.org/2000/svg">
<g clip-path="url(#clip0)">
<path d="M166.837 235.549C166.837 239.326 163.75 242.418 159.966 242.418H7.11084C3.33594 242.418 0.25 239.326 0.25 235.549V7.12109C0.25 3.34375 3.33594 0.250977 7.11084 0.250977H159.966C163.75 0.250977 166.837 3.34375 166.837 7.12109V235.549V235.549Z" fill="white" stroke="black" stroke-width="0.5"/>
<path d="M24.6425 24.4143H9.7363V22.3362L17.6113 13.5862C18.778 12.2633 19.58 11.1903 20.0175 10.3674C20.4655 9.5341 20.6894 8.67472 20.6894 7.78931C20.6894 6.60181 20.33 5.62785 19.6113 4.86743C18.8925 4.10701 17.9342 3.72681 16.7363 3.72681C15.2988 3.72681 14.179 4.13826 13.3769 4.96118C12.5853 5.77368 12.1894 6.9091 12.1894 8.36743H9.2988C9.2988 6.27368 9.97067 4.58097 11.3144 3.28931C12.6686 1.99764 14.4759 1.35181 16.7363 1.35181C18.8509 1.35181 20.5228 1.9091 21.7519 3.02368C22.9811 4.12785 23.5957 5.60181 23.5957 7.44556C23.5957 9.68514 22.1686 12.3518 19.3144 15.4456L13.2207 22.0549H24.6425V24.4143Z" fill="#DF0000"/>
<path d="M142.691 218.716H157.597V220.794L149.722 229.544C148.556 230.867 147.753 231.94 147.316 232.763C146.868 233.596 146.644 234.456 146.644 235.341C146.644 236.529 147.003 237.503 147.722 238.263C148.441 239.023 149.399 239.404 150.597 239.404C152.035 239.404 153.155 238.992 153.957 238.169C154.748 237.357 155.144 236.221 155.144 234.763H158.035C158.035 236.857 157.363 238.55 156.019 239.841C154.665 241.133 152.858 241.779 150.597 241.779C148.483 241.779 146.811 241.221 145.582 240.107C144.352 239.003 143.738 237.529 143.738 235.685C143.738 233.445 145.165 230.779 148.019 227.685L154.113 221.076H142.691V218.716Z" fill="#DF0000"/>
<path d="M21.7582 37.2583C18.6316 33.0284 16.9681 28.7296 16.9681 28.7296C16.9681 28.7296 15.3046 33.0284 12.178 37.2583C9.04991 41.4866 5.15283 44.2371 5.15283 44.2371C5.15283 44.2371 9.04991 46.9861 12.178 51.2175C15.3046 55.4459 16.9681 59.7446 16.9681 59.7446C16.9681 59.7446 18.6316 55.4459 21.7582 51.2175C24.8863 46.9861 28.7833 44.2371 28.7833 44.2371C28.7833 44.2371 24.8863 41.4866 21.7582 37.2583Z" fill="#DF0000"/>
<path d="M155.411 191.526C152.284 187.296 150.621 182.997 150.621 182.997C150.621 182.997 148.957 187.296 145.831 191.526C142.703 195.754 138.806 198.504 138.806 198.504C138.806 198.504 142.703 201.253 145.831 205.485C148.957 209.713 150.621 214.012 150.621 214.012C150.621 214.012 152.284 209.713 155.411 205.485C158.539 201.253 162.436 198.504 162.436 198.504C162.436 198.504 158.539 195.754 155.411 191.526Z" fill="#DF0000"/>
<path d="M91.3234 171.792C85.844 164.379 82.9287 156.846 82.9287 156.846C82.9287 156.846 80.0135 164.379 74.5341 171.792C69.0521 179.203 62.2224 184.023 62.2224 184.023C62.2224 184.023 69.0521 188.841 74.5341 196.256C80.0135 203.666 82.9287 211.2 82.9287 211.2C82.9287 211.2 85.844 203.666 91.3234 196.256C96.8054 188.841 103.635 184.023 103.635 184.023C103.635 184.023 96.8054 179.203 91.3234 171.792Z" fill="#DF0000"/>
<path d="M91.3234 43.39C85.844 35.9771 82.9287 28.4435 82.9287 28.4435C82.9287 28.4435 80.0135 35.9771 74.5341 43.39C69.0521 50.8003 62.2224 55.6205 62.2224 55.6205C62.2224 55.6205 69.0521 60.4382 74.5341 67.8536C80.0135 75.2639 82.9287 82.7976 82.9287 82.7976C82.9287 82.7976 85.844 75.2639 91.3234 67.8536C96.8054 60.4382 103.635 55.6205 103.635 55.6205C103.635 55.6205 96.8054 50.8003 91.3234 43.39Z" fill="#DF0000"/>
</g>
<defs>
<clipPath id="clip0">
<rect y="0.000976562" width="167.087" height="242.667" fill="white"/>
</clipPath>
</defs>
</svg>
