<svg width="168" height="243" viewBox="0 0 168 243" fill="none" xmlns="http://www.w3.org/2000/svg">
<g clip-path="url(#clip0)">
<path d="M166.924 235.549C166.924 239.326 163.837 242.418 160.053 242.418H7.19775C3.42285 242.418 0.336914 239.326 0.336914 235.549V7.12109C0.336914 3.34375 3.42285 0.250977 7.19775 0.250977H160.053C163.837 0.250977 166.924 3.34375 166.924 7.12109V235.549V235.549Z" fill="white" stroke="black" stroke-width="0.5"/>
<path d="M14.0263 11.6331H16.1982C17.5628 11.6122 18.6357 11.2528 19.417 10.5549C20.1982 9.85701 20.5888 8.91431 20.5888 7.72681C20.5888 5.06014 19.2607 3.72681 16.6045 3.72681C15.3545 3.72681 14.3545 4.08618 13.6045 4.80493C12.8649 5.51326 12.4951 6.45597 12.4951 7.63306H9.60446C9.60446 5.83097 10.2607 4.33618 11.5732 3.14868C12.8961 1.95076 14.5732 1.35181 16.6045 1.35181C18.7503 1.35181 20.4326 1.91951 21.6513 3.05493C22.8701 4.19035 23.4795 5.76847 23.4795 7.78931C23.4795 8.77889 23.1565 9.73722 22.5107 10.6643C21.8753 11.5914 21.0055 12.2841 19.9013 12.7424C21.1513 13.1383 22.1149 13.7945 22.792 14.7112C23.4795 15.6278 23.8232 16.7476 23.8232 18.0706C23.8232 20.1122 23.1565 21.732 21.8232 22.9299C20.4899 24.1278 18.7555 24.7268 16.6201 24.7268C14.4847 24.7268 12.7451 24.1487 11.4013 22.9924C10.068 21.8362 9.40134 20.3101 9.40134 18.4143H12.3076C12.3076 19.6122 12.6982 20.5706 13.4795 21.2893C14.2607 22.0081 15.3076 22.3674 16.6201 22.3674C18.0159 22.3674 19.0836 22.0028 19.8232 21.2737C20.5628 20.5445 20.9326 19.4976 20.9326 18.1331C20.9326 16.8101 20.5263 15.7945 19.7138 15.0862C18.9013 14.3778 17.7295 14.0133 16.1982 13.9924H14.0263V11.6331Z" fill="#DF0000"/>
<path d="M153.481 231.497H151.309C149.945 231.518 148.872 231.878 148.09 232.576C147.309 233.273 146.919 234.216 146.919 235.404C146.919 238.07 148.247 239.404 150.903 239.404C152.153 239.404 153.153 239.044 153.903 238.326C154.642 237.617 155.012 236.675 155.012 235.497H157.903C157.903 237.3 157.247 238.794 155.934 239.982C154.611 241.18 152.934 241.779 150.903 241.779C148.757 241.779 147.075 241.211 145.856 240.076C144.637 238.94 144.028 237.362 144.028 235.341C144.028 234.352 144.351 233.393 144.997 232.466C145.632 231.539 146.502 230.846 147.606 230.388C146.356 229.992 145.392 229.336 144.715 228.419C144.028 227.503 143.684 226.383 143.684 225.06C143.684 223.018 144.351 221.398 145.684 220.201C147.017 219.003 148.752 218.404 150.887 218.404C153.023 218.404 154.762 218.982 156.106 220.138C157.439 221.294 158.106 222.82 158.106 224.716H155.2C155.2 223.518 154.809 222.56 154.028 221.841C153.247 221.122 152.2 220.763 150.887 220.763C149.491 220.763 148.424 221.128 147.684 221.857C146.945 222.586 146.575 223.633 146.575 224.997C146.575 226.32 146.981 227.336 147.794 228.044C148.606 228.753 149.778 229.117 151.309 229.138H153.481V231.497Z" fill="#DF0000"/>
<path d="M21.8451 37.2583C18.7185 33.0284 17.055 28.7296 17.055 28.7296C17.055 28.7296 15.3915 33.0284 12.2649 37.2583C9.13682 41.4866 5.23975 44.2371 5.23975 44.2371C5.23975 44.2371 9.13682 46.9861 12.2649 51.2175C15.3915 55.4459 17.055 59.7446 17.055 59.7446C17.055 59.7446 18.7185 55.4459 21.8451 51.2175C24.9732 46.9861 28.8703 44.2371 28.8703 44.2371C28.8703 44.2371 24.9732 41.4866 21.8451 37.2583Z" fill="#DF0000"/>
<path d="M155.498 191.526C152.371 187.296 150.708 182.997 150.708 182.997C150.708 182.997 149.044 187.296 145.918 191.526C142.79 195.754 138.893 198.504 138.893 198.504C138.893 198.504 142.79 201.253 145.918 205.485C149.044 209.713 150.708 214.012 150.708 214.012C150.708 214.012 152.371 209.713 155.498 205.485C158.626 201.253 162.523 198.504 162.523 198.504C162.523 198.504 158.626 195.754 155.498 191.526Z" fill="#DF0000"/>
<path d="M91.4103 179.792C85.9309 172.379 83.0157 164.846 83.0157 164.846C83.0157 164.846 80.1004 172.379 74.621 179.792C69.139 187.203 62.3093 192.023 62.3093 192.023C62.3093 192.023 69.139 196.841 74.621 204.256C80.1004 211.666 83.0157 219.2 83.0157 219.2C83.0157 219.2 85.9309 211.666 91.4103 204.256C96.8923 196.841 103.722 192.023 103.722 192.023C103.722 192.023 96.8923 187.203 91.4103 179.792Z" fill="#DF0000"/>
<path d="M91.4103 38.59C85.9309 31.1771 83.0157 23.6434 83.0157 23.6434C83.0157 23.6434 80.1004 31.1771 74.621 38.59C69.139 46.0002 62.3093 50.8205 62.3093 50.8205C62.3093 50.8205 69.139 55.6381 74.621 63.0536C80.1004 70.4639 83.0157 77.9975 83.0157 77.9975C83.0157 77.9975 85.9309 70.4639 91.4103 63.0536C96.8923 55.6381 103.722 50.8205 103.722 50.8205C103.722 50.8205 96.8923 46.0002 91.4103 38.59Z" fill="#DF0000"/>
<path d="M91.4103 108.291C85.9309 100.878 83.0157 93.3442 83.0157 93.3442C83.0157 93.3442 80.1004 100.878 74.621 108.291C69.139 115.701 62.3093 120.521 62.3093 120.521C62.3093 120.521 69.139 125.339 74.621 132.754C80.1004 140.165 83.0157 147.698 83.0157 147.698C83.0157 147.698 85.9309 140.165 91.4103 132.754C96.8923 125.339 103.722 120.521 103.722 120.521C103.722 120.521 96.8923 115.701 91.4103 108.291Z" fill="#DF0000"/>
</g>
<defs>
<clipPath id="clip0">
<rect x="0.0869141" y="0.000976562" width="167.087" height="242.667" fill="white"/>
</clipPath>
</defs>
</svg>
