<svg width="168" height="243" viewBox="0 0 168 243" fill="none" xmlns="http://www.w3.org/2000/svg">
<g clip-path="url(#clip0)">
<path d="M167.011 235.549C167.011 239.326 163.924 242.418 160.14 242.418H7.28467C3.50977 242.418 0.423828 239.326 0.423828 235.549V7.12109C0.423828 3.34375 3.50977 0.250977 7.28467 0.250977H160.14C163.924 0.250977 167.011 3.34375 167.011 7.12109V235.549V235.549Z" fill="white" stroke="black" stroke-width="0.5"/>
<path d="M22.1132 16.7737H25.2695V19.1331H22.1132V24.4143H19.207V19.1331H8.8476V17.4299L19.0351 1.66431H22.1132V16.7737ZM12.1288 16.7737H19.207V5.61743L18.8632 6.24243L12.1288 16.7737Z" fill="#DF0000"/>
<path d="M145.568 226.357H142.412V223.997H145.568V218.716H148.474V223.997H158.834V225.701L148.646 241.466H145.568V226.357ZM155.552 226.357H148.474V237.513L148.818 236.888L155.552 226.357Z" fill="#DF0000"/>
<path d="M21.932 37.2583C18.8054 33.0284 17.1419 28.7296 17.1419 28.7296C17.1419 28.7296 15.4784 33.0284 12.3518 37.2583C9.22373 41.4866 5.32666 44.2371 5.32666 44.2371C5.32666 44.2371 9.22373 46.9861 12.3518 51.2175C15.4784 55.4459 17.1419 59.7446 17.1419 59.7446C17.1419 59.7446 18.8054 55.4459 21.932 51.2175C25.0601 46.9861 28.9572 44.2371 28.9572 44.2371C28.9572 44.2371 25.0601 41.4866 21.932 37.2583Z" fill="#DF0000"/>
<path d="M155.585 191.526C152.458 187.296 150.795 182.997 150.795 182.997C150.795 182.997 149.131 187.296 146.005 191.526C142.877 195.754 138.979 198.504 138.979 198.504C138.979 198.504 142.877 201.253 146.005 205.485C149.131 209.713 150.795 214.012 150.795 214.012C150.795 214.012 152.458 209.713 155.585 205.485C158.713 201.253 162.61 198.504 162.61 198.504C162.61 198.504 158.713 195.754 155.585 191.526Z" fill="#DF0000"/>
<path d="M120.774 171.792C115.295 164.379 112.379 156.846 112.379 156.846C112.379 156.846 109.464 164.379 103.985 171.792C98.5027 179.203 91.673 184.023 91.673 184.023C91.673 184.023 98.5027 188.841 103.985 196.256C109.464 203.666 112.379 211.2 112.379 211.2C112.379 211.2 115.295 203.666 120.774 196.256C126.256 188.841 133.086 184.023 133.086 184.023C133.086 184.023 126.256 179.203 120.774 171.792Z" fill="#DF0000"/>
<path d="M120.774 43.39C115.295 35.9771 112.379 28.4435 112.379 28.4435C112.379 28.4435 109.464 35.9771 103.985 43.39C98.5027 50.8003 91.673 55.6205 91.673 55.6205C91.673 55.6205 98.5027 60.4382 103.985 67.8536C109.464 75.2639 112.379 82.7976 112.379 82.7976C112.379 82.7976 115.295 75.2639 120.774 67.8536C126.256 60.4382 133.086 55.6205 133.086 55.6205C133.086 55.6205 126.256 50.8003 120.774 43.39Z" fill="#DF0000"/>
<path d="M62.6973 171.792C57.2178 164.379 54.3026 156.846 54.3026 156.846C54.3026 156.846 51.3873 164.379 45.9079 171.792C40.4259 179.203 33.5963 184.023 33.5963 184.023C33.5963 184.023 40.4259 188.841 45.9079 196.256C51.3873 203.666 54.3026 211.2 54.3026 211.2C54.3026 211.2 57.2178 203.666 62.6973 196.256C68.1793 188.841 75.0089 184.023 75.0089 184.023C75.0089 184.023 68.1793 179.203 62.6973 171.792Z" fill="#DF0000"/>
<path d="M62.6973 43.39C57.2178 35.9771 54.3026 28.4435 54.3026 28.4435C54.3026 28.4435 51.3873 35.9771 45.9079 43.39C40.4259 50.8003 33.5963 55.6205 33.5963 55.6205C33.5963 55.6205 40.4259 60.4382 45.9079 67.8536C51.3873 75.2639 54.3026 82.7976 54.3026 82.7976C54.3026 82.7976 57.2178 75.2639 62.6973 67.8536C68.1793 60.4382 75.0089 55.6205 75.0089 55.6205C75.0089 55.6205 68.1793 50.8003 62.6973 43.39Z" fill="#DF0000"/>
</g>
<defs>
<clipPath id="clip0">
<rect x="0.173828" y="0.000976562" width="167.087" height="242.667" fill="white"/>
</clipPath>
</defs>
</svg>
