<svg width="168" height="243" viewBox="0 0 168 243" fill="none" xmlns="http://www.w3.org/2000/svg">
<g clip-path="url(#clip0)">
<path d="M167.098 235.549C167.098 239.326 164.011 242.418 160.227 242.418H7.37164C3.59674 242.418 0.510803 239.326 0.510803 235.549V7.12109C0.510803 3.34375 3.59674 0.250977 7.37164 0.250977H160.227C164.011 0.250977 167.098 3.34375 167.098 7.12109V235.549V235.549Z" fill="white" stroke="black" stroke-width="0.5"/>
<path d="M11.3252 13.0081L12.4814 1.66431H24.1377V4.33618H14.9346L14.2471 10.5393C15.3617 9.88306 16.6273 9.55493 18.0439 9.55493C20.1169 9.55493 21.7627 10.2424 22.9814 11.6174C24.2002 12.982 24.8096 14.831 24.8096 17.1643C24.8096 19.5081 24.1742 21.357 22.9033 22.7112C21.6429 24.0549 19.8773 24.7268 17.6064 24.7268C15.596 24.7268 13.9554 24.1695 12.6846 23.0549C11.4137 21.9403 10.6898 20.3987 10.5127 18.4299H13.2471C13.4242 19.732 13.8877 20.7164 14.6377 21.3831C15.3877 22.0393 16.3773 22.3674 17.6064 22.3674C18.9502 22.3674 20.0023 21.9091 20.7627 20.9924C21.5335 20.0758 21.9189 18.8101 21.9189 17.1956C21.9189 15.6747 21.5023 14.456 20.6689 13.5393C19.846 12.6122 18.7471 12.1487 17.3721 12.1487C16.1117 12.1487 15.1221 12.4247 14.4033 12.9768L13.6377 13.6018L11.3252 13.0081Z" fill="#DF0000"/>
<path d="M156.53 230.122L155.374 241.466H143.717V238.794H152.921L153.608 232.591C152.493 233.247 151.228 233.576 149.811 233.576C147.738 233.576 146.092 232.888 144.874 231.513C143.655 230.148 143.046 228.3 143.046 225.966C143.046 223.622 143.681 221.773 144.952 220.419C146.212 219.076 147.978 218.404 150.249 218.404C152.259 218.404 153.9 218.961 155.171 220.076C156.441 221.19 157.165 222.732 157.342 224.701H154.608C154.431 223.398 153.967 222.414 153.217 221.747C152.467 221.091 151.478 220.763 150.249 220.763C148.905 220.763 147.853 221.221 147.092 222.138C146.322 223.055 145.936 224.32 145.936 225.935C145.936 227.456 146.353 228.675 147.186 229.591C148.009 230.518 149.108 230.982 150.483 230.982C151.743 230.982 152.733 230.706 153.452 230.154L154.217 229.529L156.53 230.122Z" fill="#DF0000"/>
<path d="M22.019 37.2583C18.8924 33.0284 17.2289 28.7296 17.2289 28.7296C17.2289 28.7296 15.5654 33.0284 12.4388 37.2583C9.31071 41.4866 5.41364 44.2371 5.41364 44.2371C5.41364 44.2371 9.31071 46.9861 12.4388 51.2175C15.5654 55.4459 17.2289 59.7446 17.2289 59.7446C17.2289 59.7446 18.8924 55.4459 22.019 51.2175C25.1471 46.9861 29.0441 44.2371 29.0441 44.2371C29.0441 44.2371 25.1471 41.4866 22.019 37.2583Z" fill="#DF0000"/>
<path d="M155.672 191.526C152.545 187.296 150.882 182.997 150.882 182.997C150.882 182.997 149.218 187.296 146.092 191.526C142.963 195.754 139.066 198.504 139.066 198.504C139.066 198.504 142.963 201.253 146.092 205.485C149.218 209.713 150.882 214.012 150.882 214.012C150.882 214.012 152.545 209.713 155.672 205.485C158.8 201.253 162.697 198.504 162.697 198.504C162.697 198.504 158.8 195.754 155.672 191.526Z" fill="#DF0000"/>
<path d="M120.861 171.792C115.382 164.379 112.466 156.846 112.466 156.846C112.466 156.846 109.551 164.379 104.072 171.792C98.5897 179.203 91.76 184.023 91.76 184.023C91.76 184.023 98.5897 188.841 104.072 196.256C109.551 203.666 112.466 211.2 112.466 211.2C112.466 211.2 115.382 203.666 120.861 196.256C126.343 188.841 133.173 184.023 133.173 184.023C133.173 184.023 126.343 179.203 120.861 171.792Z" fill="#DF0000"/>
<path d="M120.861 43.39C115.382 35.9771 112.466 28.4435 112.466 28.4435C112.466 28.4435 109.551 35.9771 104.072 43.39C98.5897 50.8003 91.76 55.6205 91.76 55.6205C91.76 55.6205 98.5897 60.4382 104.072 67.8536C109.551 75.2639 112.466 82.7976 112.466 82.7976C112.466 82.7976 115.382 75.2639 120.861 67.8536C126.343 60.4382 133.173 55.6205 133.173 55.6205C133.173 55.6205 126.343 50.8003 120.861 43.39Z" fill="#DF0000"/>
<path d="M62.7842 171.792C57.3048 164.379 54.3896 156.846 54.3896 156.846C54.3896 156.846 51.4743 164.379 45.9949 171.792C40.5129 179.203 33.6832 184.023 33.6832 184.023C33.6832 184.023 40.5129 188.841 45.9949 196.256C51.4743 203.666 54.3896 211.2 54.3896 211.2C54.3896 211.2 57.3048 203.666 62.7842 196.256C68.2662 188.841 75.0959 184.023 75.0959 184.023C75.0959 184.023 68.2662 179.203 62.7842 171.792Z" fill="#DF0000"/>
<path d="M62.7842 43.39C57.3048 35.9771 54.3896 28.4435 54.3896 28.4435C54.3896 28.4435 51.4743 35.9771 45.9949 43.39C40.5129 50.8003 33.6832 55.6205 33.6832 55.6205C33.6832 55.6205 40.5129 60.4382 45.9949 67.8536C51.4743 75.2639 54.3896 82.7976 54.3896 82.7976C54.3896 82.7976 57.3048 75.2639 62.7842 67.8536C68.2662 60.4382 75.0959 55.6205 75.0959 55.6205C75.0959 55.6205 68.2662 50.8003 62.7842 43.39Z" fill="#DF0000"/>
<path d="M90.9391 107.244C85.4597 99.8315 82.5445 92.2979 82.5445 92.2979C82.5445 92.2979 79.6292 99.8315 74.1498 107.244C68.6678 114.655 61.8381 119.475 61.8381 119.475C61.8381 119.475 68.6678 124.293 74.1498 131.708C79.6292 139.118 82.5445 146.652 82.5445 146.652C82.5445 146.652 85.4597 139.118 90.9391 131.708C96.4211 124.293 103.251 119.475 103.251 119.475C103.251 119.475 96.4211 114.655 90.9391 107.244Z" fill="#DF0000"/>
</g>
<defs>
<clipPath id="clip0">
<rect x="0.260803" y="0.000976562" width="167.087" height="242.667" fill="white"/>
</clipPath>
</defs>
</svg>
