<svg width="168" height="243" viewBox="0 0 168 243" fill="none" xmlns="http://www.w3.org/2000/svg">
<g clip-path="url(#clip0)">
<path d="M167.185 235.549C167.185 239.326 164.098 242.418 160.314 242.418H7.45856C3.68365 242.418 0.597717 239.326 0.597717 235.549V7.12109C0.597717 3.34375 3.68365 0.250977 7.45856 0.250977H160.314C164.098 0.250977 167.185 3.34375 167.185 7.12109V235.549V235.549Z" fill="white" stroke="black" stroke-width="0.5"/>
<path d="M21.4277 1.64868V4.10181H20.8965C18.6465 4.14347 16.8548 4.81014 15.5215 6.10181C14.1882 7.39347 13.4173 9.21118 13.209 11.5549C14.4069 10.1799 16.0423 9.49243 18.1152 9.49243C20.0944 9.49243 21.6725 10.1903 22.8496 11.5862C24.0371 12.982 24.6309 14.7841 24.6309 16.9924C24.6309 19.3362 23.9902 21.2112 22.709 22.6174C21.4382 24.0237 19.7298 24.7268 17.584 24.7268C15.4069 24.7268 13.6413 23.8935 12.2871 22.2268C10.9329 20.5497 10.2559 18.3935 10.2559 15.7581V14.6487C10.2559 10.4612 11.1465 7.26326 12.9277 5.05493C14.7194 2.83618 17.3809 1.70076 20.9121 1.64868H21.4277ZM17.6309 11.8987C16.6413 11.8987 15.7298 12.1956 14.8965 12.7893C14.0632 13.3831 13.485 14.1278 13.1621 15.0237V16.0862C13.1621 17.9612 13.584 19.4716 14.4277 20.6174C15.2715 21.7633 16.3236 22.3362 17.584 22.3362C18.8861 22.3362 19.9069 21.857 20.6465 20.8987C21.3965 19.9403 21.7715 18.6851 21.7715 17.1331C21.7715 15.5706 21.3913 14.3101 20.6309 13.3518C19.8809 12.3831 18.8809 11.8987 17.6309 11.8987Z" fill="#DF0000"/>
<path d="M146.601 241.482V239.029H147.132C149.382 238.987 151.174 238.32 152.507 237.029C153.841 235.737 154.612 233.919 154.82 231.576C153.622 232.951 151.987 233.638 149.914 233.638C147.935 233.638 146.356 232.94 145.179 231.544C143.992 230.148 143.398 228.346 143.398 226.138C143.398 223.794 144.039 221.919 145.32 220.513C146.591 219.107 148.299 218.404 150.445 218.404C152.622 218.404 154.388 219.237 155.742 220.904C157.096 222.581 157.773 224.737 157.773 227.372V228.482C157.773 232.669 156.882 235.867 155.101 238.076C153.31 240.294 150.648 241.43 147.117 241.482H146.601ZM150.398 231.232C151.388 231.232 152.299 230.935 153.132 230.341C153.966 229.747 154.544 229.003 154.867 228.107V227.044C154.867 225.169 154.445 223.659 153.601 222.513C152.757 221.367 151.705 220.794 150.445 220.794C149.143 220.794 148.122 221.273 147.382 222.232C146.632 223.19 146.257 224.445 146.257 225.997C146.257 227.56 146.638 228.82 147.398 229.779C148.148 230.747 149.148 231.232 150.398 231.232Z" fill="#DF0000"/>
<path d="M22.1059 37.2583C18.9793 33.0284 17.3158 28.7296 17.3158 28.7296C17.3158 28.7296 15.6523 33.0284 12.5257 37.2583C9.39762 41.4866 5.50055 44.2371 5.50055 44.2371C5.50055 44.2371 9.39762 46.9861 12.5257 51.2175C15.6523 55.4459 17.3158 59.7446 17.3158 59.7446C17.3158 59.7446 18.9793 55.4459 22.1059 51.2175C25.234 46.9861 29.1311 44.2371 29.1311 44.2371C29.1311 44.2371 25.234 41.4866 22.1059 37.2583Z" fill="#DF0000"/>
<path d="M155.759 191.526C152.632 187.296 150.969 182.997 150.969 182.997C150.969 182.997 149.305 187.296 146.178 191.526C143.05 195.754 139.153 198.504 139.153 198.504C139.153 198.504 143.05 201.253 146.178 205.485C149.305 209.713 150.969 214.012 150.969 214.012C150.969 214.012 152.632 209.713 155.759 205.485C158.887 201.253 162.784 198.504 162.784 198.504C162.784 198.504 158.887 195.754 155.759 191.526Z" fill="#DF0000"/>
<path d="M118.871 179.792C113.392 172.379 110.476 164.846 110.476 164.846C110.476 164.846 107.561 172.379 102.082 179.792C96.5998 187.203 89.7701 192.023 89.7701 192.023C89.7701 192.023 96.5998 196.841 102.082 204.256C107.561 211.666 110.476 219.2 110.476 219.2C110.476 219.2 113.392 211.666 118.871 204.256C124.353 196.841 131.183 192.023 131.183 192.023C131.183 192.023 124.353 187.203 118.871 179.792Z" fill="#DF0000"/>
<path d="M118.871 38.59C113.392 31.1771 110.476 23.6434 110.476 23.6434C110.476 23.6434 107.561 31.1771 102.082 38.59C96.5998 46.0002 89.7701 50.8205 89.7701 50.8205C89.7701 50.8205 96.5998 55.6381 102.082 63.0536C107.561 70.4639 110.476 77.9975 110.476 77.9975C110.476 77.9975 113.392 70.4639 118.871 63.0536C124.353 55.6381 131.183 50.8205 131.183 50.8205C131.183 50.8205 124.353 46.0002 118.871 38.59Z" fill="#DF0000"/>
<path d="M118.871 108.291C113.392 100.878 110.476 93.3442 110.476 93.3442C110.476 93.3442 107.561 100.878 102.082 108.291C96.5998 115.701 89.7701 120.521 89.7701 120.521C89.7701 120.521 96.5998 125.339 102.082 132.754C107.561 140.165 110.476 147.698 110.476 147.698C110.476 147.698 113.392 140.165 118.871 132.754C124.353 125.339 131.183 120.521 131.183 120.521C131.183 120.521 124.353 115.701 118.871 108.291Z" fill="#DF0000"/>
<path d="M64.7558 179.911C59.2764 172.498 56.3611 164.964 56.3611 164.964C56.3611 164.964 53.4458 172.498 47.9664 179.911C42.4844 187.321 35.6548 192.141 35.6548 192.141C35.6548 192.141 42.4844 196.959 47.9664 204.374C53.4458 211.784 56.3611 219.318 56.3611 219.318C56.3611 219.318 59.2764 211.784 64.7558 204.374C70.2378 196.959 77.0674 192.141 77.0674 192.141C77.0674 192.141 70.2378 187.321 64.7558 179.911Z" fill="#DF0000"/>
<path d="M64.7558 38.7081C59.2764 31.2953 56.3611 23.7616 56.3611 23.7616C56.3611 23.7616 53.4458 31.2953 47.9664 38.7081C42.4844 46.1184 35.6548 50.9386 35.6548 50.9386C35.6548 50.9386 42.4844 55.7563 47.9664 63.1718C53.4458 70.582 56.3611 78.1157 56.3611 78.1157C56.3611 78.1157 59.2764 70.582 64.7558 63.1718C70.2378 55.7563 77.0674 50.9386 77.0674 50.9386C77.0674 50.9386 70.2378 46.1184 64.7558 38.7081Z" fill="#DF0000"/>
<path d="M64.7558 108.409C59.2764 100.996 56.3611 93.4624 56.3611 93.4624C56.3611 93.4624 53.4458 100.996 47.9664 108.409C42.4844 115.819 35.6548 120.639 35.6548 120.639C35.6548 120.639 42.4844 125.457 47.9664 132.873C53.4458 140.283 56.3611 147.817 56.3611 147.817C56.3611 147.817 59.2764 140.283 64.7558 132.873C70.2378 125.457 77.0674 120.639 77.0674 120.639C77.0674 120.639 70.2378 115.819 64.7558 108.409Z" fill="#DF0000"/>
</g>
<defs>
<clipPath id="clip0">
<rect x="0.347717" y="0.000976562" width="167.087" height="242.667" fill="white"/>
</clipPath>
</defs>
</svg>
