<svg width="168" height="243" viewBox="0 0 168 243" fill="none" xmlns="http://www.w3.org/2000/svg">
<g clip-path="url(#clip0)">
<path d="M167.271 235.549C167.271 239.326 164.185 242.418 160.4 242.418H7.54541C3.77051 242.418 0.68457 239.326 0.68457 235.549V7.12109C0.68457 3.34375 3.77051 0.250977 7.54541 0.250977H160.4C164.185 0.250977 167.271 3.34375 167.271 7.12109V235.549V235.549Z" fill="white" stroke="black" stroke-width="0.5"/>
<path d="M24.8584 3.28931L15.4365 24.4143H12.4053L21.7959 4.03931H9.4834V1.66431H24.8584V3.28931Z" fill="#DF0000"/>
<path d="M143.344 239.841L152.766 218.716H155.797L146.407 239.091H158.719V241.466H143.344V239.841Z" fill="#DF0000"/>
<path d="M22.1927 37.2583C19.0661 33.0284 17.4027 28.7296 17.4027 28.7296C17.4027 28.7296 15.7392 33.0284 12.6126 37.2583C9.48448 41.4866 5.5874 44.2371 5.5874 44.2371C5.5874 44.2371 9.48448 46.9861 12.6126 51.2175C15.7392 55.4459 17.4027 59.7446 17.4027 59.7446C17.4027 59.7446 19.0661 55.4459 22.1927 51.2175C25.3208 46.9861 29.2179 44.2371 29.2179 44.2371C29.2179 44.2371 25.3208 41.4866 22.1927 37.2583Z" fill="#DF0000"/>
<path d="M155.846 191.526C152.719 187.296 151.055 182.997 151.055 182.997C151.055 182.997 149.392 187.296 146.265 191.526C143.137 195.754 139.24 198.504 139.24 198.504C139.24 198.504 143.137 201.253 146.265 205.485C149.392 209.713 151.055 214.012 151.055 214.012C151.055 214.012 152.719 209.713 155.846 205.485C158.974 201.253 162.871 198.504 162.871 198.504C162.871 198.504 158.974 195.754 155.846 191.526Z" fill="#DF0000"/>
<path d="M120.558 181.392C115.079 173.979 112.163 166.446 112.163 166.446C112.163 166.446 109.248 173.979 103.769 181.392C98.2867 188.803 91.457 193.623 91.457 193.623C91.457 193.623 98.2867 198.441 103.769 205.856C109.248 213.266 112.163 220.8 112.163 220.8C112.163 220.8 115.079 213.266 120.558 205.856C126.04 198.441 132.87 193.623 132.87 193.623C132.87 193.623 126.04 188.803 120.558 181.392Z" fill="#DF0000"/>
<path d="M120.558 36.99C115.079 29.5771 112.163 22.0435 112.163 22.0435C112.163 22.0435 109.248 29.5771 103.769 36.99C98.2867 44.4003 91.457 49.2205 91.457 49.2205C91.457 49.2205 98.2867 54.0382 103.769 61.4536C109.248 68.8639 112.163 76.3976 112.163 76.3976C112.163 76.3976 115.079 68.8639 120.558 61.4536C126.04 54.0382 132.87 49.2205 132.87 49.2205C132.87 49.2205 126.04 44.4003 120.558 36.99Z" fill="#DF0000"/>
<path d="M120.558 108.291C115.079 100.878 112.163 93.3442 112.163 93.3442C112.163 93.3442 109.248 100.878 103.769 108.291C98.2867 115.701 91.457 120.521 91.457 120.521C91.457 120.521 98.2867 125.339 103.769 132.754C109.248 140.165 112.163 147.698 112.163 147.698C112.163 147.698 115.079 140.165 120.558 132.754C126.04 125.339 132.87 120.521 132.87 120.521C132.87 120.521 126.04 115.701 120.558 108.291Z" fill="#DF0000"/>
<path d="M63.2426 181.51C57.7632 174.098 54.8479 166.564 54.8479 166.564C54.8479 166.564 51.9327 174.098 46.4533 181.51C40.9713 188.921 34.1416 193.741 34.1416 193.741C34.1416 193.741 40.9713 198.559 46.4533 205.974C51.9327 213.384 54.8479 220.918 54.8479 220.918C54.8479 220.918 57.7632 213.384 63.2426 205.974C68.7246 198.559 75.5543 193.741 75.5543 193.741C75.5543 193.741 68.7246 188.921 63.2426 181.51Z" fill="#DF0000"/>
<path d="M63.2426 37.1082C57.7632 29.6953 54.8479 22.1616 54.8479 22.1616C54.8479 22.1616 51.9327 29.6953 46.4533 37.1082C40.9713 44.5184 34.1416 49.3387 34.1416 49.3387C34.1416 49.3387 40.9713 54.1563 46.4533 61.5718C51.9327 68.9821 54.8479 76.5157 54.8479 76.5157C54.8479 76.5157 57.7632 68.9821 63.2426 61.5718C68.7246 54.1563 75.5543 49.3387 75.5543 49.3387C75.5543 49.3387 68.7246 44.5184 63.2426 37.1082Z" fill="#DF0000"/>
<path d="M63.2426 108.409C57.7632 100.996 54.8479 93.4624 54.8479 93.4624C54.8479 93.4624 51.9327 100.996 46.4533 108.409C40.9713 115.819 34.1416 120.639 34.1416 120.639C34.1416 120.639 40.9713 125.457 46.4533 132.873C51.9327 140.283 54.8479 147.817 54.8479 147.817C54.8479 147.817 57.7632 140.283 63.2426 132.873C68.7246 125.457 75.5543 120.639 75.5543 120.639C75.5543 120.639 68.7246 115.819 63.2426 108.409Z" fill="#DF0000"/>
<path d="M92.0426 73.3082C86.5632 65.8954 83.648 58.3617 83.648 58.3617C83.648 58.3617 80.7327 65.8954 75.2533 73.3082C69.7713 80.7185 62.9417 85.5387 62.9417 85.5387C62.9417 85.5387 69.7713 90.3564 75.2533 97.7719C80.7327 105.182 83.648 112.716 83.648 112.716C83.648 112.716 86.5632 105.182 92.0426 97.7719C97.5246 90.3564 104.354 85.5387 104.354 85.5387C104.354 85.5387 97.5246 80.7185 92.0426 73.3082Z" fill="#DF0000"/>
</g>
<defs>
<clipPath id="clip0">
<rect x="0.43457" y="0.000976562" width="167.087" height="242.667" fill="white"/>
</clipPath>
</defs>
</svg>
