<svg width="168" height="243" viewBox="0 0 168 243" fill="none" xmlns="http://www.w3.org/2000/svg">
<g clip-path="url(#clip0)">
<path d="M167.358 235.549C167.358 239.326 164.271 242.418 160.487 242.418H7.63232C3.85742 242.418 0.771484 239.326 0.771484 235.549V7.12109C0.771484 3.34375 3.85742 0.250977 7.63232 0.250977H160.487C164.271 0.250977 167.358 3.34375 167.358 7.12109V235.549V235.549Z" fill="white" stroke="black" stroke-width="0.5"/>
<path d="M24.0547 7.60181C24.0547 8.73722 23.7526 9.74764 23.1484 10.6331C22.5547 11.5185 21.7474 12.2112 20.7266 12.7112C21.9141 13.2216 22.8516 13.9664 23.5391 14.9456C24.237 15.9247 24.5859 17.0341 24.5859 18.2737C24.5859 20.2424 23.9193 21.8101 22.5859 22.9768C21.263 24.1435 19.5182 24.7268 17.3516 24.7268C15.1641 24.7268 13.4089 24.1435 12.0859 22.9768C10.7734 21.7997 10.1172 20.232 10.1172 18.2737C10.1172 17.0445 10.4505 15.9351 11.1172 14.9456C11.7943 13.956 12.7266 13.206 13.9141 12.6956C12.9036 12.1956 12.1068 11.5028 11.5234 10.6174C10.9401 9.73201 10.6484 8.72681 10.6484 7.60181C10.6484 5.68514 11.263 4.16431 12.4922 3.03931C13.7214 1.91431 15.3411 1.35181 17.3516 1.35181C19.3516 1.35181 20.9661 1.91431 22.1953 3.03931C23.4349 4.16431 24.0547 5.68514 24.0547 7.60181ZM21.6953 18.2112C21.6953 16.9403 21.2891 15.9039 20.4766 15.1018C19.6745 14.2997 18.6224 13.8987 17.3203 13.8987C16.0182 13.8987 14.9714 14.2945 14.1797 15.0862C13.3984 15.8778 13.0078 16.9195 13.0078 18.2112C13.0078 19.5028 13.388 20.5185 14.1484 21.2581C14.9193 21.9976 15.987 22.3674 17.3516 22.3674C18.7057 22.3674 19.7682 21.9976 20.5391 21.2581C21.3099 20.5081 21.6953 19.4924 21.6953 18.2112ZM17.3516 3.72681C16.2161 3.72681 15.2943 4.08097 14.5859 4.78931C13.888 5.48722 13.5391 6.44035 13.5391 7.64868C13.5391 8.80493 13.8828 9.74243 14.5703 10.4612C15.2682 11.1695 16.1953 11.5237 17.3516 11.5237C18.5078 11.5237 19.4297 11.1695 20.1172 10.4612C20.8151 9.74243 21.1641 8.80493 21.1641 7.64868C21.1641 6.49243 20.8047 5.54972 20.0859 4.82056C19.3672 4.09139 18.4557 3.72681 17.3516 3.72681Z" fill="#DF0000"/>
<path d="M144.322 235.529C144.322 234.393 144.624 233.383 145.228 232.497C145.822 231.612 146.629 230.919 147.65 230.419C146.462 229.909 145.525 229.164 144.837 228.185C144.139 227.206 143.791 226.096 143.791 224.857C143.791 222.888 144.457 221.32 145.791 220.154C147.113 218.987 148.858 218.404 151.025 218.404C153.212 218.404 154.968 218.987 156.291 220.154C157.603 221.331 158.259 222.898 158.259 224.857C158.259 226.086 157.926 227.195 157.259 228.185C156.582 229.175 155.65 229.925 154.462 230.435C155.473 230.935 156.27 231.628 156.853 232.513C157.436 233.398 157.728 234.404 157.728 235.529C157.728 237.445 157.113 238.966 155.884 240.091C154.655 241.216 153.035 241.779 151.025 241.779C149.025 241.779 147.41 241.216 146.181 240.091C144.942 238.966 144.322 237.445 144.322 235.529ZM146.681 224.919C146.681 226.19 147.087 227.227 147.9 228.029C148.702 228.831 149.754 229.232 151.056 229.232C152.358 229.232 153.405 228.836 154.197 228.044C154.978 227.253 155.369 226.211 155.369 224.919C155.369 223.628 154.988 222.612 154.228 221.872C153.457 221.133 152.389 220.763 151.025 220.763C149.671 220.763 148.608 221.133 147.837 221.872C147.067 222.622 146.681 223.638 146.681 224.919ZM151.025 239.404C152.16 239.404 153.082 239.05 153.791 238.341C154.488 237.643 154.837 236.69 154.837 235.482C154.837 234.326 154.494 233.388 153.806 232.669C153.108 231.961 152.181 231.607 151.025 231.607C149.869 231.607 148.947 231.961 148.259 232.669C147.561 233.388 147.212 234.326 147.212 235.482C147.212 236.638 147.572 237.581 148.291 238.31C149.009 239.039 149.921 239.404 151.025 239.404Z" fill="#DF0000"/>
<path d="M22.2797 37.2583C19.153 33.0284 17.4896 28.7296 17.4896 28.7296C17.4896 28.7296 15.8261 33.0284 12.6995 37.2583C9.57139 41.4866 5.67432 44.2371 5.67432 44.2371C5.67432 44.2371 9.57139 46.9861 12.6995 51.2175C15.8261 55.4459 17.4896 59.7446 17.4896 59.7446C17.4896 59.7446 19.153 55.4459 22.2797 51.2175C25.4077 46.9861 29.3048 44.2371 29.3048 44.2371C29.3048 44.2371 25.4077 41.4866 22.2797 37.2583Z" fill="#DF0000"/>
<path d="M155.932 191.526C152.806 187.296 151.142 182.997 151.142 182.997C151.142 182.997 149.479 187.296 146.352 191.526C143.224 195.754 139.327 198.504 139.327 198.504C139.327 198.504 143.224 201.253 146.352 205.485C149.479 209.713 151.142 214.012 151.142 214.012C151.142 214.012 152.806 209.713 155.932 205.485C159.061 201.253 162.958 198.504 162.958 198.504C162.958 198.504 159.061 195.754 155.932 191.526Z" fill="#DF0000"/>
<path d="M120.645 181.392C115.166 173.979 112.25 166.446 112.25 166.446C112.25 166.446 109.335 173.979 103.856 181.392C98.3736 188.803 91.5439 193.623 91.5439 193.623C91.5439 193.623 98.3736 198.441 103.856 205.856C109.335 213.266 112.25 220.8 112.25 220.8C112.25 220.8 115.166 213.266 120.645 205.856C126.127 198.441 132.957 193.623 132.957 193.623C132.957 193.623 126.127 188.803 120.645 181.392Z" fill="#DF0000"/>
<path d="M120.645 36.99C115.166 29.5771 112.25 22.0435 112.25 22.0435C112.25 22.0435 109.335 29.5771 103.856 36.99C98.3736 44.4003 91.5439 49.2205 91.5439 49.2205C91.5439 49.2205 98.3736 54.0382 103.856 61.4536C109.335 68.8639 112.25 76.3976 112.25 76.3976C112.25 76.3976 115.166 68.8639 120.645 61.4536C126.127 54.0382 132.957 49.2205 132.957 49.2205C132.957 49.2205 126.127 44.4003 120.645 36.99Z" fill="#DF0000"/>
<path d="M120.645 108.291C115.166 100.878 112.25 93.3442 112.25 93.3442C112.25 93.3442 109.335 100.878 103.856 108.291C98.3736 115.701 91.5439 120.521 91.5439 120.521C91.5439 120.521 98.3736 125.339 103.856 132.754C109.335 140.165 112.25 147.698 112.25 147.698C112.25 147.698 115.166 140.165 120.645 132.754C126.127 125.339 132.957 120.521 132.957 120.521C132.957 120.521 126.127 115.701 120.645 108.291Z" fill="#DF0000"/>
<path d="M63.3295 181.51C57.8501 174.098 54.9348 166.564 54.9348 166.564C54.9348 166.564 52.0196 174.098 46.5402 181.51C41.0582 188.921 34.2285 193.741 34.2285 193.741C34.2285 193.741 41.0582 198.559 46.5402 205.974C52.0196 213.384 54.9348 220.918 54.9348 220.918C54.9348 220.918 57.8501 213.384 63.3295 205.974C68.8115 198.559 75.6412 193.741 75.6412 193.741C75.6412 193.741 68.8115 188.921 63.3295 181.51Z" fill="#DF0000"/>
<path d="M63.3295 37.1082C57.8501 29.6953 54.9348 22.1616 54.9348 22.1616C54.9348 22.1616 52.0196 29.6953 46.5402 37.1082C41.0582 44.5184 34.2285 49.3387 34.2285 49.3387C34.2285 49.3387 41.0582 54.1563 46.5402 61.5718C52.0196 68.9821 54.9348 76.5157 54.9348 76.5157C54.9348 76.5157 57.8501 68.9821 63.3295 61.5718C68.8115 54.1563 75.6412 49.3387 75.6412 49.3387C75.6412 49.3387 68.8115 44.5184 63.3295 37.1082Z" fill="#DF0000"/>
<path d="M63.3295 108.409C57.8501 100.996 54.9348 93.4624 54.9348 93.4624C54.9348 93.4624 52.0196 100.996 46.5402 108.409C41.0582 115.819 34.2285 120.639 34.2285 120.639C34.2285 120.639 41.0582 125.457 46.5402 132.873C52.0196 140.283 54.9348 147.817 54.9348 147.817C54.9348 147.817 57.8501 140.283 63.3295 132.873C68.8115 125.457 75.6412 120.639 75.6412 120.639C75.6412 120.639 68.8115 115.819 63.3295 108.409Z" fill="#DF0000"/>
<path d="M92.1296 73.3082C86.6502 65.8954 83.7349 58.3617 83.7349 58.3617C83.7349 58.3617 80.8196 65.8954 75.3402 73.3082C69.8582 80.7185 63.0286 85.5387 63.0286 85.5387C63.0286 85.5387 69.8582 90.3564 75.3402 97.7719C80.8196 105.182 83.7349 112.716 83.7349 112.716C83.7349 112.716 86.6502 105.182 92.1296 97.7719C97.6116 90.3564 104.441 85.5387 104.441 85.5387C104.441 85.5387 97.6116 80.7185 92.1296 73.3082Z" fill="#DF0000"/>
<path d="M92.1296 144.694C86.6502 137.281 83.7349 129.748 83.7349 129.748C83.7349 129.748 80.8196 137.281 75.3402 144.694C69.8582 152.105 63.0286 156.925 63.0286 156.925C63.0286 156.925 69.8582 161.743 75.3402 169.158C80.8196 176.568 83.7349 184.102 83.7349 184.102C83.7349 184.102 86.6502 176.568 92.1296 169.158C97.6116 161.743 104.441 156.925 104.441 156.925C104.441 156.925 97.6116 152.105 92.1296 144.694Z" fill="#DF0000"/>
</g>
<defs>
<clipPath id="clip0">
<rect x="0.521484" y="0.000976562" width="167.087" height="242.667" fill="white"/>
</clipPath>
</defs>
</svg>
