<svg width="168" height="243" viewBox="0 0 168 243" fill="none" xmlns="http://www.w3.org/2000/svg">
<g clip-path="url(#clip0)">
<path d="M167.445 235.549C167.445 239.326 164.358 242.418 160.574 242.418H7.71924C3.94434 242.418 0.858398 239.326 0.858398 235.549V7.12109C0.858398 3.34375 3.94434 0.250977 7.71924 0.250977H160.574C164.358 0.250977 167.445 3.34375 167.445 7.12109V235.549V235.549Z" fill="white" stroke="black" stroke-width="0.5"/>
<path d="M21.4229 14.4143C20.8187 15.1331 20.0947 15.7112 19.251 16.1487C18.4176 16.5862 17.501 16.8049 16.501 16.8049C15.1885 16.8049 14.0426 16.482 13.0635 15.8362C12.0947 15.1903 11.3447 14.2841 10.8135 13.1174C10.2822 11.9403 10.0166 10.6435 10.0166 9.22681C10.0166 7.70597 10.3031 6.33618 10.876 5.11743C11.4593 3.89868 12.2822 2.96639 13.3447 2.32056C14.4072 1.67472 15.6468 1.35181 17.0635 1.35181C19.3135 1.35181 21.0843 2.19556 22.376 3.88306C23.6781 5.56014 24.3291 7.85181 24.3291 10.7581V11.6018C24.3291 16.0289 23.4541 19.2633 21.7041 21.3049C19.9541 23.3362 17.3135 24.3778 13.7822 24.4299H13.2197V21.9924H13.8291C16.2145 21.9508 18.0479 21.331 19.3291 20.1331C20.6104 18.9247 21.3083 17.0185 21.4229 14.4143ZM16.9697 14.4143C17.9385 14.4143 18.8291 14.1174 19.6416 13.5237C20.4645 12.9299 21.0635 12.1956 21.4385 11.3206V10.1643C21.4385 8.26847 21.027 6.72681 20.2041 5.53931C19.3812 4.35181 18.3395 3.75806 17.0791 3.75806C15.8083 3.75806 14.7874 4.24764 14.0166 5.22681C13.2458 6.19556 12.8604 7.47681 12.8604 9.07056C12.8604 10.6226 13.2301 11.9039 13.9697 12.9143C14.7197 13.9143 15.7197 14.4143 16.9697 14.4143Z" fill="#DF0000"/>
<path d="M147.127 228.716C147.732 227.997 148.456 227.419 149.299 226.982C150.133 226.544 151.049 226.326 152.049 226.326C153.362 226.326 154.508 226.648 155.487 227.294C156.456 227.94 157.206 228.846 157.737 230.013C158.268 231.19 158.534 232.487 158.534 233.904C158.534 235.425 158.247 236.794 157.674 238.013C157.091 239.232 156.268 240.164 155.206 240.81C154.143 241.456 152.903 241.779 151.487 241.779C149.237 241.779 147.466 240.935 146.174 239.247C144.872 237.57 144.221 235.279 144.221 232.372V231.529C144.221 227.102 145.096 223.867 146.846 221.826C148.596 219.794 151.237 218.753 154.768 218.701H155.331V221.138H154.721C152.336 221.18 150.502 221.8 149.221 222.997C147.94 224.206 147.242 226.112 147.127 228.716ZM151.581 228.716C150.612 228.716 149.721 229.013 148.909 229.607C148.086 230.201 147.487 230.935 147.112 231.81V232.966C147.112 234.862 147.523 236.404 148.346 237.591C149.169 238.779 150.211 239.372 151.471 239.372C152.742 239.372 153.763 238.883 154.534 237.904C155.305 236.935 155.69 235.654 155.69 234.06C155.69 232.508 155.32 231.227 154.581 230.216C153.831 229.216 152.831 228.716 151.581 228.716Z" fill="#DF0000"/>
<path d="M22.3666 37.2583C19.24 33.0284 17.5765 28.7296 17.5765 28.7296C17.5765 28.7296 15.913 33.0284 12.7864 37.2583C9.6583 41.4866 5.76123 44.2371 5.76123 44.2371C5.76123 44.2371 9.6583 46.9861 12.7864 51.2175C15.913 55.4459 17.5765 59.7446 17.5765 59.7446C17.5765 59.7446 19.24 55.4459 22.3666 51.2175C25.4947 46.9861 29.3917 44.2371 29.3917 44.2371C29.3917 44.2371 25.4947 41.4866 22.3666 37.2583Z" fill="#DF0000"/>
<path d="M156.019 191.526C152.893 187.296 151.229 182.997 151.229 182.997C151.229 182.997 149.566 187.296 146.439 191.526C143.311 195.754 139.414 198.504 139.414 198.504C139.414 198.504 143.311 201.253 146.439 205.485C149.566 209.713 151.229 214.012 151.229 214.012C151.229 214.012 152.893 209.713 156.019 205.485C159.147 201.253 163.045 198.504 163.045 198.504C163.045 198.504 159.147 195.754 156.019 191.526Z" fill="#DF0000"/>
<path d="M63.1318 198.685C57.6523 191.272 54.7371 183.739 54.7371 183.739C54.7371 183.739 51.8218 191.272 46.3424 198.685C40.8604 206.095 34.0308 210.916 34.0308 210.916C34.0308 210.916 40.8604 215.733 46.3424 223.149C51.8218 230.559 54.7371 238.093 54.7371 238.093C54.7371 238.093 57.6523 230.559 63.1318 223.149C68.6138 215.733 75.4434 210.916 75.4434 210.916C75.4434 210.916 68.6138 206.095 63.1318 198.685Z" fill="#DF0000"/>
<path d="M63.1318 19.39C57.6523 11.9771 54.7371 4.44348 54.7371 4.44348C54.7371 4.44348 51.8218 11.9771 46.3424 19.39C40.8604 26.8003 34.0308 31.6205 34.0308 31.6205C34.0308 31.6205 40.8604 36.4382 46.3424 43.8536C51.8218 51.2639 54.7371 58.7976 54.7371 58.7976C54.7371 58.7976 57.6523 51.2639 63.1318 43.8536C68.6138 36.4382 75.4434 31.6205 75.4434 31.6205C75.4434 31.6205 68.6138 26.8003 63.1318 19.39Z" fill="#DF0000"/>
<path d="M63.1318 138.953C57.6523 131.54 54.7371 124.007 54.7371 124.007C54.7371 124.007 51.8218 131.54 46.3424 138.953C40.8604 146.364 34.0308 151.184 34.0308 151.184C34.0308 151.184 40.8604 156.001 46.3424 163.417C51.8218 170.827 54.7371 178.361 54.7371 178.361C54.7371 178.361 57.6523 170.827 63.1318 163.417C68.6138 156.001 75.4434 151.184 75.4434 151.184C75.4434 151.184 68.6138 146.364 63.1318 138.953Z" fill="#DF0000"/>
<path d="M63.1318 79.1219C57.6523 71.7091 54.7371 64.1754 54.7371 64.1754C54.7371 64.1754 51.8218 71.7091 46.3424 79.1219C40.8604 86.5322 34.0308 91.3525 34.0308 91.3525C34.0308 91.3525 40.8604 96.1701 46.3424 103.586C51.8218 110.996 54.7371 118.53 54.7371 118.53C54.7371 118.53 57.6523 110.996 63.1318 103.586C68.6138 96.1701 75.4434 91.3525 75.4434 91.3525C75.4434 91.3525 68.6138 86.5322 63.1318 79.1219Z" fill="#DF0000"/>
<path d="M121.899 198.685C116.42 191.272 113.504 183.739 113.504 183.739C113.504 183.739 110.589 191.272 105.11 198.685C99.6276 206.095 92.798 210.916 92.798 210.916C92.798 210.916 99.6276 215.733 105.11 223.149C110.589 230.559 113.504 238.093 113.504 238.093C113.504 238.093 116.42 230.559 121.899 223.149C127.381 215.733 134.211 210.916 134.211 210.916C134.211 210.916 127.381 206.095 121.899 198.685Z" fill="#DF0000"/>
<path d="M121.899 19.39C116.42 11.9771 113.504 4.44348 113.504 4.44348C113.504 4.44348 110.589 11.9771 105.11 19.39C99.6276 26.8003 92.798 31.6205 92.798 31.6205C92.798 31.6205 99.6276 36.4382 105.11 43.8536C110.589 51.2639 113.504 58.7976 113.504 58.7976C113.504 58.7976 116.42 51.2639 121.899 43.8536C127.381 36.4382 134.211 31.6205 134.211 31.6205C134.211 31.6205 127.381 26.8003 121.899 19.39Z" fill="#DF0000"/>
<path d="M121.899 138.953C116.42 131.54 113.504 124.007 113.504 124.007C113.504 124.007 110.589 131.54 105.11 138.953C99.6276 146.364 92.798 151.184 92.798 151.184C92.798 151.184 99.6276 156.001 105.11 163.417C110.589 170.827 113.504 178.361 113.504 178.361C113.504 178.361 116.42 170.827 121.899 163.417C127.381 156.001 134.211 151.184 134.211 151.184C134.211 151.184 127.381 146.364 121.899 138.953Z" fill="#DF0000"/>
<path d="M121.899 79.1219C116.42 71.7091 113.504 64.1754 113.504 64.1754C113.504 64.1754 110.589 71.7091 105.11 79.1219C99.6276 86.5322 92.798 91.3525 92.798 91.3525C92.798 91.3525 99.6276 96.1701 105.11 103.586C110.589 110.996 113.504 118.53 113.504 118.53C113.504 118.53 116.42 110.996 121.899 103.586C127.381 96.1701 134.211 91.3525 134.211 91.3525C134.211 91.3525 127.381 86.5322 121.899 79.1219Z" fill="#DF0000"/>
<path d="M92.2165 49.5994C86.7371 42.1865 83.8218 34.6528 83.8218 34.6528C83.8218 34.6528 80.9065 42.1865 75.4271 49.5994C69.9451 57.0096 63.1155 61.8299 63.1155 61.8299C63.1155 61.8299 69.9451 66.6475 75.4271 74.063C80.9065 81.4733 83.8218 89.0069 83.8218 89.0069C83.8218 89.0069 86.7371 81.4733 92.2165 74.063C97.6985 66.6475 104.528 61.8299 104.528 61.8299C104.528 61.8299 97.6985 57.0096 92.2165 49.5994Z" fill="#DF0000"/>
</g>
<defs>
<clipPath id="clip0">
<rect x="0.608398" y="0.000976562" width="167.087" height="242.667" fill="white"/>
</clipPath>
</defs>
</svg>
