<svg width="168" height="243" viewBox="0 0 168 243" fill="none" xmlns="http://www.w3.org/2000/svg">
<g clip-path="url(#clip0)">
<path d="M166.88 235.549C166.88 239.326 163.793 242.418 160.009 242.418H7.15381C3.37891 242.418 0.292969 239.326 0.292969 235.549V7.12109C0.292969 3.34375 3.37891 0.250977 7.15381 0.250977H160.009C163.793 0.250977 166.88 3.34375 166.88 7.12109V235.549V235.549Z" fill="white" stroke="black" stroke-width="0.5"/>
<path d="M21.4917 20.0768H11.9604L9.81982 26.0143H6.72607L15.4136 3.26428H18.0386L26.7417 26.0143H23.6636L21.4917 20.0768ZM12.8667 17.608H20.6011L16.7261 6.96741L12.8667 17.608Z" fill="#DF0000"/>
<path d="M145.928 221.454H155.459L157.6 215.516H160.693L152.006 238.266H149.381L140.678 215.516H143.756L145.928 221.454ZM154.553 223.922H146.818L150.693 234.563L154.553 223.922Z" fill="#DF0000"/>
<path d="M101.629 88.7669C89.0297 71.7221 82.3265 54.3997 82.3265 54.3997C82.3265 54.3997 75.6233 71.7221 63.0243 88.7669C50.4193 105.806 34.7156 116.889 34.7156 116.889C34.7156 116.889 50.4193 127.966 63.0243 145.017C75.6233 162.056 82.3265 179.378 82.3265 179.378C82.3265 179.378 89.0297 162.056 101.629 145.017C114.234 127.966 129.937 116.889 129.937 116.889C129.937 116.889 114.234 105.806 101.629 88.7669Z" fill="#DF0000"/>
<path d="M21.8011 37.2583C18.6745 33.0284 17.0111 28.7296 17.0111 28.7296C17.0111 28.7296 15.3476 33.0284 12.221 37.2583C9.09287 41.4866 5.1958 44.2371 5.1958 44.2371C5.1958 44.2371 9.09287 46.9861 12.221 51.2175C15.3476 55.4459 17.0111 59.7446 17.0111 59.7446C17.0111 59.7446 18.6745 55.4459 21.8011 51.2175C24.9292 46.9861 28.8263 44.2371 28.8263 44.2371C28.8263 44.2371 24.9292 41.4866 21.8011 37.2583Z" fill="#DF0000"/>
<path d="M155.454 191.526C152.327 187.296 150.664 182.997 150.664 182.997C150.664 182.997 149 187.296 145.874 191.526C142.746 195.754 138.849 198.504 138.849 198.504C138.849 198.504 142.746 201.253 145.874 205.485C149 209.713 150.664 214.012 150.664 214.012C150.664 214.012 152.327 209.713 155.454 205.485C158.582 201.253 162.479 198.504 162.479 198.504C162.479 198.504 158.582 195.754 155.454 191.526Z" fill="#DF0000"/>
</g>
<defs>
<clipPath id="clip0">
<rect x="0.0429688" y="0.000976562" width="167.087" height="242.667" fill="white"/>
</clipPath>
</defs>
</svg>
