<svg width="168" height="244" viewBox="0 0 168 244" fill="none" xmlns="http://www.w3.org/2000/svg">
<g clip-path="url(#clip0)">
<path d="M167.532 236.215C167.532 239.992 164.445 243.084 160.661 243.084H7.80615C4.03125 243.084 0.945312 239.992 0.945312 236.215V7.78717C0.945312 4.00983 4.03125 0.917053 7.80615 0.917053H160.661C164.445 0.917053 167.532 4.00983 167.532 7.78717V236.215V236.215Z" fill="white" stroke="black" stroke-width="0.5"/>
<path d="M11.0989 27.8696H8.19263V8.604L2.3645 10.7446V8.11963L10.6458 5.01025H11.0989V27.8696Z" fill="#DF0000"/>
<path d="M24.0276 32.9495C18.5978 32.9495 17.8729 38.3979 17.8729 38.3979C17.8729 38.3979 17.1479 32.9495 11.7181 32.9495C7.91742 32.9495 4.47839 35.3924 4.47839 40.0009C4.47839 46.0903 15.4939 52.2138 17.8729 61.1553C20.1365 52.2213 31.2673 46.0903 31.2673 40.0009C31.2673 35.3924 27.8283 32.9495 24.0276 32.9495Z" fill="#DF0000"/>
<path d="M144.697 209.913C150.126 209.913 150.851 204.465 150.851 204.465C150.851 204.465 151.576 209.913 157.006 209.913C160.807 209.913 164.246 207.47 164.246 202.862C164.246 196.772 153.23 190.649 150.851 181.707C148.588 190.641 137.457 196.772 137.457 202.862C137.457 207.47 140.896 209.913 144.697 209.913Z" fill="#DF0000"/>
<path d="M65.4232 7.26282C56.4108 7.26282 55.2075 16.3061 55.2075 16.3061C55.2075 16.3061 54.0042 7.26282 44.9919 7.26282C38.6835 7.26282 32.9755 11.3176 32.9755 18.9668C32.9755 29.0739 51.259 39.2376 55.2075 54.0788C58.9648 39.2501 77.4396 29.0739 77.4396 18.9668C77.4396 11.3176 71.7315 7.26282 65.4232 7.26282Z" fill="#DF0000"/>
<path d="M44.992 236.881C54.0043 236.881 55.2076 227.838 55.2076 227.838C55.2076 227.838 56.4109 236.881 65.4233 236.881C71.7316 236.881 77.4397 232.826 77.4397 225.177C77.4397 215.07 59.1562 204.906 55.2076 190.065C51.4504 204.894 32.9756 215.07 32.9756 225.177C32.9756 232.826 38.6836 236.881 44.992 236.881Z" fill="#DF0000"/>
<path d="M65.4232 72.4977C56.4108 72.4977 55.2075 81.541 55.2075 81.541C55.2075 81.541 54.0042 72.4977 44.9919 72.4977C38.6835 72.4977 32.9755 76.5525 32.9755 84.2017C32.9755 94.3087 51.259 104.473 55.2075 119.314C58.9648 104.485 77.4396 94.3087 77.4396 84.2017C77.4396 76.5525 71.7315 72.4977 65.4232 72.4977Z" fill="#DF0000"/>
<path d="M44.992 169.431C54.0043 169.431 55.2076 160.388 55.2076 160.388C55.2076 160.388 56.4109 169.431 65.4233 169.431C71.7316 169.431 77.4397 165.376 77.4397 157.727C77.4397 147.62 59.1562 137.456 55.2076 122.615C51.4504 137.444 32.9756 147.62 32.9756 157.727C32.9756 165.376 38.6836 169.431 44.992 169.431Z" fill="#DF0000"/>
<path d="M122.902 7.86163C113.889 7.86163 112.686 16.9049 112.686 16.9049C112.686 16.9049 111.483 7.86163 102.471 7.86163C96.1622 7.86163 90.4541 11.9164 90.4541 19.5656C90.4541 29.6727 108.738 39.8365 112.686 54.6776C116.443 39.8489 134.918 29.6727 134.918 19.5656C134.918 11.9164 129.21 7.86163 122.902 7.86163Z" fill="#DF0000"/>
<path d="M102.471 237.48C111.483 237.48 112.686 228.437 112.686 228.437C112.686 228.437 113.889 237.48 122.902 237.48C129.21 237.48 134.918 233.425 134.918 225.776C134.918 215.669 116.635 205.505 112.686 190.664C108.929 205.493 90.4541 215.669 90.4541 225.776C90.4541 233.425 96.1622 237.48 102.471 237.48Z" fill="#DF0000"/>
<path d="M122.902 73.0964C113.889 73.0964 112.686 82.1397 112.686 82.1397C112.686 82.1397 111.483 73.0964 102.471 73.0964C96.1622 73.0964 90.4541 77.1512 90.4541 84.8004C90.4541 94.9075 108.738 105.071 112.686 119.912C116.443 105.084 134.918 94.9075 134.918 84.8004C134.918 77.1512 129.21 73.0964 122.902 73.0964Z" fill="#DF0000"/>
<path d="M102.471 170.03C111.483 170.03 112.686 160.987 112.686 160.987C112.686 160.987 113.889 170.03 122.902 170.03C129.21 170.03 134.918 165.975 134.918 158.326C134.918 148.219 116.635 138.055 112.686 123.214C108.929 138.043 90.4541 148.219 90.4541 158.326C90.4541 165.975 96.1622 170.03 102.471 170.03Z" fill="#DF0000"/>
<path d="M94.1243 39.9636C85.112 39.9636 83.9087 49.0069 83.9087 49.0069C83.9087 49.0069 82.7054 39.9636 73.6931 39.9636C67.3847 39.9636 61.6766 44.0184 61.6766 51.6676C61.6766 61.7747 79.9601 71.9384 83.9087 86.7796C87.6659 71.9509 106.141 61.7747 106.141 51.6676C106.141 44.0184 100.433 39.9636 94.1243 39.9636Z" fill="#DF0000"/>
<path d="M73.2282 203.778C82.2405 203.778 83.4438 194.735 83.4438 194.735C83.4438 194.735 84.6471 203.778 93.6595 203.778C99.9678 203.778 105.676 199.723 105.676 192.074C105.676 181.967 87.3924 171.803 83.4438 156.962C79.6866 171.791 61.2118 181.967 61.2118 192.074C61.2118 199.723 66.9199 203.778 73.2282 203.778Z" fill="#DF0000"/>
<path d="M29.1383 17.924C29.1383 21.3094 28.5602 23.825 27.4039 25.4708C26.2477 27.1167 24.4404 27.9396 21.9821 27.9396C19.555 27.9396 17.7581 27.1375 16.5914 25.5333C15.4248 23.9187 14.8206 21.5125 14.7789 18.3146V14.4552C14.7789 11.1115 15.3571 8.62708 16.5133 7.00208C17.6696 5.37708 19.4821 4.56458 21.9508 4.56458C24.3987 4.56458 26.2008 5.35103 27.3571 6.92395C28.5133 8.48645 29.1071 10.9031 29.1383 14.174V17.924ZM26.2477 13.9708C26.2477 11.5229 25.9039 9.74166 25.2164 8.62708C24.5289 7.50208 23.4404 6.93958 21.9508 6.93958C20.4716 6.93958 19.3935 7.49687 18.7164 8.61145C18.0393 9.72603 17.6904 11.4396 17.6696 13.7521V18.3771C17.6696 20.8354 18.0237 22.6531 18.7321 23.8302C19.4508 24.9969 20.5341 25.5802 21.9821 25.5802C23.4091 25.5802 24.4664 25.0281 25.1539 23.924C25.8518 22.8198 26.2164 21.0802 26.2477 18.7052V13.9708Z" fill="#DF0000"/>
<path d="M156.902 214.727H159.809V233.992L165.637 231.852V234.477L157.355 237.586H156.902V214.727Z" fill="#DF0000"/>
<path d="M138.863 224.672C138.863 221.287 139.441 218.771 140.597 217.125C141.754 215.48 143.561 214.657 146.019 214.657C148.446 214.657 150.243 215.459 151.41 217.063C152.577 218.678 153.181 221.084 153.222 224.282V228.141C153.222 231.485 152.644 233.969 151.488 235.594C150.332 237.219 148.519 238.032 146.051 238.032C143.603 238.032 141.801 237.245 140.644 235.672C139.488 234.11 138.894 231.693 138.863 228.422V224.672ZM141.754 228.625C141.754 231.073 142.097 232.855 142.785 233.969C143.472 235.094 144.561 235.657 146.051 235.657C147.53 235.657 148.608 235.099 149.285 233.985C149.962 232.87 150.311 231.157 150.332 228.844V224.219C150.332 221.761 149.978 219.943 149.269 218.766C148.551 217.599 147.467 217.016 146.019 217.016C144.592 217.016 143.535 217.568 142.847 218.672C142.149 219.777 141.785 221.516 141.754 223.891V228.625Z" fill="#DF0000"/>
</g>
<defs>
<clipPath id="clip0">
<rect x="0.695312" y="0.667053" width="167.087" height="242.667" fill="white"/>
</clipPath>
</defs>
</svg>
