<svg width="168" height="244" viewBox="0 0 168 244" fill="none" xmlns="http://www.w3.org/2000/svg">
<g clip-path="url(#clip0)">
<path d="M166.837 236.215C166.837 239.992 163.75 243.084 159.966 243.084H7.11084C3.33594 243.084 0.25 239.992 0.25 236.215V7.78717C0.25 4.00983 3.33594 0.917053 7.11084 0.917053H159.966C163.75 0.917053 166.837 4.00983 166.837 7.78717V236.215V236.215Z" fill="white" stroke="black" stroke-width="0.5"/>
<path d="M25.5723 26.6804H10.666V24.6022L18.541 15.8522C19.7077 14.5293 20.5098 13.4564 20.9473 12.6335C21.3952 11.8002 21.6192 10.9408 21.6192 10.0554C21.6192 8.86786 21.2598 7.8939 20.541 7.13348C19.8223 6.37307 18.864 5.99286 17.666 5.99286C16.2285 5.99286 15.1088 6.40432 14.3067 7.22723C13.515 8.03973 13.1192 9.17515 13.1192 10.6335H10.2285C10.2285 8.53973 10.9004 6.84703 12.2442 5.55536C13.5983 4.26369 15.4056 3.61786 17.666 3.61786C19.7806 3.61786 21.4525 4.17515 22.6817 5.28973C23.9108 6.3939 24.5254 7.86786 24.5254 9.71161C24.5254 11.9512 23.0983 14.6179 20.2442 17.7116L14.1504 24.321H25.5723V26.6804Z" fill="#DF0000"/>
<path d="M23.3323 32.9495C17.9025 32.9495 17.1775 38.3979 17.1775 38.3979C17.1775 38.3979 16.4525 32.9495 11.0228 32.9495C7.22208 32.9495 3.78305 35.3924 3.78305 40.0009C3.78305 46.0903 14.7986 52.2138 17.1775 61.1553C19.4412 52.2213 30.572 46.0903 30.572 40.0009C30.572 35.3924 27.1329 32.9495 23.3323 32.9495Z" fill="#DF0000"/>
<path d="M142.021 216.182H156.927V218.26L149.052 227.01C147.885 228.333 147.083 229.406 146.646 230.229C146.198 231.062 145.974 231.922 145.974 232.807C145.974 233.995 146.333 234.969 147.052 235.729C147.771 236.49 148.729 236.87 149.927 236.87C151.365 236.87 152.484 236.458 153.286 235.635C154.078 234.823 154.474 233.687 154.474 232.229H157.365C157.365 234.323 156.693 236.016 155.349 237.307C153.995 238.599 152.187 239.245 149.927 239.245C147.812 239.245 146.141 238.687 144.911 237.573C143.682 236.469 143.068 234.995 143.068 233.151C143.068 230.911 144.495 228.245 147.349 225.151L153.443 218.542H142.021V216.182Z" fill="#DF0000"/>
<path d="M144.001 209.913C149.431 209.913 150.156 204.465 150.156 204.465C150.156 204.465 150.881 209.913 156.311 209.913C160.111 209.913 163.55 207.47 163.55 202.862C163.55 196.772 152.535 190.649 150.156 181.707C147.892 190.641 136.762 196.772 136.762 202.862C136.762 207.47 140.201 209.913 144.001 209.913Z" fill="#DF0000"/>
<path d="M93.9167 34.1189C84.9044 34.1189 83.7011 43.1622 83.7011 43.1622C83.7011 43.1622 82.4977 34.1189 73.4854 34.1189C67.1771 34.1189 61.469 38.1737 61.469 45.8229C61.469 55.9299 79.7525 66.0937 83.7011 80.9349C87.4583 66.1062 105.933 55.9299 105.933 45.8229C105.933 38.1737 100.225 34.1189 93.9167 34.1189Z" fill="#DF0000"/>
<path d="M73.4854 209.337C82.4978 209.337 83.7011 200.294 83.7011 200.294C83.7011 200.294 84.9044 209.337 93.9167 209.337C100.225 209.337 105.933 205.282 105.933 197.633C105.933 187.526 87.6496 177.362 83.7011 162.521C79.9438 177.35 61.469 187.526 61.469 197.633C61.469 205.282 67.1771 209.337 73.4854 209.337Z" fill="#DF0000"/>
</g>
<defs>
<clipPath id="clip0">
<rect y="0.667053" width="167.087" height="242.667" fill="white"/>
</clipPath>
</defs>
</svg>
