<svg width="168" height="244" viewBox="0 0 168 244" fill="none" xmlns="http://www.w3.org/2000/svg">
<g clip-path="url(#clip0)">
<path d="M166.924 236.215C166.924 239.992 163.837 243.084 160.053 243.084H7.19775C3.42285 243.084 0.336914 239.992 0.336914 236.215V7.78717C0.336914 4.00983 3.42285 0.917053 7.19775 0.917053H160.053C163.837 0.917053 166.924 4.00983 166.924 7.78717V236.215V236.215Z" fill="white" stroke="black" stroke-width="0.5"/>
<path d="M14.9561 13.8991H17.128C18.4925 13.8783 19.5655 13.5189 20.3467 12.821C21.128 12.1231 21.5186 11.1804 21.5186 9.99286C21.5186 7.32619 20.1905 5.99286 17.5342 5.99286C16.2842 5.99286 15.2842 6.35223 14.5342 7.07098C13.7946 7.77932 13.4248 8.72203 13.4248 9.89911H10.5342C10.5342 8.09703 11.1905 6.60223 12.503 5.41473C13.8259 4.21682 15.503 3.61786 17.5342 3.61786C19.68 3.61786 21.3623 4.18557 22.5811 5.32098C23.7998 6.4564 24.4092 8.03453 24.4092 10.0554C24.4092 11.0449 24.0863 12.0033 23.4405 12.9304C22.805 13.8574 21.9353 14.5502 20.8311 15.0085C22.0811 15.4043 23.0446 16.0606 23.7217 16.9772C24.4092 17.8939 24.753 19.0137 24.753 20.3366C24.753 22.3783 24.0863 23.9981 22.753 25.196C21.4196 26.3939 19.6853 26.9929 17.5498 26.9929C15.4144 26.9929 13.6748 26.4147 12.3311 25.2585C10.9978 24.1022 10.3311 22.5762 10.3311 20.6804H13.2373C13.2373 21.8783 13.628 22.8366 14.4092 23.5554C15.1905 24.2741 16.2373 24.6335 17.5498 24.6335C18.9457 24.6335 20.0134 24.2689 20.753 23.5397C21.4925 22.8106 21.8623 21.7637 21.8623 20.3991C21.8623 19.0762 21.4561 18.0606 20.6436 17.3522C19.8311 16.6439 18.6592 16.2793 17.128 16.2585H14.9561V13.8991Z" fill="#DF0000"/>
<path d="M23.4192 32.9495C17.9894 32.9495 17.2644 38.3979 17.2644 38.3979C17.2644 38.3979 16.5394 32.9495 11.1097 32.9495C7.30899 32.9495 3.86996 35.3924 3.86996 40.0009C3.86996 46.0903 14.8855 52.2138 17.2644 61.1553C19.5281 52.2213 30.6589 46.0903 30.6589 40.0009C30.6589 35.3924 27.2199 32.9495 23.4192 32.9495Z" fill="#DF0000"/>
<path d="M152.811 228.964H150.639C149.274 228.984 148.201 229.344 147.42 230.042C146.639 230.74 146.248 231.682 146.248 232.87C146.248 235.536 147.576 236.87 150.233 236.87C151.483 236.87 152.483 236.51 153.233 235.792C153.972 235.083 154.342 234.141 154.342 232.964H157.233C157.233 234.766 156.576 236.26 155.264 237.448C153.941 238.646 152.264 239.245 150.233 239.245C148.087 239.245 146.405 238.677 145.186 237.542C143.967 236.406 143.358 234.828 143.358 232.807C143.358 231.818 143.681 230.859 144.326 229.932C144.962 229.005 145.832 228.312 146.936 227.854C145.686 227.458 144.722 226.802 144.045 225.885C143.358 224.969 143.014 223.849 143.014 222.526C143.014 220.484 143.681 218.865 145.014 217.667C146.347 216.469 148.082 215.87 150.217 215.87C152.352 215.87 154.092 216.448 155.436 217.604C156.769 218.76 157.436 220.286 157.436 222.182H154.53C154.53 220.984 154.139 220.026 153.358 219.307C152.576 218.589 151.53 218.229 150.217 218.229C148.821 218.229 147.753 218.594 147.014 219.323C146.274 220.052 145.905 221.099 145.905 222.464C145.905 223.786 146.311 224.802 147.123 225.51C147.936 226.219 149.108 226.583 150.639 226.604H152.811V228.964Z" fill="#DF0000"/>
<path d="M144.088 209.913C149.518 209.913 150.243 204.465 150.243 204.465C150.243 204.465 150.968 209.913 156.398 209.913C160.198 209.913 163.637 207.47 163.637 202.862C163.637 196.772 152.622 190.649 150.243 181.707C147.979 190.641 136.848 196.772 136.848 202.862C136.848 207.47 140.288 209.913 144.088 209.913Z" fill="#DF0000"/>
<path d="M93.6148 24.8629C84.6025 24.8629 83.3992 33.9061 83.3992 33.9061C83.3992 33.9061 82.1959 24.8629 73.1835 24.8629C66.8752 24.8629 61.1671 28.9176 61.1671 36.5668C61.1671 46.6739 79.4506 56.8377 83.3992 71.6788C87.1564 56.8501 105.631 46.6739 105.631 36.5668C105.631 28.9176 99.9232 24.8629 93.6148 24.8629Z" fill="#DF0000"/>
<path d="M73.1835 216.081C82.1958 216.081 83.3992 207.038 83.3992 207.038C83.3992 207.038 84.6025 216.081 93.6148 216.081C99.9231 216.081 105.631 212.026 105.631 204.377C105.631 194.27 87.3477 184.106 83.3992 169.265C79.6419 184.094 61.1671 194.27 61.1671 204.377C61.1671 212.026 66.8752 216.081 73.1835 216.081Z" fill="#DF0000"/>
<path d="M93.6148 96.1637C84.6025 96.1637 83.3992 105.207 83.3992 105.207C83.3992 105.207 82.1959 96.1637 73.1835 96.1637C66.8752 96.1637 61.1671 100.218 61.1671 107.868C61.1671 117.975 79.4506 128.139 83.3992 142.98C87.1564 128.151 105.631 117.975 105.631 107.868C105.631 100.218 99.9232 96.1637 93.6148 96.1637Z" fill="#DF0000"/>
</g>
<defs>
<clipPath id="clip0">
<rect x="0.0869141" y="0.667053" width="167.087" height="242.667" fill="white"/>
</clipPath>
</defs>
</svg>
