<svg width="168" height="244" viewBox="0 0 168 244" fill="none" xmlns="http://www.w3.org/2000/svg">
<g clip-path="url(#clip0)">
<path d="M167.011 236.215C167.011 239.992 163.924 243.084 160.14 243.084H7.28467C3.50977 243.084 0.423828 239.992 0.423828 236.215V7.78717C0.423828 4.00983 3.50977 0.917053 7.28467 0.917053H160.14C163.924 0.917053 167.011 4.00983 167.011 7.78717V236.215V236.215Z" fill="white" stroke="black" stroke-width="0.5"/>
<path d="M23.043 19.0397H26.1993V21.3991H23.043V26.6804H20.1368V21.3991H9.7774V19.696L19.9649 3.93036H23.043V19.0397ZM13.0587 19.0397H20.1368V7.88348L19.793 8.50848L13.0587 19.0397Z" fill="#DF0000"/>
<path d="M23.5061 32.9495C18.0763 32.9495 17.3514 38.3979 17.3514 38.3979C17.3514 38.3979 16.6264 32.9495 11.1966 32.9495C7.39594 32.9495 3.95691 35.3924 3.95691 40.0009C3.95691 46.0903 14.9724 52.2138 17.3514 61.1553C19.615 52.2213 30.7458 46.0903 30.7458 40.0009C30.7458 35.3924 27.3068 32.9495 23.5061 32.9495Z" fill="#DF0000"/>
<path d="M144.898 223.823H141.741V221.464H144.898V216.182H147.804V221.464H158.163V223.167L147.976 238.932H144.898V223.823ZM154.882 223.823H147.804V234.979L148.148 234.354L154.882 223.823Z" fill="#DF0000"/>
<path d="M144.175 209.913C149.605 209.913 150.33 204.465 150.33 204.465C150.33 204.465 151.055 209.913 156.485 209.913C160.285 209.913 163.724 207.47 163.724 202.862C163.724 196.772 152.709 190.649 150.33 181.707C148.066 190.641 136.935 196.772 136.935 202.862C136.935 207.47 140.374 209.913 144.175 209.913Z" fill="#DF0000"/>
<path d="M66.5017 42.1189C57.4894 42.1189 56.2861 51.1622 56.2861 51.1622C56.2861 51.1622 55.0828 42.1189 46.0704 42.1189C39.7621 42.1189 34.054 46.1737 34.054 53.8229C34.054 63.9299 52.3375 74.0937 56.2861 88.9349C60.0433 74.1062 78.5181 63.9299 78.5181 53.8229C78.5181 46.1737 72.8101 42.1189 66.5017 42.1189Z" fill="#DF0000"/>
<path d="M46.0705 201.337C55.0828 201.337 56.2861 192.294 56.2861 192.294C56.2861 192.294 57.4894 201.337 66.5018 201.337C72.8101 201.337 78.5182 197.282 78.5182 189.633C78.5182 179.526 60.2347 169.362 56.2861 154.521C52.5289 169.35 34.0541 179.526 34.0541 189.633C34.0541 197.282 39.7621 201.337 46.0705 201.337Z" fill="#DF0000"/>
<path d="M121.094 42.3914C112.082 42.3914 110.878 51.4346 110.878 51.4346C110.878 51.4346 109.675 42.3914 100.663 42.3914C94.3544 42.3914 88.6463 46.4461 88.6463 54.0953C88.6463 64.2024 106.93 74.3662 110.878 89.2073C114.636 74.3786 133.11 64.2024 133.11 54.0953C133.11 46.4461 127.402 42.3914 121.094 42.3914Z" fill="#DF0000"/>
<path d="M100.663 201.61C109.675 201.61 110.878 192.566 110.878 192.566C110.878 192.566 112.082 201.61 121.094 201.61C127.402 201.61 133.11 197.555 133.11 189.906C133.11 179.799 114.827 169.635 110.878 154.794C107.121 169.622 88.6463 179.799 88.6463 189.906C88.6463 197.555 94.3544 201.61 100.663 201.61Z" fill="#DF0000"/>
</g>
<defs>
<clipPath id="clip0">
<rect x="0.173828" y="0.667053" width="167.087" height="242.667" fill="white"/>
</clipPath>
</defs>
</svg>
