<svg width="168" height="244" viewBox="0 0 168 244" fill="none" xmlns="http://www.w3.org/2000/svg">
<g clip-path="url(#clip0)">
<path d="M167.098 236.215C167.098 239.992 164.011 243.084 160.227 243.084H7.37164C3.59674 243.084 0.510803 239.992 0.510803 236.215V7.78717C0.510803 4.00983 3.59674 0.917053 7.37164 0.917053H160.227C164.011 0.917053 167.098 4.00983 167.098 7.78717V236.215V236.215Z" fill="white" stroke="black" stroke-width="0.5"/>
<path d="M12.255 15.2741L13.4113 3.93036H25.0675V6.60223H15.8644L15.1769 12.8054C16.2915 12.1491 17.5571 11.821 18.9738 11.821C21.0467 11.821 22.6925 12.5085 23.9113 13.8835C25.13 15.2481 25.7394 17.097 25.7394 19.4304C25.7394 21.7741 25.104 23.6231 23.8331 24.9772C22.5727 26.321 20.8071 26.9929 18.5363 26.9929C16.5258 26.9929 14.8852 26.4356 13.6144 25.321C12.3435 24.2064 11.6196 22.6647 11.4425 20.696H14.1769C14.354 21.9981 14.8175 22.9824 15.5675 23.6491C16.3175 24.3054 17.3071 24.6335 18.5363 24.6335C19.88 24.6335 20.9321 24.1752 21.6925 23.2585C22.4633 22.3418 22.8488 21.0762 22.8488 19.4616C22.8488 17.9408 22.4321 16.722 21.5988 15.8054C20.7758 14.8783 19.6769 14.4147 18.3019 14.4147C17.0415 14.4147 16.0519 14.6908 15.3331 15.2429L14.5675 15.8679L12.255 15.2741Z" fill="#DF0000"/>
<path d="M23.5931 32.9495C18.1633 32.9495 17.4383 38.3979 17.4383 38.3979C17.4383 38.3979 16.7134 32.9495 11.2836 32.9495C7.48291 32.9495 4.04388 35.3924 4.04388 40.0009C4.04388 46.0903 15.0594 52.2138 17.4383 61.1553C19.702 52.2213 30.8328 46.0903 30.8328 40.0009C30.8328 35.3924 27.3938 32.9495 23.5931 32.9495Z" fill="#DF0000"/>
<path d="M155.86 227.589L154.703 238.932H143.047V236.26H152.25L152.938 230.057C151.823 230.714 150.558 231.042 149.141 231.042C147.068 231.042 145.422 230.354 144.203 228.979C142.985 227.615 142.375 225.766 142.375 223.432C142.375 221.089 143.011 219.24 144.282 217.885C145.542 216.542 147.308 215.87 149.578 215.87C151.589 215.87 153.229 216.427 154.5 217.542C155.771 218.656 156.495 220.198 156.672 222.167H153.938C153.761 220.865 153.297 219.88 152.547 219.214C151.797 218.557 150.808 218.229 149.578 218.229C148.235 218.229 147.183 218.687 146.422 219.604C145.651 220.521 145.266 221.786 145.266 223.401C145.266 224.922 145.683 226.141 146.516 227.057C147.339 227.984 148.438 228.448 149.813 228.448C151.073 228.448 152.063 228.172 152.782 227.62L153.547 226.995L155.86 227.589Z" fill="#DF0000"/>
<path d="M144.262 209.913C149.692 209.913 150.417 204.465 150.417 204.465C150.417 204.465 151.142 209.913 156.572 209.913C160.372 209.913 163.811 207.47 163.811 202.862C163.811 196.772 152.796 190.649 150.417 181.707C148.153 190.641 137.022 196.772 137.022 202.862C137.022 207.47 140.461 209.913 144.262 209.913Z" fill="#DF0000"/>
<path d="M66.5887 42.1189C57.5764 42.1189 56.3731 51.1622 56.3731 51.1622C56.3731 51.1622 55.1697 42.1189 46.1574 42.1189C39.8491 42.1189 34.141 46.1737 34.141 53.8229C34.141 63.9299 52.4245 74.0937 56.3731 88.9349C60.1303 74.1062 78.6051 63.9299 78.6051 53.8229C78.6051 46.1737 72.897 42.1189 66.5887 42.1189Z" fill="#DF0000"/>
<path d="M46.1574 201.337C55.1697 201.337 56.373 192.294 56.373 192.294C56.373 192.294 57.5763 201.337 66.5887 201.337C72.897 201.337 78.6051 197.282 78.6051 189.633C78.6051 179.526 60.3216 169.362 56.373 154.521C52.6158 169.35 34.141 179.526 34.141 189.633C34.141 197.282 39.8491 201.337 46.1574 201.337Z" fill="#DF0000"/>
<path d="M121.181 42.3914C112.169 42.3914 110.965 51.4346 110.965 51.4346C110.965 51.4346 109.762 42.3914 100.75 42.3914C94.4414 42.3914 88.7333 46.4461 88.7333 54.0953C88.7333 64.2024 107.017 74.3662 110.965 89.2073C114.723 74.3786 133.197 64.2024 133.197 54.0953C133.197 46.4461 127.489 42.3914 121.181 42.3914Z" fill="#DF0000"/>
<path d="M100.75 201.61C109.762 201.61 110.965 192.566 110.965 192.566C110.965 192.566 112.169 201.61 121.181 201.61C127.489 201.61 133.197 197.555 133.197 189.906C133.197 179.799 114.914 169.635 110.965 154.794C107.208 169.622 88.7333 179.799 88.7333 189.906C88.7333 197.555 94.4413 201.61 100.75 201.61Z" fill="#DF0000"/>
<path d="M93.6898 102.312C84.6775 102.312 83.4742 111.355 83.4742 111.355C83.4742 111.355 82.2709 102.312 73.2586 102.312C66.9502 102.312 61.2421 106.366 61.2421 114.016C61.2421 124.123 79.5256 134.286 83.4742 149.128C87.2314 134.299 105.706 124.123 105.706 114.016C105.706 106.366 99.9982 102.312 93.6898 102.312Z" fill="#DF0000"/>
</g>
<defs>
<clipPath id="clip0">
<rect x="0.260803" y="0.667053" width="167.087" height="242.667" fill="white"/>
</clipPath>
</defs>
</svg>
