<svg width="168" height="244" viewBox="0 0 168 244" fill="none" xmlns="http://www.w3.org/2000/svg">
<g clip-path="url(#clip0)">
<path d="M167.185 236.215C167.185 239.992 164.098 243.084 160.314 243.084H7.45856C3.68365 243.084 0.597717 239.992 0.597717 236.215V7.78717C0.597717 4.00983 3.68365 0.917053 7.45856 0.917053H160.314C164.098 0.917053 167.185 4.00983 167.185 7.78717V236.215V236.215Z" fill="white" stroke="black" stroke-width="0.5"/>
<path d="M22.3575 3.91473V6.36786H21.8263C19.5763 6.40953 17.7846 7.07619 16.4513 8.36786C15.118 9.65953 14.3471 11.4772 14.1388 13.821C15.3367 12.446 16.9721 11.7585 19.045 11.7585C21.0242 11.7585 22.6023 12.4564 23.7794 13.8522C24.9669 15.2481 25.5607 17.0502 25.5607 19.2585C25.5607 21.6022 24.92 23.4772 23.6388 24.8835C22.368 26.2897 20.6596 26.9929 18.5138 26.9929C16.3367 26.9929 14.5711 26.1595 13.2169 24.4929C11.8628 22.8158 11.1857 20.6595 11.1857 18.0241V16.9147C11.1857 12.7272 12.0763 9.52932 13.8575 7.32098C15.6492 5.10223 18.3107 3.96682 21.8419 3.91473H22.3575ZM18.5607 14.1647C17.5711 14.1647 16.6596 14.4616 15.8263 15.0554C14.993 15.6491 14.4148 16.3939 14.0919 17.2897V18.3522C14.0919 20.2272 14.5138 21.7377 15.3575 22.8835C16.2013 24.0293 17.2534 24.6022 18.5138 24.6022C19.8159 24.6022 20.8367 24.1231 21.5763 23.1647C22.3263 22.2064 22.7013 20.9512 22.7013 19.3991C22.7013 17.8366 22.3211 16.5762 21.5607 15.6179C20.8107 14.6491 19.8107 14.1647 18.5607 14.1647Z" fill="#DF0000"/>
<path d="M23.68 32.9495C18.2502 32.9495 17.5253 38.3979 17.5253 38.3979C17.5253 38.3979 16.8003 32.9495 11.3705 32.9495C7.56983 32.9495 4.1308 35.3924 4.1308 40.0009C4.1308 46.0903 15.1463 52.2138 17.5253 61.1553C19.7889 52.2213 30.9197 46.0903 30.9197 40.0009C30.9197 35.3924 27.4807 32.9495 23.68 32.9495Z" fill="#DF0000"/>
<path d="M145.931 238.948V236.495H146.462C148.712 236.453 150.504 235.786 151.837 234.495C153.17 233.203 153.941 231.385 154.15 229.042C152.952 230.417 151.316 231.104 149.243 231.104C147.264 231.104 145.686 230.406 144.509 229.01C143.322 227.615 142.728 225.812 142.728 223.604C142.728 221.26 143.368 219.385 144.65 217.979C145.92 216.573 147.629 215.87 149.775 215.87C151.952 215.87 153.717 216.703 155.072 218.37C156.426 220.047 157.103 222.203 157.103 224.839V225.948C157.103 230.135 156.212 233.333 154.431 235.542C152.639 237.76 149.978 238.896 146.447 238.948H145.931ZM149.728 228.698C150.717 228.698 151.629 228.401 152.462 227.807C153.295 227.214 153.874 226.469 154.197 225.573V224.51C154.197 222.635 153.775 221.125 152.931 219.979C152.087 218.833 151.035 218.26 149.775 218.26C148.473 218.26 147.452 218.74 146.712 219.698C145.962 220.656 145.587 221.911 145.587 223.464C145.587 225.026 145.967 226.286 146.728 227.245C147.478 228.214 148.478 228.698 149.728 228.698Z" fill="#DF0000"/>
<path d="M144.349 209.913C149.779 209.913 150.504 204.465 150.504 204.465C150.504 204.465 151.229 209.913 156.658 209.913C160.459 209.913 163.898 207.47 163.898 202.862C163.898 196.772 152.883 190.649 150.504 181.707C148.24 190.641 137.109 196.772 137.109 202.862C137.109 207.47 140.548 209.913 144.349 209.913Z" fill="#DF0000"/>
<path d="M68.2756 24.8629C59.2633 24.8629 58.06 33.9061 58.06 33.9061C58.06 33.9061 56.8567 24.8629 47.8444 24.8629C41.536 24.8629 35.8279 28.9176 35.8279 36.5668C35.8279 46.6739 54.1115 56.8377 58.06 71.6788C61.8173 56.8501 80.2921 46.6739 80.2921 36.5668C80.2921 28.9176 74.584 24.8629 68.2756 24.8629Z" fill="#DF0000"/>
<path d="M47.8443 216.081C56.8566 216.081 58.0599 207.038 58.0599 207.038C58.0599 207.038 59.2632 216.081 68.2756 216.081C74.5839 216.081 80.292 212.026 80.292 204.377C80.292 194.27 62.0085 184.106 58.0599 169.265C54.3027 184.094 35.8279 194.27 35.8279 204.377C35.8279 212.026 41.5359 216.081 47.8443 216.081Z" fill="#DF0000"/>
<path d="M68.2756 96.1637C59.2633 96.1637 58.06 105.207 58.06 105.207C58.06 105.207 56.8567 96.1637 47.8444 96.1637C41.536 96.1637 35.8279 100.218 35.8279 107.868C35.8279 117.975 54.1115 128.139 58.06 142.98C61.8173 128.151 80.2921 117.975 80.2921 107.868C80.2921 100.218 74.584 96.1637 68.2756 96.1637Z" fill="#DF0000"/>
<path d="M119.614 24.5319C110.601 24.5319 109.398 33.5751 109.398 33.5751C109.398 33.5751 108.195 24.5319 99.1824 24.5319C92.8741 24.5319 87.166 28.5866 87.166 36.2359C87.166 46.3429 105.45 56.5067 109.398 71.3478C113.155 56.5191 131.63 46.3429 131.63 36.2359C131.63 28.5866 125.922 24.5319 119.614 24.5319Z" fill="#DF0000"/>
<path d="M99.1824 215.75C108.195 215.75 109.398 206.707 109.398 206.707C109.398 206.707 110.601 215.75 119.614 215.75C125.922 215.75 131.63 211.695 131.63 204.046C131.63 193.939 113.347 183.775 109.398 168.934C105.641 183.763 87.166 193.939 87.166 204.046C87.166 211.695 92.8741 215.75 99.1824 215.75Z" fill="#DF0000"/>
<path d="M119.614 95.8326C110.601 95.8326 109.398 104.876 109.398 104.876C109.398 104.876 108.195 95.8326 99.1824 95.8326C92.8741 95.8326 87.166 99.8874 87.166 107.537C87.166 117.644 105.45 127.807 109.398 142.649C113.155 127.82 131.63 117.644 131.63 107.537C131.63 99.8874 125.922 95.8326 119.614 95.8326Z" fill="#DF0000"/>
</g>
<defs>
<clipPath id="clip0">
<rect x="0.347717" y="0.667053" width="167.087" height="242.667" fill="white"/>
</clipPath>
</defs>
</svg>
