<svg width="168" height="244" viewBox="0 0 168 244" fill="none" xmlns="http://www.w3.org/2000/svg">
<g clip-path="url(#clip0)">
<path d="M167.271 236.215C167.271 239.992 164.185 243.084 160.4 243.084H7.54541C3.77051 243.084 0.68457 239.992 0.68457 236.215V7.78717C0.68457 4.00983 3.77051 0.917053 7.54541 0.917053H160.4C164.185 0.917053 167.271 4.00983 167.271 7.78717V236.215V236.215Z" fill="white" stroke="black" stroke-width="0.5"/>
<path d="M25.7881 5.55536L16.3662 26.6804H13.335L22.7256 6.30536H10.4131V3.93036H25.7881V5.55536Z" fill="#DF0000"/>
<path d="M23.7669 32.9495C18.3371 32.9495 17.6121 38.3979 17.6121 38.3979C17.6121 38.3979 16.8871 32.9495 11.4574 32.9495C7.65668 32.9495 4.21765 35.3924 4.21765 40.0009C4.21765 46.0903 15.2332 52.2138 17.6121 61.1553C19.8758 52.2213 31.0066 46.0903 31.0066 40.0009C31.0066 35.3924 27.5675 32.9495 23.7669 32.9495Z" fill="#DF0000"/>
<path d="M142.674 237.307L152.096 216.182H155.127L145.737 236.557H158.049V238.932H142.674V237.307Z" fill="#DF0000"/>
<path d="M144.436 209.913C149.866 209.913 150.591 204.465 150.591 204.465C150.591 204.465 151.316 209.913 156.745 209.913C160.546 209.913 163.985 207.47 163.985 202.862C163.985 196.772 152.969 190.649 150.591 181.707C148.327 190.641 137.196 196.772 137.196 202.862C137.196 207.47 140.635 209.913 144.436 209.913Z" fill="#DF0000"/>
<path d="M65.1624 8.86285C56.1501 8.86285 54.9468 17.9061 54.9468 17.9061C54.9468 17.9061 53.7435 8.86285 44.7312 8.86285C38.4228 8.86285 32.7147 12.9176 32.7147 20.5668C32.7147 30.6739 50.9982 40.8377 54.9468 55.6788C58.704 40.8501 77.1789 30.6739 77.1789 20.5668C77.1789 12.9176 71.4708 8.86285 65.1624 8.86285Z" fill="#DF0000"/>
<path d="M44.7313 232.081C53.7436 232.081 54.9469 223.038 54.9469 223.038C54.9469 223.038 56.1502 232.081 65.1625 232.081C71.4709 232.081 77.179 228.026 77.179 220.377C77.179 210.27 58.8954 200.106 54.9469 185.265C51.1896 200.094 32.7148 210.27 32.7148 220.377C32.7148 228.026 38.4229 232.081 44.7313 232.081Z" fill="#DF0000"/>
<path d="M65.1624 102.564C56.1501 102.564 54.9468 111.607 54.9468 111.607C54.9468 111.607 53.7435 102.564 44.7312 102.564C38.4228 102.564 32.7147 106.618 32.7147 114.268C32.7147 124.375 50.9982 134.538 54.9468 149.38C58.704 134.551 77.1789 124.375 77.1789 114.268C77.1789 106.618 71.4708 102.564 65.1624 102.564Z" fill="#DF0000"/>
<path d="M122.901 8.53186C113.888 8.53186 112.685 17.5751 112.685 17.5751C112.685 17.5751 111.482 8.53186 102.469 8.53186C96.161 8.53186 90.4529 12.5866 90.4529 20.2359C90.4529 30.3429 108.736 40.5067 112.685 55.3478C116.442 40.5191 134.917 30.3429 134.917 20.2359C134.917 12.5866 129.209 8.53186 122.901 8.53186Z" fill="#DF0000"/>
<path d="M102.469 233.35C111.482 233.35 112.685 224.307 112.685 224.307C112.685 224.307 113.888 233.35 122.901 233.35C129.209 233.35 134.917 229.295 134.917 221.646C134.917 211.539 116.633 201.375 112.685 186.534C108.928 201.363 90.4529 211.539 90.4529 221.646C90.4529 229.295 96.1609 233.35 102.469 233.35Z" fill="#DF0000"/>
<path d="M122.901 102.233C113.888 102.233 112.685 111.276 112.685 111.276C112.685 111.276 111.482 102.233 102.469 102.233C96.161 102.233 90.4529 106.287 90.4529 113.937C90.4529 124.044 108.736 134.207 112.685 149.049C116.442 134.22 134.917 124.044 134.917 113.937C134.917 106.287 129.209 102.233 122.901 102.233Z" fill="#DF0000"/>
<path d="M94.3284 53.9641C85.3161 53.9641 84.1128 63.0074 84.1128 63.0074C84.1128 63.0074 82.9095 53.9641 73.8972 53.9641C67.5888 53.9641 61.8807 58.0189 61.8807 65.6681C61.8807 75.7752 80.1643 85.9389 84.1128 100.78C87.87 85.9514 106.345 75.7752 106.345 65.6681C106.345 58.0189 100.637 53.9641 94.3284 53.9641Z" fill="#DF0000"/>
</g>
<defs>
<clipPath id="clip0">
<rect x="0.43457" y="0.667053" width="167.087" height="242.667" fill="white"/>
</clipPath>
</defs>
</svg>
