<svg width="168" height="244" viewBox="0 0 168 244" fill="none" xmlns="http://www.w3.org/2000/svg">
<g clip-path="url(#clip0)">
<path d="M167.358 236.215C167.358 239.992 164.271 243.084 160.487 243.084H7.63232C3.85742 243.084 0.771484 239.992 0.771484 236.215V7.78717C0.771484 4.00983 3.85742 0.917053 7.63232 0.917053H160.487C164.271 0.917053 167.358 4.00983 167.358 7.78717V236.215V236.215Z" fill="white" stroke="black" stroke-width="0.5"/>
<path d="M24.9844 9.86786C24.9844 11.0033 24.6823 12.0137 24.0781 12.8991C23.4844 13.7845 22.6771 14.4772 21.6562 14.9772C22.8438 15.4877 23.7812 16.2324 24.4688 17.2116C25.1667 18.1908 25.5156 19.3002 25.5156 20.5397C25.5156 22.5085 24.849 24.0762 23.5156 25.2429C22.1927 26.4095 20.4479 26.9929 18.2812 26.9929C16.0938 26.9929 14.3385 26.4095 13.0156 25.2429C11.7031 24.0658 11.0469 22.4981 11.0469 20.5397C11.0469 19.3106 11.3802 18.2012 12.0469 17.2116C12.724 16.222 13.6562 15.472 14.8438 14.9616C13.8333 14.4616 13.0365 13.7689 12.4531 12.8835C11.8698 11.9981 11.5781 10.9929 11.5781 9.86786C11.5781 7.95119 12.1927 6.43036 13.4219 5.30536C14.651 4.18036 16.2708 3.61786 18.2812 3.61786C20.2812 3.61786 21.8958 4.18036 23.125 5.30536C24.3646 6.43036 24.9844 7.95119 24.9844 9.86786ZM22.625 20.4772C22.625 19.2064 22.2188 18.1699 21.4062 17.3679C20.6042 16.5658 19.5521 16.1647 18.25 16.1647C16.9479 16.1647 15.901 16.5606 15.1094 17.3522C14.3281 18.1439 13.9375 19.1856 13.9375 20.4772C13.9375 21.7689 14.3177 22.7845 15.0781 23.5241C15.849 24.2637 16.9167 24.6335 18.2812 24.6335C19.6354 24.6335 20.6979 24.2637 21.4688 23.5241C22.2396 22.7741 22.625 21.7585 22.625 20.4772ZM18.2812 5.99286C17.1458 5.99286 16.224 6.34703 15.5156 7.05536C14.8177 7.75328 14.4688 8.7064 14.4688 9.91473C14.4688 11.071 14.8125 12.0085 15.5 12.7272C16.1979 13.4356 17.125 13.7897 18.2812 13.7897C19.4375 13.7897 20.3594 13.4356 21.0469 12.7272C21.7448 12.0085 22.0938 11.071 22.0938 9.91473C22.0938 8.75848 21.7344 7.81578 21.0156 7.08661C20.2969 6.35744 19.3854 5.99286 18.2812 5.99286Z" fill="#DF0000"/>
<path d="M23.8538 32.9495C18.424 32.9495 17.699 38.3979 17.699 38.3979C17.699 38.3979 16.974 32.9495 11.5443 32.9495C7.74359 32.9495 4.30457 35.3924 4.30457 40.0009C4.30457 46.0903 15.3201 52.2138 17.699 61.1553C19.9627 52.2213 31.0935 46.0903 31.0935 40.0009C31.0935 35.3924 27.6545 32.9495 23.8538 32.9495Z" fill="#DF0000"/>
<path d="M143.652 232.995C143.652 231.859 143.954 230.849 144.558 229.964C145.152 229.078 145.959 228.385 146.98 227.885C145.792 227.375 144.855 226.63 144.167 225.651C143.469 224.672 143.12 223.562 143.12 222.323C143.12 220.354 143.787 218.786 145.12 217.62C146.443 216.453 148.188 215.87 150.355 215.87C152.542 215.87 154.297 216.453 155.62 217.62C156.933 218.797 157.589 220.365 157.589 222.323C157.589 223.552 157.256 224.661 156.589 225.651C155.912 226.641 154.98 227.391 153.792 227.901C154.803 228.401 155.6 229.094 156.183 229.979C156.766 230.865 157.058 231.87 157.058 232.995C157.058 234.911 156.443 236.432 155.214 237.557C153.985 238.682 152.365 239.245 150.355 239.245C148.355 239.245 146.74 238.682 145.511 237.557C144.271 236.432 143.652 234.911 143.652 232.995ZM146.011 222.385C146.011 223.656 146.417 224.693 147.23 225.495C148.032 226.297 149.084 226.698 150.386 226.698C151.688 226.698 152.735 226.302 153.527 225.51C154.308 224.719 154.698 223.677 154.698 222.385C154.698 221.094 154.318 220.078 153.558 219.339C152.787 218.599 151.719 218.229 150.355 218.229C149.001 218.229 147.938 218.599 147.167 219.339C146.396 220.089 146.011 221.104 146.011 222.385ZM150.355 236.87C151.49 236.87 152.412 236.516 153.12 235.807C153.818 235.109 154.167 234.156 154.167 232.948C154.167 231.792 153.823 230.854 153.136 230.135C152.438 229.427 151.511 229.073 150.355 229.073C149.198 229.073 148.277 229.427 147.589 230.135C146.891 230.854 146.542 231.792 146.542 232.948C146.542 234.104 146.902 235.047 147.62 235.776C148.339 236.505 149.251 236.87 150.355 236.87Z" fill="#DF0000"/>
<path d="M144.523 209.913C149.952 209.913 150.677 204.465 150.677 204.465C150.677 204.465 151.402 209.913 156.832 209.913C160.633 209.913 164.072 207.47 164.072 202.862C164.072 196.772 153.056 190.649 150.677 181.707C148.414 190.641 137.283 196.772 137.283 202.862C137.283 207.47 140.722 209.913 144.523 209.913Z" fill="#DF0000"/>
<path d="M65.2493 8.86285C56.237 8.86285 55.0337 17.9061 55.0337 17.9061C55.0337 17.9061 53.8304 8.86285 44.8181 8.86285C38.5097 8.86285 32.8016 12.9176 32.8016 20.5668C32.8016 30.6739 51.0851 40.8377 55.0337 55.6788C58.7909 40.8501 77.2658 30.6739 77.2658 20.5668C77.2658 12.9176 71.5577 8.86285 65.2493 8.86285Z" fill="#DF0000"/>
<path d="M44.8182 232.081C53.8305 232.081 55.0338 223.038 55.0338 223.038C55.0338 223.038 56.2371 232.081 65.2494 232.081C71.5578 232.081 77.2659 228.026 77.2659 220.377C77.2659 210.27 58.9824 200.106 55.0338 185.265C51.2766 200.094 32.8017 210.27 32.8017 220.377C32.8017 228.026 38.5098 232.081 44.8182 232.081Z" fill="#DF0000"/>
<path d="M65.2493 102.564C56.237 102.564 55.0337 111.607 55.0337 111.607C55.0337 111.607 53.8304 102.564 44.8181 102.564C38.5097 102.564 32.8016 106.618 32.8016 114.268C32.8016 124.375 51.0851 134.538 55.0337 149.38C58.7909 134.551 77.2658 124.375 77.2658 114.268C77.2658 106.618 71.5577 102.564 65.2493 102.564Z" fill="#DF0000"/>
<path d="M122.987 8.53186C113.975 8.53186 112.772 17.5751 112.772 17.5751C112.772 17.5751 111.569 8.53186 102.556 8.53186C96.2479 8.53186 90.5398 12.5866 90.5398 20.2359C90.5398 30.3429 108.823 40.5067 112.772 55.3478C116.529 40.5191 135.004 30.3429 135.004 20.2359C135.004 12.5866 129.296 8.53186 122.987 8.53186Z" fill="#DF0000"/>
<path d="M102.556 233.35C111.569 233.35 112.772 224.307 112.772 224.307C112.772 224.307 113.975 233.35 122.987 233.35C129.296 233.35 135.004 229.295 135.004 221.646C135.004 211.539 116.72 201.375 112.772 186.534C109.015 201.363 90.5398 211.539 90.5398 221.646C90.5398 229.295 96.2479 233.35 102.556 233.35Z" fill="#DF0000"/>
<path d="M122.987 102.233C113.975 102.233 112.772 111.276 112.772 111.276C112.772 111.276 111.569 102.233 102.556 102.233C96.2479 102.233 90.5398 106.287 90.5398 113.937C90.5398 124.044 108.823 134.207 112.772 149.049C116.529 134.22 135.004 124.044 135.004 113.937C135.004 106.287 129.296 102.233 122.987 102.233Z" fill="#DF0000"/>
<path d="M94.4154 53.9641C85.403 53.9641 84.1997 63.0074 84.1997 63.0074C84.1997 63.0074 82.9964 53.9641 73.9841 53.9641C67.6757 53.9641 61.9677 58.0189 61.9677 65.6681C61.9677 75.7752 80.2512 85.9389 84.1997 100.78C87.957 85.9514 106.432 75.7752 106.432 65.6681C106.432 58.0189 100.724 53.9641 94.4154 53.9641Z" fill="#DF0000"/>
<path d="M73.5192 186.783C82.5315 186.783 83.7349 177.74 83.7349 177.74C83.7349 177.74 84.9382 186.783 93.9505 186.783C100.259 186.783 105.967 182.728 105.967 175.079C105.967 164.972 87.6834 154.808 83.7349 139.967C79.9776 154.796 61.5028 164.972 61.5028 175.079C61.5028 182.728 67.2109 186.783 73.5192 186.783Z" fill="#DF0000"/>
</g>
<defs>
<clipPath id="clip0">
<rect x="0.521484" y="0.667053" width="167.087" height="242.667" fill="white"/>
</clipPath>
</defs>
</svg>
