<svg width="168" height="244" viewBox="0 0 168 244" fill="none" xmlns="http://www.w3.org/2000/svg">
<g clip-path="url(#clip0)">
<path d="M167.445 236.215C167.445 239.992 164.358 243.084 160.574 243.084H7.71924C3.94434 243.084 0.858398 239.992 0.858398 236.215V7.78717C0.858398 4.00983 3.94434 0.917053 7.71924 0.917053H160.574C164.358 0.917053 167.445 4.00983 167.445 7.78717V236.215V236.215Z" fill="white" stroke="black" stroke-width="0.5"/>
<path d="M23.9407 32.9495C18.5109 32.9495 17.7859 38.3979 17.7859 38.3979C17.7859 38.3979 17.061 32.9495 11.6312 32.9495C7.83051 32.9495 4.39148 35.3924 4.39148 40.0009C4.39148 46.0903 15.407 52.2138 17.7859 61.1553C20.0496 52.2213 31.1804 46.0903 31.1804 40.0009C31.1804 35.3924 27.7414 32.9495 23.9407 32.9495Z" fill="#DF0000"/>
<path d="M144.61 209.913C150.039 209.913 150.764 204.465 150.764 204.465C150.764 204.465 151.489 209.913 156.919 209.913C160.72 209.913 164.159 207.47 164.159 202.862C164.159 196.772 153.143 190.649 150.764 181.707C148.501 190.641 137.37 196.772 137.37 202.862C137.37 207.47 140.809 209.913 144.61 209.913Z" fill="#DF0000"/>
<path d="M65.3363 7.26282C56.3239 7.26282 55.1206 16.3061 55.1206 16.3061C55.1206 16.3061 53.9173 7.26282 44.905 7.26282C38.5966 7.26282 32.8885 11.3176 32.8885 18.9668C32.8885 29.0739 51.1721 39.2376 55.1206 54.0788C58.8779 39.2501 77.3527 29.0739 77.3527 18.9668C77.3527 11.3176 71.6446 7.26282 65.3363 7.26282Z" fill="#DF0000"/>
<path d="M44.9051 236.881C53.9174 236.881 55.1207 227.838 55.1207 227.838C55.1207 227.838 56.324 236.881 65.3364 236.881C71.6447 236.881 77.3528 232.826 77.3528 225.177C77.3528 215.07 59.0693 204.906 55.1207 190.065C51.3635 204.894 32.8887 215.07 32.8887 225.177C32.8887 232.826 38.5967 236.881 44.9051 236.881Z" fill="#DF0000"/>
<path d="M65.3363 72.4977C56.3239 72.4977 55.1206 81.541 55.1206 81.541C55.1206 81.541 53.9173 72.4977 44.905 72.4977C38.5966 72.4977 32.8885 76.5525 32.8885 84.2017C32.8885 94.3087 51.1721 104.473 55.1206 119.314C58.8779 104.485 77.3527 94.3087 77.3527 84.2017C77.3527 76.5525 71.6446 72.4977 65.3363 72.4977Z" fill="#DF0000"/>
<path d="M44.9051 169.431C53.9174 169.431 55.1207 160.388 55.1207 160.388C55.1207 160.388 56.324 169.431 65.3364 169.431C71.6447 169.431 77.3528 165.376 77.3528 157.727C77.3528 147.62 59.0693 137.456 55.1207 122.615C51.3635 137.444 32.8887 147.62 32.8887 157.727C32.8887 165.376 38.5967 169.431 44.9051 169.431Z" fill="#DF0000"/>
<path d="M122.815 7.86163C113.803 7.86163 112.599 16.9049 112.599 16.9049C112.599 16.9049 111.396 7.86163 102.384 7.86163C96.0753 7.86163 90.3672 11.9164 90.3672 19.5656C90.3672 29.6727 108.651 39.8365 112.599 54.6776C116.356 39.8489 134.831 29.6727 134.831 19.5656C134.831 11.9164 129.123 7.86163 122.815 7.86163Z" fill="#DF0000"/>
<path d="M102.384 237.48C111.396 237.48 112.599 228.437 112.599 228.437C112.599 228.437 113.803 237.48 122.815 237.48C129.123 237.48 134.831 233.425 134.831 225.776C134.831 215.669 116.548 205.505 112.599 190.664C108.842 205.493 90.3672 215.669 90.3672 225.776C90.3672 233.425 96.0752 237.48 102.384 237.48Z" fill="#DF0000"/>
<path d="M122.815 73.0964C113.803 73.0964 112.599 82.1397 112.599 82.1397C112.599 82.1397 111.396 73.0964 102.384 73.0964C96.0753 73.0964 90.3672 77.1512 90.3672 84.8004C90.3672 94.9075 108.651 105.071 112.599 119.912C116.356 105.084 134.831 94.9075 134.831 84.8004C134.831 77.1512 129.123 73.0964 122.815 73.0964Z" fill="#DF0000"/>
<path d="M102.384 170.03C111.396 170.03 112.599 160.987 112.599 160.987C112.599 160.987 113.803 170.03 122.815 170.03C129.123 170.03 134.831 165.975 134.831 158.326C134.831 148.219 116.548 138.055 112.599 123.214C108.842 138.043 90.3672 148.219 90.3672 158.326C90.3672 165.975 96.0752 170.03 102.384 170.03Z" fill="#DF0000"/>
<path d="M94.0374 39.9636C85.0251 39.9636 83.8218 49.0069 83.8218 49.0069C83.8218 49.0069 82.6185 39.9636 73.6062 39.9636C67.2978 39.9636 61.5897 44.0184 61.5897 51.6676C61.5897 61.7747 79.8732 71.9384 83.8218 86.7796C87.579 71.9509 106.054 61.7747 106.054 51.6676C106.054 44.0184 100.346 39.9636 94.0374 39.9636Z" fill="#DF0000"/>
<path d="M22.321 16.6802C21.7169 17.399 20.9929 17.9771 20.1492 18.4146C19.3158 18.8521 18.3992 19.0709 17.3992 19.0709C16.0867 19.0709 14.9408 18.7479 13.9617 18.1021C12.9929 17.4563 12.2429 16.55 11.7117 15.3834C11.1804 14.2063 10.9148 12.9094 10.9148 11.4927C10.9148 9.9719 11.2013 8.60211 11.7742 7.38336C12.3575 6.16461 13.1804 5.23232 14.2429 4.58649C15.3054 3.94065 16.545 3.61774 17.9617 3.61774C20.2117 3.61774 21.9825 4.46149 23.2742 6.14899C24.5763 7.82607 25.2273 10.1177 25.2273 13.024V13.8677C25.2273 18.2948 24.3523 21.5292 22.6023 23.5709C20.8523 25.6021 18.2117 26.6438 14.6804 26.6959H14.1179V24.2584H14.7273C17.1127 24.2167 18.946 23.5969 20.2273 22.399C21.5085 21.1907 22.2065 19.2844 22.321 16.6802ZM17.8679 16.6802C18.8367 16.6802 19.7273 16.3834 20.5398 15.7896C21.3627 15.1959 21.9617 14.4615 22.3367 13.5865V12.4302C22.3367 10.5344 21.9252 8.99274 21.1023 7.80524C20.2794 6.61774 19.2377 6.02399 17.9773 6.02399C16.7065 6.02399 15.6856 6.51357 14.9148 7.49274C14.144 8.46149 13.7585 9.74274 13.7585 11.3365C13.7585 12.8886 14.1283 14.1698 14.8679 15.1802C15.6179 16.1802 16.6179 16.6802 17.8679 16.6802Z" fill="#DF0000"/>
<path d="M146.458 226.182C147.062 225.463 147.786 224.885 148.629 224.448C149.463 224.01 150.379 223.791 151.379 223.791C152.692 223.791 153.838 224.114 154.817 224.76C155.786 225.406 156.536 226.312 157.067 227.479C157.598 228.656 157.864 229.953 157.864 231.37C157.864 232.89 157.577 234.26 157.004 235.479C156.421 236.698 155.598 237.63 154.536 238.276C153.473 238.922 152.234 239.245 150.817 239.245C148.567 239.245 146.796 238.401 145.504 236.713C144.202 235.036 143.551 232.745 143.551 229.838V228.995C143.551 224.567 144.426 221.333 146.176 219.291C147.926 217.26 150.567 216.218 154.098 216.166H154.661V218.604H154.051C151.666 218.646 149.833 219.265 148.551 220.463C147.27 221.672 146.572 223.578 146.458 226.182ZM150.911 226.182C149.942 226.182 149.051 226.479 148.239 227.073C147.416 227.666 146.817 228.401 146.442 229.276V230.432C146.442 232.328 146.853 233.87 147.676 235.057C148.499 236.245 149.541 236.838 150.801 236.838C152.072 236.838 153.093 236.349 153.864 235.37C154.635 234.401 155.02 233.12 155.02 231.526C155.02 229.974 154.65 228.692 153.911 227.682C153.161 226.682 152.161 226.182 150.911 226.182Z" fill="#DF0000"/>
</g>
<defs>
<clipPath id="clip0">
<rect x="0.608398" y="0.667053" width="167.087" height="242.667" fill="white"/>
</clipPath>
</defs>
</svg>
