<svg width="168" height="244" viewBox="0 0 168 244" fill="none" xmlns="http://www.w3.org/2000/svg">
<g clip-path="url(#clip0)">
<path d="M166.88 236.215C166.88 239.992 163.793 243.084 160.009 243.084H7.15381C3.37891 243.084 0.292969 239.992 0.292969 236.215V7.78717C0.292969 4.00983 3.37891 0.917053 7.15381 0.917053H160.009C163.793 0.917053 166.88 4.00983 166.88 7.78717V236.215V236.215Z" fill="white" stroke="black" stroke-width="0.5"/>
<path d="M21.4917 20.7429H11.9604L9.81982 26.6804H6.72607L15.4136 3.93036H18.0386L26.7417 26.6804H23.6636L21.4917 20.7429ZM12.8667 18.2741H20.6011L16.7261 7.63348L12.8667 18.2741Z" fill="#DF0000"/>
<path d="M108.276 65.4475C86.1401 65.4475 83.1846 87.659 83.1846 87.659C83.1846 87.659 80.2292 65.4475 58.0937 65.4475C42.5996 65.4475 28.5798 75.4066 28.5798 94.194C28.5798 119.018 73.4865 143.982 83.1846 180.434C92.4129 144.012 137.789 119.018 137.789 94.194C137.789 75.4066 123.77 65.4475 108.276 65.4475Z" fill="#DF0000"/>
<path d="M23.3751 32.9495C17.9454 32.9495 17.2204 38.3979 17.2204 38.3979C17.2204 38.3979 16.4954 32.9495 11.0656 32.9495C7.26495 32.9495 3.82593 35.3924 3.82593 40.0009C3.82593 46.0903 14.8414 52.2138 17.2204 61.1553C19.4841 52.2213 30.6148 46.0903 30.6148 40.0009C30.6148 35.3924 27.1758 32.9495 23.3751 32.9495Z" fill="#DF0000"/>
<path d="M145.928 222.12H155.459L157.6 216.182H160.693L152.006 238.932H149.381L140.678 216.182H143.756L145.928 222.12ZM154.553 224.589H146.818L150.693 235.229L154.553 224.589Z" fill="#DF0000"/>
<path d="M144.044 209.913C149.474 209.913 150.199 204.465 150.199 204.465C150.199 204.465 150.924 209.913 156.354 209.913C160.154 209.913 163.594 207.47 163.594 202.862C163.594 196.772 152.578 190.649 150.199 181.707C147.935 190.641 136.805 196.772 136.805 202.862C136.805 207.47 140.244 209.913 144.044 209.913Z" fill="#DF0000"/>
</g>
<defs>
<clipPath id="clip0">
<rect x="0.0429688" y="0.667053" width="167.087" height="242.667" fill="white"/>
</clipPath>
</defs>
</svg>
