<svg width="168" height="243" viewBox="0 0 168 243" fill="none" xmlns="http://www.w3.org/2000/svg">
<g clip-path="url(#clip0)">
<path d="M167.532 235.882C167.532 239.659 164.445 242.751 160.661 242.751H7.80615C4.03125 242.751 0.945312 239.659 0.945312 235.882V7.4541C0.945312 3.67676 4.03125 0.583984 7.80615 0.583984H160.661C164.445 0.583984 167.532 3.67676 167.532 7.4541V235.882V235.882Z" fill="white" stroke="black" stroke-width="0.5"/>
<path d="M12.1295 26.676H9.22327V7.4104L3.39514 9.55103V6.92603L11.6764 3.81665H12.1295V26.676Z" fill="black"/>
<path d="M29.6765 49.68C29.3114 44.084 17.9894 33.5515 17.6243 30.917C17.2593 33.5501 5.93725 44.0827 5.57217 49.68C5.31722 53.6359 8.12924 55.2759 10.6863 55.2759C13.4548 55.2461 15.7414 51.4128 16.5291 50.6676C16.8942 51.6551 14.1108 59.8842 13.2419 59.8842H22.0083C21.1394 59.8842 18.356 51.6551 18.7211 50.6676C19.4107 51.3521 21.4322 55.1612 24.5654 55.2759C27.1209 55.2745 29.9314 53.6359 29.6765 49.68Z" fill="black"/>
<path d="M74.8665 39.6146C74.2255 29.7897 54.3472 11.2975 53.7062 6.672C53.0652 11.2951 33.1869 29.7873 32.5459 39.6146C32.0983 46.5601 37.0354 49.4395 41.5249 49.4395C46.3857 49.3873 50.4003 42.657 51.7833 41.3486C52.4243 43.0825 47.5374 57.5305 46.0118 57.5305H61.4033C59.8776 57.5305 54.9908 43.0825 55.6318 41.3486C56.8426 42.5505 60.3918 49.2381 65.8928 49.4395C70.3797 49.4371 75.3141 46.5601 74.8665 39.6146Z" fill="black"/>
<path d="M138.868 194.098C139.233 199.694 150.555 210.226 150.92 212.861C151.286 210.228 162.608 199.695 162.973 194.098C163.228 190.142 160.416 188.502 157.858 188.502C155.09 188.532 152.803 192.365 152.016 193.11C151.651 192.123 154.434 183.894 155.303 183.894H146.536C147.405 183.894 150.189 192.123 149.824 193.11C149.134 192.426 147.113 188.617 143.979 188.502C141.424 188.503 138.613 190.142 138.868 194.098Z" fill="black"/>
<path d="M75.1954 102.547C74.5544 92.7222 54.6761 74.23 54.0351 69.6045C53.3941 74.2276 33.5158 92.7198 32.8748 102.547C32.4272 109.493 37.3643 112.372 41.8538 112.372C46.7146 112.32 50.7292 105.59 52.1121 104.281C52.7531 106.015 47.8663 120.463 46.3407 120.463H61.7321C60.2065 120.463 55.3197 106.015 55.9607 104.281C57.1715 105.483 60.7207 112.171 66.2216 112.372C70.7085 112.37 75.643 109.493 75.1954 102.547Z" fill="black"/>
<path d="M33.3243 205.483C33.9653 215.308 53.8436 233.801 54.4846 238.426C55.1256 233.803 75.0039 215.311 75.6449 205.483C76.0925 198.538 71.1554 195.658 66.6659 195.658C61.8051 195.711 57.7905 202.441 56.4075 203.749C55.7665 202.015 60.6534 187.568 62.179 187.568H46.7875C48.3132 187.568 53.2 202.015 52.559 203.749C51.3482 202.548 47.799 195.86 42.298 195.658C37.8111 195.661 32.8767 198.538 33.3243 205.483Z" fill="black"/>
<path d="M32.9954 144.151C33.6364 153.976 53.5147 172.468 54.1557 177.094C54.7967 172.47 74.675 153.978 75.316 144.151C75.7636 137.205 70.8265 134.326 66.337 134.326C61.4762 134.378 57.4616 141.108 56.0787 142.417C55.4377 140.683 60.3245 126.235 61.8501 126.235H46.4587C47.9843 126.235 52.8711 140.683 52.2301 142.417C51.0193 141.215 47.4701 134.527 41.9691 134.326C37.4823 134.328 32.5478 137.205 32.9954 144.151Z" fill="black"/>
<path d="M136.834 39.4266C136.193 29.6017 116.314 11.1095 115.674 6.48401C115.033 11.1071 95.1542 29.5993 94.5132 39.4266C94.0656 46.3721 99.0027 49.2515 103.492 49.2515C108.353 49.1993 112.368 42.4691 113.751 41.1606C114.392 42.8945 109.505 57.3425 107.979 57.3425H123.371C121.845 57.3425 116.958 42.8945 117.599 41.1606C118.81 42.3625 122.359 49.0501 127.86 49.2515C132.347 49.2491 137.281 46.3721 136.834 39.4266Z" fill="black"/>
<path d="M137.163 102.359C136.522 92.5342 116.643 74.042 116.002 69.4165C115.361 74.0396 95.483 92.5318 94.8421 102.359C94.3944 109.305 99.3316 112.184 103.821 112.184C108.682 112.132 112.696 105.402 114.079 104.093C114.72 105.827 109.834 120.275 108.308 120.275H123.699C122.174 120.275 117.287 105.827 117.928 104.093C119.139 105.295 122.688 111.983 128.189 112.184C132.676 112.182 137.61 109.305 137.163 102.359Z" fill="black"/>
<path d="M95.2916 205.295C95.9325 215.12 115.811 233.613 116.452 238.238C117.093 233.615 136.971 215.123 137.612 205.295C138.06 198.35 133.123 195.471 128.633 195.471C123.772 195.523 119.758 202.253 118.375 203.561C117.734 201.828 122.621 187.38 124.146 187.38H108.755C110.28 187.38 115.167 201.828 114.526 203.561C113.315 202.36 109.766 195.672 104.265 195.471C99.7784 195.473 94.8439 198.35 95.2916 205.295Z" fill="black"/>
<path d="M94.9628 143.963C95.6038 153.788 115.482 172.28 116.123 176.906C116.764 172.282 136.642 153.79 137.283 143.963C137.731 137.017 132.794 134.138 128.304 134.138C123.444 134.19 119.429 140.92 118.046 142.229C117.405 140.495 122.292 126.047 123.818 126.047H108.426C109.952 126.047 114.839 140.495 114.198 142.229C112.987 141.027 109.438 134.339 103.937 134.138C99.4497 134.14 94.5152 137.017 94.9628 143.963Z" fill="black"/>
<path d="M106.008 72.0198C105.367 62.1949 85.4884 43.7026 84.8475 39.0771C84.2065 43.7002 64.3281 62.1924 63.6872 72.0198C63.2395 78.9653 68.1767 81.8447 72.6662 81.8447C77.5269 81.7924 81.5416 75.0622 82.9245 73.7537C83.5655 75.4877 78.6787 89.9356 77.153 89.9356H92.5445C91.0189 89.9356 86.1321 75.4877 86.773 73.7537C87.9839 74.9556 91.5331 81.6433 97.034 81.8447C101.521 81.8423 106.455 78.9653 106.008 72.0198Z" fill="black"/>
<path d="M64.0159 173.36C64.6569 183.185 84.5353 201.677 85.1762 206.302C85.8172 201.679 105.696 183.187 106.337 173.36C106.784 166.414 101.847 163.535 97.3575 163.535C92.4967 163.587 88.4821 170.317 87.0992 171.626C86.4582 169.892 91.345 155.444 92.8706 155.444H77.4792C79.0048 155.444 83.8916 169.892 83.2506 171.626C82.0398 170.424 78.4906 163.736 72.9897 163.535C68.5028 163.537 63.5683 166.414 64.0159 173.36Z" fill="black"/>
<path d="M29.0577 17.3016C29.0577 20.6871 28.4796 23.2027 27.3234 24.8485C26.1671 26.4943 24.3598 27.3173 21.9015 27.3173C19.4744 27.3173 17.6775 26.5152 16.5109 24.911C15.3442 23.2964 14.74 20.8902 14.6984 17.6923V13.8329C14.6984 10.4891 15.2765 8.00476 16.4327 6.37976C17.589 4.75476 19.4015 3.94226 21.8702 3.94226C24.3182 3.94226 26.1202 4.72872 27.2765 6.30164C28.4327 7.86414 29.0265 10.2808 29.0577 13.5516V17.3016ZM26.1671 13.3485C26.1671 10.9006 25.8234 9.11934 25.1359 8.00476C24.4484 6.87976 23.3598 6.31726 21.8702 6.31726C20.3911 6.31726 19.3129 6.87455 18.6359 7.98914C17.9588 9.10372 17.6098 10.8173 17.589 13.1298V17.7548C17.589 20.2131 17.9432 22.0308 18.6515 23.2079C19.3702 24.3746 20.4536 24.9579 21.9015 24.9579C23.3286 24.9579 24.3859 24.4058 25.0734 23.3016C25.7713 22.1975 26.1359 20.4579 26.1671 18.0829V13.3485Z" fill="black"/>
<path d="M156.141 216.917H159.048V236.182L164.876 234.042V236.667L156.594 239.776H156.141V216.917Z" fill="black"/>
<path d="M139.213 226.291C139.213 222.906 139.791 220.39 140.948 218.744C142.104 217.098 143.911 216.275 146.369 216.275C148.796 216.275 150.593 217.077 151.76 218.682C152.927 220.296 153.531 222.702 153.573 225.9V229.76C153.573 233.104 152.994 235.588 151.838 237.213C150.682 238.838 148.869 239.65 146.401 239.65C143.953 239.65 142.151 238.864 140.994 237.291C139.838 235.729 139.244 233.312 139.213 230.041V226.291ZM142.104 230.244C142.104 232.692 142.448 234.473 143.135 235.588C143.823 236.713 144.911 237.275 146.401 237.275C147.88 237.275 148.958 236.718 149.635 235.604C150.312 234.489 150.661 232.775 150.682 230.463V225.838C150.682 223.38 150.328 221.562 149.619 220.385C148.901 219.218 147.817 218.635 146.369 218.635C144.942 218.635 143.885 219.187 143.198 220.291C142.5 221.395 142.135 223.135 142.104 225.51V230.244Z" fill="black"/>
</g>
<defs>
<clipPath id="clip0">
<rect x="0.695312" y="0.333984" width="167.087" height="242.667" fill="white"/>
</clipPath>
</defs>
</svg>
