<svg width="168" height="243" viewBox="0 0 168 243" fill="none" xmlns="http://www.w3.org/2000/svg">
<g clip-path="url(#clip0)">
<path d="M166.837 235.882C166.837 239.659 163.75 242.751 159.966 242.751H7.1109C3.336 242.751 0.250061 239.659 0.250061 235.882V7.4541C0.250061 3.67676 3.336 0.583984 7.1109 0.583984H159.966C163.75 0.583984 166.837 3.67676 166.837 7.4541V235.882V235.882Z" fill="white" stroke="black" stroke-width="0.5"/>
<path d="M25.3436 26.3473H10.4374V24.2692L18.3124 15.5192C19.479 14.1962 20.2811 13.1233 20.7186 12.3004C21.1665 11.4671 21.3905 10.6077 21.3905 9.72229C21.3905 8.53479 21.0311 7.56083 20.3124 6.80042C19.5936 6.04 18.6353 5.65979 17.4374 5.65979C15.9999 5.65979 14.8801 6.07125 14.078 6.89417C13.2863 7.70667 12.8905 8.84208 12.8905 10.3004H9.99988C9.99988 8.20667 10.6718 6.51396 12.0155 5.22229C13.3697 3.93062 15.177 3.28479 17.4374 3.28479C19.552 3.28479 21.2238 3.84208 22.453 4.95667C23.6822 6.06083 24.2968 7.53479 24.2968 9.37854C24.2968 11.6181 22.8697 14.2848 20.0155 17.3785L13.9218 23.9879H25.3436V26.3473Z" fill="black"/>
<path d="M28.9813 49.68C28.6162 44.084 17.2942 33.5515 16.9291 30.917C16.564 33.5501 5.24203 44.0827 4.87695 49.68C4.622 53.6359 7.43402 55.2759 9.99109 55.2759C12.7596 55.2461 15.0462 51.4128 15.8339 50.6676C16.199 51.6551 13.4156 59.8842 12.5466 59.8842H21.3131C20.4441 59.8842 17.6608 51.6551 18.0259 50.6676C18.7155 51.3521 20.737 55.1612 23.8702 55.2759C26.4257 55.2745 29.2362 53.6359 28.9813 49.68Z" fill="black"/>
<path d="M104.571 65.2146C103.93 55.3897 84.0519 36.8975 83.411 32.272C82.77 36.895 62.8916 55.3873 62.2507 65.2146C61.803 72.1601 66.7402 75.0395 71.2297 75.0395C76.0905 74.9872 80.1051 68.257 81.488 66.9485C82.129 68.6825 77.2422 83.1305 75.7165 83.1305H91.108C89.5824 83.1305 84.6956 68.6825 85.3365 66.9485C86.5474 68.1504 90.0966 74.8381 95.5975 75.0395C100.084 75.0371 105.019 72.1601 104.571 65.2146Z" fill="black"/>
<path d="M142.181 217.458H157.087V219.536L149.212 228.286C148.046 229.609 147.243 230.682 146.806 231.505C146.358 232.338 146.134 233.198 146.134 234.083C146.134 235.271 146.493 236.244 147.212 237.005C147.931 237.765 148.889 238.146 150.087 238.146C151.525 238.146 152.644 237.734 153.447 236.911C154.238 236.099 154.634 234.963 154.634 233.505H157.525C157.525 235.599 156.853 237.291 155.509 238.583C154.155 239.875 152.348 240.521 150.087 240.521C147.973 240.521 146.301 239.963 145.072 238.849C143.842 237.744 143.228 236.271 143.228 234.427C143.228 232.187 144.655 229.521 147.509 226.427L153.603 219.817H142.181V217.458Z" fill="black"/>
<path d="M138.173 194.098C138.538 199.694 149.86 210.226 150.225 212.861C150.59 210.228 161.912 199.695 162.277 194.098C162.532 190.142 159.72 188.502 157.163 188.502C154.395 188.532 152.108 192.365 151.32 193.11C150.955 192.123 153.739 183.894 154.608 183.894H145.841C146.71 183.894 149.493 192.123 149.128 193.11C148.439 192.426 146.417 188.617 143.284 188.502C140.729 188.503 137.918 190.142 138.173 194.098Z" fill="black"/>
<path d="M62.2959 178.591C62.9369 188.416 82.8152 206.908 83.4562 211.533C84.0972 206.91 103.976 188.418 104.616 178.591C105.064 171.645 100.127 168.766 95.6375 168.766C90.7767 168.818 86.7621 175.548 85.3791 176.857C84.7382 175.123 89.625 160.675 91.1506 160.675H75.7591C77.2848 160.675 82.1716 175.123 81.5306 176.857C80.3198 175.655 76.7706 168.967 71.2696 168.766C66.7828 168.768 61.8483 171.645 62.2959 178.591Z" fill="black"/>
</g>
<defs>
<clipPath id="clip0">
<rect x="6.10352e-05" y="0.333984" width="167.087" height="242.667" fill="white"/>
</clipPath>
</defs>
</svg>
