<svg width="168" height="243" viewBox="0 0 168 243" fill="none" xmlns="http://www.w3.org/2000/svg">
<g clip-path="url(#clip0)">
<path d="M166.924 235.882C166.924 239.659 163.837 242.751 160.053 242.751H7.19781C3.42291 242.751 0.336975 239.659 0.336975 235.882V7.4541C0.336975 3.67676 3.42291 0.583984 7.19781 0.583984H160.053C163.837 0.583984 166.924 3.67676 166.924 7.4541V235.882V235.882Z" fill="white" stroke="black" stroke-width="0.5"/>
<path d="M14.7274 13.566H16.8993C18.2639 13.5452 19.3368 13.1858 20.118 12.4879C20.8993 11.79 21.2899 10.8473 21.2899 9.65979C21.2899 6.99312 19.9618 5.65979 17.3055 5.65979C16.0555 5.65979 15.0555 6.01917 14.3055 6.73792C13.566 7.44625 13.1962 8.38896 13.1962 9.56604H10.3055C10.3055 7.76396 10.9618 6.26917 12.2743 5.08167C13.5972 3.88375 15.2743 3.28479 17.3055 3.28479C19.4514 3.28479 21.1337 3.8525 22.3524 4.98792C23.5712 6.12333 24.1805 7.70146 24.1805 9.72229C24.1805 10.7119 23.8576 11.6702 23.2118 12.5973C22.5764 13.5244 21.7066 14.2171 20.6024 14.6754C21.8524 15.0712 22.816 15.7275 23.493 16.6442C24.1805 17.5608 24.5243 18.6806 24.5243 20.0035C24.5243 22.0452 23.8576 23.665 22.5243 24.8629C21.191 26.0608 19.4566 26.6598 17.3212 26.6598C15.1858 26.6598 13.4462 26.0817 12.1024 24.9254C10.7691 23.7692 10.1024 22.2431 10.1024 20.3473H13.0087C13.0087 21.5452 13.3993 22.5035 14.1805 23.2223C14.9618 23.941 16.0087 24.3004 17.3212 24.3004C18.717 24.3004 19.7847 23.9358 20.5243 23.2067C21.2639 22.4775 21.6337 21.4306 21.6337 20.066C21.6337 18.7431 21.2274 17.7275 20.4149 17.0192C19.6024 16.3108 18.4305 15.9462 16.8993 15.9254H14.7274V13.566Z" fill="black"/>
<path d="M29.0682 49.68C28.7032 44.084 17.3812 33.5515 17.0161 30.917C16.651 33.5501 5.32901 44.0827 4.96393 49.68C4.70897 53.6359 7.52099 55.2759 10.0781 55.2759C12.8466 55.2461 15.1332 51.4128 15.9208 50.6676C16.2859 51.6551 13.5026 59.8842 12.6336 59.8842H21.4001C20.5311 59.8842 17.7478 51.6551 18.1128 50.6676C18.8025 51.3521 20.824 55.1612 23.9571 55.2759C26.5127 55.2745 29.3232 53.6359 29.0682 49.68Z" fill="black"/>
<path d="M104.658 57.2146C104.017 47.3897 84.1388 28.8975 83.4978 24.272C82.8569 28.895 62.9785 47.3873 62.3375 57.2146C61.8899 64.1601 66.8271 67.0395 71.3166 67.0395C76.1773 66.9872 80.1919 60.257 81.5749 58.9485C82.2159 60.6825 77.3291 75.1305 75.8034 75.1305H91.1949C89.6693 75.1305 84.7825 60.6825 85.4234 58.9485C86.6343 60.1504 90.1834 66.8381 95.6844 67.0395C100.171 67.0371 105.106 64.1601 104.658 57.2146Z" fill="black"/>
<path d="M152.971 230.239H150.799C149.434 230.26 148.362 230.619 147.58 231.317C146.799 232.015 146.408 232.958 146.408 234.146C146.408 236.812 147.737 238.146 150.393 238.146C151.643 238.146 152.643 237.786 153.393 237.067C154.132 236.359 154.502 235.416 154.502 234.239H157.393C157.393 236.041 156.737 237.536 155.424 238.724C154.101 239.922 152.424 240.521 150.393 240.521C148.247 240.521 146.565 239.953 145.346 238.817C144.127 237.682 143.518 236.104 143.518 234.083C143.518 233.093 143.841 232.135 144.487 231.208C145.122 230.281 145.992 229.588 147.096 229.13C145.846 228.734 144.882 228.078 144.205 227.161C143.518 226.244 143.174 225.125 143.174 223.802C143.174 221.76 143.841 220.14 145.174 218.942C146.507 217.744 148.242 217.146 150.377 217.146C152.513 217.146 154.252 217.724 155.596 218.88C156.929 220.036 157.596 221.562 157.596 223.458H154.69C154.69 222.26 154.299 221.302 153.518 220.583C152.737 219.864 151.69 219.505 150.377 219.505C148.981 219.505 147.914 219.869 147.174 220.599C146.434 221.328 146.065 222.375 146.065 223.739C146.065 225.062 146.471 226.078 147.283 226.786C148.096 227.494 149.268 227.859 150.799 227.88H152.971V230.239Z" fill="black"/>
<path d="M138.26 194.098C138.625 199.694 149.947 210.226 150.312 212.861C150.677 210.228 161.999 199.695 162.364 194.098C162.619 190.142 159.807 188.502 157.25 188.502C154.482 188.532 152.195 192.365 151.407 193.11C151.042 192.123 153.826 183.894 154.695 183.894H145.928C146.797 183.894 149.58 192.123 149.215 193.11C148.526 192.426 146.504 188.617 143.371 188.502C140.815 188.503 138.005 190.142 138.26 194.098Z" fill="black"/>
<path d="M62.3828 186.591C63.0238 196.416 82.9021 214.908 83.5431 219.533C84.1841 214.91 104.062 196.418 104.703 186.591C105.151 179.645 100.214 176.766 95.7244 176.766C90.8636 176.818 86.849 183.548 85.4661 184.857C84.8251 183.123 89.7119 168.675 91.2375 168.675H75.8461C77.3717 168.675 82.2585 183.123 81.6175 184.857C80.4067 183.655 76.8575 176.967 71.3565 176.766C66.8697 176.768 61.9352 179.645 62.3828 186.591Z" fill="black"/>
<path d="M104.742 126.916C104.101 117.091 84.2227 98.5987 83.5817 93.9733C82.9407 98.5963 63.0624 117.089 62.4214 126.916C61.9738 133.861 66.9109 136.741 71.4004 136.741C76.2612 136.689 80.2758 129.958 81.6588 128.65C82.2997 130.384 77.4129 144.832 75.8873 144.832H91.2788C89.7531 144.832 84.8663 130.384 85.5073 128.65C86.7181 129.852 90.2673 136.539 95.7683 136.741C100.255 136.738 105.19 133.861 104.742 126.916Z" fill="black"/>
</g>
<defs>
<clipPath id="clip0">
<rect x="0.0869751" y="0.333984" width="167.087" height="242.667" fill="white"/>
</clipPath>
</defs>
</svg>
