<svg width="168" height="243" viewBox="0 0 168 243" fill="none" xmlns="http://www.w3.org/2000/svg">
<g clip-path="url(#clip0)">
<path d="M167.011 235.882C167.011 239.659 163.924 242.751 160.14 242.751H7.28473C3.50983 242.751 0.423889 239.659 0.423889 235.882V7.4541C0.423889 3.67676 3.50983 0.583984 7.28473 0.583984H160.14C163.924 0.583984 167.011 3.67676 167.011 7.4541V235.882V235.882Z" fill="white" stroke="black" stroke-width="0.5"/>
<path d="M22.8143 18.7067H25.9706V21.066H22.8143V26.3473H19.9081V21.066H9.54871V19.3629L19.7362 3.59729H22.8143V18.7067ZM12.83 18.7067H19.9081V7.55042L19.5643 8.17542L12.83 18.7067Z" fill="black"/>
<path d="M29.1551 49.68C28.79 44.084 17.468 33.5515 17.1029 30.917C16.7378 33.5501 5.41583 44.0827 5.05075 49.68C4.7958 53.6359 7.60782 55.2759 10.1649 55.2759C12.9334 55.2461 15.22 51.4128 16.0077 50.6676C16.3728 51.6551 13.5894 59.8842 12.7204 59.8842H21.4869C20.6179 59.8842 17.8346 51.6551 18.1997 50.6676C18.8893 51.3521 20.9108 55.1612 24.044 55.2759C26.5995 55.2745 29.41 53.6359 29.1551 49.68Z" fill="black"/>
<path d="M75.9451 65.2146C75.3041 55.3897 55.4257 36.8975 54.7848 32.272C54.1438 36.895 34.2655 55.3873 33.6245 65.2146C33.1768 72.1601 38.114 75.0395 42.6035 75.0395C47.4643 74.9872 51.4789 68.257 52.8618 66.9485C53.5028 68.6825 48.616 83.1305 47.0904 83.1305H62.4818C60.9562 83.1305 56.0694 68.6825 56.7104 66.9485C57.9212 68.1504 61.4704 74.8381 66.9713 75.0395C71.4582 75.0371 76.3927 72.1601 75.9451 65.2146Z" fill="black"/>
<path d="M145.058 225.099H141.902V222.739H145.058V217.458H147.964V222.739H158.323V224.442L148.136 240.208H145.058V225.099ZM155.042 225.099H147.964V236.255L148.308 235.63L155.042 225.099Z" fill="black"/>
<path d="M138.347 194.098C138.712 199.694 150.034 210.226 150.399 212.861C150.764 210.228 162.086 199.695 162.451 194.098C162.706 190.142 159.894 188.502 157.337 188.502C154.568 188.532 152.282 192.365 151.494 193.11C151.129 192.123 153.912 183.894 154.781 183.894H146.015C146.884 183.894 149.667 192.123 149.302 193.11C148.613 192.426 146.591 188.617 143.458 188.502C140.902 188.503 138.092 190.142 138.347 194.098Z" fill="black"/>
<path d="M33.6697 178.591C34.3107 188.416 54.1891 206.908 54.83 211.533C55.471 206.91 75.3494 188.418 75.9903 178.591C76.438 171.645 71.5008 168.766 67.0113 168.766C62.1505 168.818 58.1359 175.548 56.753 176.857C56.112 175.123 60.9988 160.675 62.5245 160.675H47.133C48.6586 160.675 53.5454 175.123 52.9045 176.857C51.6936 175.655 48.1444 168.967 42.6435 168.766C38.1566 168.768 33.2221 171.645 33.6697 178.591Z" fill="black"/>
<path d="M134.022 65.2029C133.381 55.378 113.503 36.8857 112.862 32.2603C112.221 36.8833 92.3425 55.3755 91.7016 65.2029C91.2539 72.1484 96.1911 75.0278 100.681 75.0278C105.541 74.9755 109.556 68.2453 110.939 66.9368C111.58 68.6708 106.693 83.1187 105.167 83.1187H120.559C119.033 83.1187 114.146 68.6708 114.787 66.9368C115.998 68.1387 119.547 74.8264 125.048 75.0278C129.535 75.0254 134.47 72.1484 134.022 65.2029Z" fill="black"/>
<path d="M91.7468 178.579C92.3878 188.404 112.266 206.896 112.907 211.522C113.548 206.899 133.426 188.406 134.067 178.579C134.515 171.634 129.578 168.754 125.088 168.754C120.228 168.806 116.213 175.537 114.83 176.845C114.189 175.111 119.076 160.663 120.602 160.663H105.21C106.736 160.663 111.623 175.111 110.982 176.845C109.771 175.643 106.222 168.956 100.721 168.754C96.2337 168.757 91.2992 171.634 91.7468 178.579Z" fill="black"/>
</g>
<defs>
<clipPath id="clip0">
<rect x="0.173889" y="0.333984" width="167.087" height="242.667" fill="white"/>
</clipPath>
</defs>
</svg>
