<svg width="168" height="243" viewBox="0 0 168 243" fill="none" xmlns="http://www.w3.org/2000/svg">
<g clip-path="url(#clip0)">
<path d="M167.098 235.882C167.098 239.659 164.011 242.751 160.227 242.751H7.37164C3.59674 242.751 0.510803 239.659 0.510803 235.882V7.4541C0.510803 3.67676 3.59674 0.583984 7.37164 0.583984H160.227C164.011 0.583984 167.098 3.67676 167.098 7.4541V235.882V235.882Z" fill="white" stroke="black" stroke-width="0.5"/>
<path d="M12.0262 14.941L13.1825 3.59729H24.8387V6.26917H15.6356L14.9481 12.4723C16.0627 11.816 17.3283 11.4879 18.745 11.4879C20.8179 11.4879 22.4637 12.1754 23.6825 13.5504C24.9012 14.915 25.5106 16.764 25.5106 19.0973C25.5106 21.441 24.8752 23.29 23.6044 24.6442C22.344 25.9879 20.5783 26.6598 18.3075 26.6598C16.2971 26.6598 14.6565 26.1025 13.3856 24.9879C12.1148 23.8733 11.3908 22.3317 11.2137 20.3629H13.9481C14.1252 21.665 14.5887 22.6494 15.3387 23.316C16.0887 23.9723 17.0783 24.3004 18.3075 24.3004C19.6512 24.3004 20.7033 23.8421 21.4637 22.9254C22.2346 22.0087 22.62 20.7431 22.62 19.1285C22.62 17.6077 22.2033 16.389 21.37 15.4723C20.5471 14.5452 19.4481 14.0817 18.0731 14.0817C16.8127 14.0817 15.8231 14.3577 15.1044 14.9098L14.3387 15.5348L12.0262 14.941Z" fill="black"/>
<path d="M29.242 49.68C28.877 44.084 17.555 33.5515 17.1899 30.917C16.8248 33.5501 5.5028 44.0827 5.13772 49.68C4.88277 53.6359 7.69479 55.2759 10.2519 55.2759C13.0204 55.2461 15.307 51.4128 16.0946 50.6676C16.4597 51.6551 13.6764 59.8842 12.8074 59.8842H21.5739C20.7049 59.8842 17.9216 51.6551 18.2866 50.6676C18.9763 51.3521 20.9978 55.1612 24.1309 55.2759C26.6865 55.2745 29.497 53.6359 29.242 49.68Z" fill="black"/>
<path d="M77.632 57.2146C76.991 47.3897 57.1127 28.8975 56.4717 24.272C55.8307 28.895 35.9524 47.3873 35.3114 57.2146C34.8638 64.1601 39.8009 67.0395 44.2904 67.0395C49.1512 66.9872 53.1658 60.257 54.5488 58.9485C55.1898 60.6825 50.3029 75.1305 48.7773 75.1305H64.1688C62.6431 75.1305 57.7563 60.6825 58.3973 58.9485C59.6081 60.1504 63.1573 66.8381 68.6583 67.0395C73.1452 67.0371 78.0796 64.1601 77.632 57.2146Z" fill="black"/>
<path d="M156.02 228.864L154.864 240.208H143.207V237.536H152.41L153.098 231.333C151.983 231.989 150.718 232.317 149.301 232.317C147.228 232.317 145.582 231.63 144.364 230.255C143.145 228.89 142.535 227.041 142.535 224.708C142.535 222.364 143.171 220.515 144.442 219.161C145.702 217.817 147.468 217.146 149.739 217.146C151.749 217.146 153.39 217.703 154.66 218.817C155.931 219.932 156.655 221.474 156.832 223.442H154.098C153.921 222.14 153.457 221.156 152.707 220.489C151.957 219.833 150.968 219.505 149.739 219.505C148.395 219.505 147.343 219.963 146.582 220.88C145.811 221.797 145.426 223.062 145.426 224.677C145.426 226.198 145.843 227.416 146.676 228.333C147.499 229.26 148.598 229.724 149.973 229.724C151.233 229.724 152.223 229.448 152.942 228.896L153.707 228.271L156.02 228.864Z" fill="black"/>
<path d="M138.434 194.098C138.799 199.694 150.121 210.226 150.486 212.861C150.851 210.228 162.173 199.695 162.538 194.098C162.793 190.142 159.981 188.502 157.424 188.502C154.655 188.532 152.369 192.365 151.581 193.11C151.216 192.123 153.999 183.894 154.868 183.894H146.102C146.971 183.894 149.754 192.123 149.389 193.11C148.699 192.426 146.678 188.617 143.545 188.502C140.989 188.503 138.179 190.142 138.434 194.098Z" fill="black"/>
<path d="M35.3566 186.591C35.9976 196.416 55.8759 214.908 56.5169 219.533C57.1579 214.91 77.0362 196.418 77.6772 186.591C78.1249 179.645 73.1877 176.766 68.6982 176.766C63.8374 176.818 59.8228 183.548 58.4399 184.857C57.7989 183.123 62.6857 168.675 64.2113 168.675H48.8199C50.3455 168.675 55.2323 183.123 54.5913 184.857C53.3805 183.655 49.8313 176.967 44.3304 176.766C39.8435 176.768 34.909 179.645 35.3566 186.591Z" fill="black"/>
<path d="M104.916 126.916C104.275 117.091 84.3965 98.5987 83.7555 93.9733C83.1146 98.5963 63.2362 117.089 62.5952 126.916C62.1476 133.861 67.0847 136.741 71.5743 136.741C76.435 136.689 80.4496 129.958 81.8326 128.65C82.4736 130.384 77.5868 144.832 76.0611 144.832H91.4526C89.927 144.832 85.0401 130.384 85.6811 128.65C86.892 129.852 90.4411 136.539 95.9421 136.741C100.429 136.738 105.363 133.861 104.916 126.916Z" fill="black"/>
<path d="M131.352 57.3442C130.711 47.5193 110.833 29.0271 110.192 24.4016C109.551 29.0247 89.6724 47.5169 89.0315 57.3442C88.5838 64.2897 93.521 67.1691 98.0105 67.1691C102.871 67.1169 106.886 60.3867 108.269 59.0782C108.91 60.8121 104.023 75.2601 102.497 75.2601H117.889C116.363 75.2601 111.476 60.8121 112.117 59.0782C113.328 60.2801 116.877 66.9677 122.378 67.1691C126.865 67.1667 131.8 64.2897 131.352 57.3442Z" fill="black"/>
<path d="M89.0767 186.72C89.7177 196.545 109.596 215.037 110.237 219.663C110.878 215.04 130.756 196.548 131.397 186.72C131.845 179.775 126.908 176.895 122.418 176.895C117.558 176.948 113.543 183.678 112.16 184.986C111.519 183.252 116.406 168.804 117.931 168.804H102.54C104.066 168.804 108.952 183.252 108.311 184.986C107.101 183.784 103.551 177.097 98.0504 176.895C93.5636 176.898 88.6291 179.775 89.0767 186.72Z" fill="black"/>
</g>
<defs>
<clipPath id="clip0">
<rect x="0.260803" y="0.333984" width="167.087" height="242.667" fill="white"/>
</clipPath>
</defs>
</svg>
