<svg width="168" height="243" viewBox="0 0 168 243" fill="none" xmlns="http://www.w3.org/2000/svg">
<g clip-path="url(#clip0)">
<path d="M167.185 235.882C167.185 239.659 164.098 242.751 160.314 242.751H7.45856C3.68365 242.751 0.597717 239.659 0.597717 235.882V7.4541C0.597717 3.67676 3.68365 0.583984 7.45856 0.583984H160.314C164.098 0.583984 167.185 3.67676 167.185 7.4541V235.882V235.882Z" fill="white" stroke="black" stroke-width="0.5"/>
<path d="M22.1288 3.58167V6.03479H21.5975C19.3475 6.07646 17.5559 6.74312 16.2225 8.03479C14.8892 9.32646 14.1184 11.1442 13.91 13.4879C15.108 12.1129 16.7434 11.4254 18.8163 11.4254C20.7955 11.4254 22.3736 12.1233 23.5507 13.5192C24.7382 14.915 25.3319 16.7171 25.3319 18.9254C25.3319 21.2692 24.6913 23.1442 23.41 24.5504C22.1392 25.9567 20.4309 26.6598 18.285 26.6598C16.108 26.6598 14.3423 25.8265 12.9882 24.1598C11.634 22.4827 10.9569 20.3265 10.9569 17.691V16.5817C10.9569 12.3942 11.8475 9.19625 13.6288 6.98792C15.4205 4.76917 18.0819 3.63375 21.6132 3.58167H22.1288ZM18.3319 13.8317C17.3423 13.8317 16.4309 14.1285 15.5975 14.7223C14.7642 15.316 14.1861 16.0608 13.8632 16.9567V18.0192C13.8632 19.8942 14.285 21.4046 15.1288 22.5504C15.9725 23.6962 17.0246 24.2692 18.285 24.2692C19.5871 24.2692 20.608 23.79 21.3475 22.8317C22.0975 21.8733 22.4725 20.6181 22.4725 19.066C22.4725 17.5035 22.0923 16.2431 21.3319 15.2848C20.5819 14.316 19.5819 13.8317 18.3319 13.8317Z" fill="black"/>
<path d="M29.329 49.68C28.9639 44.084 17.6419 33.5515 17.2768 30.917C16.9117 33.5501 5.58972 44.0827 5.22464 49.68C4.96969 53.6359 7.78171 55.2759 10.3388 55.2759C13.1073 55.2461 15.3939 51.4128 16.1816 50.6676C16.5466 51.6551 13.7633 59.8842 12.8943 59.8842H21.6608C20.7918 59.8842 18.0085 51.6551 18.3735 50.6676C19.0632 51.3521 21.0847 55.1612 24.2178 55.2759C26.7734 55.2745 29.5839 53.6359 29.329 49.68Z" fill="black"/>
<path d="M77.7189 57.2146C77.0779 47.3897 57.1996 28.8975 56.5586 24.272C55.9177 28.895 36.0393 47.3873 35.3983 57.2146C34.9507 64.1601 39.8878 67.0395 44.3774 67.0395C49.2381 66.9872 53.2527 60.257 54.6357 58.9485C55.2767 60.6825 50.3899 75.1305 48.8642 75.1305H64.2557C62.7301 75.1305 57.8432 60.6825 58.4842 58.9485C59.6951 60.1504 63.2442 66.8381 68.7452 67.0395C73.2321 67.0371 78.1666 64.1601 77.7189 57.2146Z" fill="black"/>
<path d="M146.091 240.224V237.771H146.622C148.872 237.729 150.664 237.062 151.997 235.771C153.331 234.479 154.101 232.661 154.31 230.317C153.112 231.692 151.476 232.38 149.404 232.38C147.424 232.38 145.846 231.682 144.669 230.286C143.482 228.89 142.888 227.088 142.888 224.88C142.888 222.536 143.529 220.661 144.81 219.255C146.081 217.849 147.789 217.146 149.935 217.146C152.112 217.146 153.878 217.979 155.232 219.646C156.586 221.323 157.263 223.479 157.263 226.114V227.224C157.263 231.411 156.372 234.609 154.591 236.817C152.799 239.036 150.138 240.172 146.607 240.224H146.091ZM149.888 229.974C150.878 229.974 151.789 229.677 152.622 229.083C153.456 228.489 154.034 227.744 154.357 226.849V225.786C154.357 223.911 153.935 222.401 153.091 221.255C152.247 220.109 151.195 219.536 149.935 219.536C148.633 219.536 147.612 220.015 146.872 220.974C146.122 221.932 145.747 223.187 145.747 224.739C145.747 226.302 146.128 227.562 146.888 228.521C147.638 229.489 148.638 229.974 149.888 229.974Z" fill="black"/>
<path d="M138.521 194.098C138.886 199.694 150.208 210.226 150.573 212.861C150.938 210.228 162.26 199.695 162.625 194.098C162.88 190.142 160.068 188.502 157.511 188.502C154.742 188.532 152.456 192.365 151.668 193.11C151.303 192.123 154.086 183.894 154.955 183.894H146.189C147.058 183.894 149.841 192.123 149.476 193.11C148.786 192.426 146.765 188.617 143.632 188.502C141.076 188.503 138.266 190.142 138.521 194.098Z" fill="black"/>
<path d="M35.4435 186.591C36.0845 196.416 55.9629 214.908 56.6038 219.533C57.2448 214.91 77.1232 196.418 77.7641 186.591C78.2118 179.645 73.2746 176.766 68.7851 176.766C63.9243 176.818 59.9097 183.548 58.5268 184.857C57.8858 183.123 62.7726 168.675 64.2983 168.675H48.9068C50.4324 168.675 55.3192 183.123 54.6783 184.857C53.4674 183.655 49.9182 176.967 44.4173 176.766C39.9304 176.768 34.9959 179.645 35.4435 186.591Z" fill="black"/>
<path d="M77.8027 126.916C77.1618 117.091 57.2834 98.5987 56.6424 93.9733C56.0015 98.5963 36.1231 117.089 35.4821 126.916C35.0345 133.861 39.9716 136.741 44.4612 136.741C49.3219 136.689 53.3365 129.958 54.7195 128.65C55.3605 130.384 50.4737 144.832 48.948 144.832H64.3395C62.8139 144.832 57.927 130.384 58.568 128.65C59.7789 129.852 63.328 136.539 68.829 136.741C73.3159 136.738 78.2504 133.861 77.8027 126.916Z" fill="black"/>
<path d="M132.406 57.0155C131.765 47.1906 111.887 28.6984 111.246 24.0729C110.605 28.6959 90.7262 47.1882 90.0852 57.0155C89.6376 63.961 94.5747 66.8404 99.0642 66.8404C103.925 66.7881 107.94 60.0579 109.323 58.7495C109.964 60.4834 105.077 74.9314 103.551 74.9314H118.943C117.417 74.9314 112.53 60.4834 113.171 58.7495C114.382 59.9513 117.931 66.639 123.432 66.8404C127.919 66.838 132.853 63.961 132.406 57.0155Z" fill="black"/>
<path d="M90.1304 186.392C90.7714 196.217 110.65 214.709 111.291 219.334C111.932 214.711 131.81 196.219 132.451 186.392C132.899 179.446 127.962 176.567 123.472 176.567C118.611 176.619 114.597 183.349 113.214 184.658C112.573 182.924 117.46 168.476 118.985 168.476H103.594C105.119 168.476 110.006 182.924 109.365 184.658C108.154 183.456 104.605 176.768 99.1042 176.567C94.6173 176.569 89.6828 179.446 90.1304 186.392Z" fill="black"/>
<path d="M132.49 126.717C131.849 116.892 111.97 98.3997 111.329 93.7742C110.688 98.3972 90.8101 116.889 90.1691 126.717C89.7215 133.662 94.6586 136.542 99.1481 136.542C104.009 136.489 108.023 129.759 109.406 128.451C110.047 130.185 105.161 144.633 103.635 144.633H119.026C117.501 144.633 112.614 130.185 113.255 128.451C114.466 129.653 118.015 136.34 123.516 136.542C128.003 136.539 132.937 133.662 132.49 126.717Z" fill="black"/>
</g>
<defs>
<clipPath id="clip0">
<rect x="0.347717" y="0.333984" width="167.087" height="242.667" fill="white"/>
</clipPath>
</defs>
</svg>
