<svg width="168" height="243" viewBox="0 0 168 243" fill="none" xmlns="http://www.w3.org/2000/svg">
<g clip-path="url(#clip0)">
<path d="M167.271 235.882C167.271 239.659 164.185 242.751 160.4 242.751H7.54541C3.77051 242.751 0.68457 239.659 0.68457 235.882V7.4541C0.68457 3.67676 3.77051 0.583984 7.54541 0.583984H160.4C164.185 0.583984 167.271 3.67676 167.271 7.4541V235.882V235.882Z" fill="white" stroke="black" stroke-width="0.5"/>
<path d="M25.5594 5.22229L16.1376 26.3473H13.1063L22.4969 5.97229H10.1844V3.59729H25.5594V5.22229Z" fill="black"/>
<path d="M29.4159 49.68C29.0508 44.084 17.7288 33.5515 17.3637 30.917C16.9986 33.5501 5.67663 44.0827 5.31155 49.68C5.0566 53.6359 7.86862 55.2759 10.4257 55.2759C13.1942 55.2461 15.4808 51.4128 16.2685 50.6676C16.6336 51.6551 13.8502 59.8842 12.9812 59.8842H21.7477C20.8787 59.8842 18.0954 51.6551 18.4605 50.6676C19.1501 51.3521 21.1716 55.1612 24.3048 55.2759C26.8603 55.2745 29.6708 53.6359 29.4159 49.68Z" fill="black"/>
<path d="M76.2057 52.4145C75.5648 42.5896 55.6864 24.0974 55.0454 19.4719C54.4045 24.095 34.5261 42.5872 33.8852 52.4145C33.4375 59.36 38.3747 62.2395 42.8642 62.2395C47.7249 62.1872 51.7396 55.457 53.1225 54.1485C53.7635 55.8824 48.8767 70.3304 47.351 70.3304H62.7425C61.2169 70.3304 56.3301 55.8824 56.971 54.1485C58.1819 55.3504 61.7311 62.038 67.232 62.2395C71.7189 62.237 76.6534 59.36 76.2057 52.4145Z" fill="black"/>
<path d="M142.834 238.583L152.256 217.458H155.287L145.897 237.833H158.209V240.208H142.834V238.583Z" fill="black"/>
<path d="M138.608 194.098C138.973 199.694 150.295 210.226 150.66 212.861C151.025 210.228 162.347 199.695 162.712 194.098C162.967 190.142 160.155 188.502 157.598 188.502C154.829 188.532 152.543 192.365 151.755 193.11C151.39 192.123 154.173 183.894 155.042 183.894H146.276C147.145 183.894 149.928 192.123 149.563 193.11C148.873 192.426 146.852 188.617 143.719 188.502C141.163 188.503 138.353 190.142 138.608 194.098Z" fill="black"/>
<path d="M33.9304 191.391C34.5713 201.216 54.4497 219.708 55.0907 224.333C55.7316 219.71 75.61 201.218 76.251 191.391C76.6986 184.445 71.7614 181.566 67.2719 181.566C62.4112 181.618 58.3966 188.348 57.0136 189.657C56.3726 187.923 61.2594 173.475 62.7851 173.475H47.3936C48.9192 173.475 53.8061 187.923 53.1651 189.657C51.9542 188.455 48.4051 181.767 42.9041 181.566C38.4172 181.568 33.4827 184.445 33.9304 191.391Z" fill="black"/>
<path d="M76.2896 126.916C75.6486 117.091 55.7703 98.5987 55.1293 93.9733C54.4883 98.5963 34.61 117.089 33.969 126.916C33.5214 133.861 38.4585 136.741 42.948 136.741C47.8088 136.689 51.8234 129.958 53.2064 128.65C53.8474 130.384 48.9605 144.832 47.4349 144.832H62.8264C61.3007 144.832 56.4139 130.384 57.0549 128.65C58.2657 129.852 61.8149 136.539 67.3159 136.741C71.8027 136.738 76.7372 133.861 76.2896 126.916Z" fill="black"/>
<path d="M134.093 52.2155C133.452 42.3905 113.573 23.8983 112.932 19.2728C112.291 23.8959 92.4131 42.3881 91.7721 52.2155C91.3245 59.1609 96.2616 62.0404 100.751 62.0404C105.612 61.9881 109.627 55.2579 111.009 53.9494C111.65 55.6834 106.764 70.1313 105.238 70.1313H120.629C119.104 70.1313 114.217 55.6834 114.858 53.9494C116.069 55.1513 119.618 61.8389 125.119 62.0404C129.606 62.0379 134.54 59.1609 134.093 52.2155Z" fill="black"/>
<path d="M91.8173 191.192C92.4583 201.017 112.337 219.509 112.978 224.134C113.619 219.511 133.497 201.019 134.138 191.192C134.586 184.246 129.648 181.367 125.159 181.367C120.298 181.419 116.284 188.149 114.901 189.458C114.26 187.724 119.146 173.276 120.672 173.276H105.281C106.806 173.276 111.693 187.724 111.052 189.458C109.841 188.256 106.292 181.568 100.791 181.367C96.3042 181.369 91.3697 184.246 91.8173 191.192Z" fill="black"/>
<path d="M134.176 126.717C133.535 116.892 113.657 98.3997 113.016 93.7742C112.375 98.3972 92.4968 116.889 91.8559 126.717C91.4082 133.662 96.3454 136.542 100.835 136.542C105.696 136.489 109.71 129.759 111.093 128.451C111.734 130.185 106.847 144.633 105.322 144.633H120.713C119.188 144.633 114.301 130.185 114.942 128.451C116.153 129.653 119.702 136.34 125.203 136.542C129.69 136.539 134.624 133.662 134.176 126.717Z" fill="black"/>
<path d="M105.09 91.7865C104.449 81.9616 84.5702 63.4694 83.9292 58.8439C83.2883 63.4669 63.4099 81.9592 62.7689 91.7865C62.3213 98.732 67.2585 101.611 71.748 101.611C76.6087 101.559 80.6233 94.8289 82.0063 93.5204C82.6473 95.2544 77.7605 109.702 76.2348 109.702H91.6263C90.1007 109.702 85.2138 95.2544 85.8548 93.5204C87.0657 94.7223 90.6148 101.41 96.1158 101.611C100.603 101.609 105.537 98.732 105.09 91.7865Z" fill="black"/>
</g>
<defs>
<clipPath id="clip0">
<rect x="0.43457" y="0.333984" width="167.087" height="242.667" fill="white"/>
</clipPath>
</defs>
</svg>
