<svg width="168" height="243" viewBox="0 0 168 243" fill="none" xmlns="http://www.w3.org/2000/svg">
<g clip-path="url(#clip0)">
<path d="M167.358 235.882C167.358 239.659 164.271 242.751 160.487 242.751H7.63232C3.85742 242.751 0.771484 239.659 0.771484 235.882V7.4541C0.771484 3.67676 3.85742 0.583984 7.63232 0.583984H160.487C164.271 0.583984 167.358 3.67676 167.358 7.4541V235.882V235.882Z" fill="white" stroke="black" stroke-width="0.5"/>
<path d="M24.7557 9.53479C24.7557 10.6702 24.4537 11.6806 23.8495 12.566C23.2557 13.4515 22.4484 14.1442 21.4276 14.6442C22.6151 15.1546 23.5526 15.8994 24.2401 16.8785C24.938 17.8577 25.287 18.9671 25.287 20.2067C25.287 22.1754 24.6203 23.7431 23.287 24.9098C21.9641 26.0765 20.2193 26.6598 18.0526 26.6598C15.8651 26.6598 14.1099 26.0765 12.787 24.9098C11.4745 23.7327 10.8182 22.165 10.8182 20.2067C10.8182 18.9775 11.1516 17.8681 11.8182 16.8785C12.4953 15.889 13.4276 15.139 14.6151 14.6285C13.6047 14.1285 12.8078 13.4358 12.2245 12.5504C11.6412 11.665 11.3495 10.6598 11.3495 9.53479C11.3495 7.61812 11.9641 6.09729 13.1932 4.97229C14.4224 3.84729 16.0422 3.28479 18.0526 3.28479C20.0526 3.28479 21.6672 3.84729 22.8964 4.97229C24.1359 6.09729 24.7557 7.61812 24.7557 9.53479ZM22.3964 20.1442C22.3964 18.8733 21.9901 17.8369 21.1776 17.0348C20.3755 16.2327 19.3234 15.8317 18.0214 15.8317C16.7193 15.8317 15.6724 16.2275 14.8807 17.0192C14.0995 17.8108 13.7089 18.8525 13.7089 20.1442C13.7089 21.4358 14.0891 22.4515 14.8495 23.191C15.6203 23.9306 16.688 24.3004 18.0526 24.3004C19.4068 24.3004 20.4693 23.9306 21.2401 23.191C22.0109 22.441 22.3964 21.4254 22.3964 20.1442ZM18.0526 5.65979C16.9172 5.65979 15.9953 6.01396 15.287 6.72229C14.5891 7.42021 14.2401 8.37333 14.2401 9.58167C14.2401 10.7379 14.5839 11.6754 15.2714 12.3942C15.9693 13.1025 16.8964 13.4567 18.0526 13.4567C19.2089 13.4567 20.1307 13.1025 20.8182 12.3942C21.5162 11.6754 21.8651 10.7379 21.8651 9.58167C21.8651 8.42542 21.5057 7.48271 20.787 6.75354C20.0682 6.02437 19.1568 5.65979 18.0526 5.65979Z" fill="black"/>
<path d="M29.5028 49.68C29.1377 44.084 17.8157 33.5515 17.4506 30.917C17.0855 33.5501 5.76355 44.0827 5.39847 49.68C5.14351 53.6359 7.95553 55.2759 10.5126 55.2759C13.2811 55.2461 15.5677 51.4128 16.3554 50.6676C16.7205 51.6551 13.9371 59.8842 13.0682 59.8842H21.8346C20.9657 59.8842 18.1823 51.6551 18.5474 50.6676C19.237 51.3521 21.2585 55.1612 24.3917 55.2759C26.9472 55.2745 29.7577 53.6359 29.5028 49.68Z" fill="black"/>
<path d="M76.2927 52.4145C75.6517 42.5896 55.7733 24.0974 55.1324 19.4719C54.4914 24.095 34.613 42.5872 33.9721 52.4145C33.5244 59.36 38.4616 62.2395 42.9511 62.2395C47.8119 62.1872 51.8265 55.457 53.2094 54.1485C53.8504 55.8824 48.9636 70.3304 47.438 70.3304H62.8294C61.3038 70.3304 56.417 55.8824 57.058 54.1485C58.2688 55.3504 61.818 62.038 67.3189 62.2395C71.8058 62.237 76.7403 59.36 76.2927 52.4145Z" fill="black"/>
<path d="M143.812 234.271C143.812 233.135 144.114 232.125 144.718 231.239C145.312 230.354 146.119 229.661 147.14 229.161C145.952 228.651 145.015 227.906 144.327 226.927C143.629 225.948 143.281 224.838 143.281 223.599C143.281 221.63 143.947 220.062 145.281 218.896C146.603 217.729 148.348 217.146 150.515 217.146C152.702 217.146 154.458 217.729 155.781 218.896C157.093 220.073 157.749 221.64 157.749 223.599C157.749 224.828 157.416 225.937 156.749 226.927C156.072 227.916 155.14 228.666 153.952 229.177C154.963 229.677 155.76 230.369 156.343 231.255C156.926 232.14 157.218 233.146 157.218 234.271C157.218 236.187 156.603 237.708 155.374 238.833C154.145 239.958 152.525 240.521 150.515 240.521C148.515 240.521 146.9 239.958 145.671 238.833C144.432 237.708 143.812 236.187 143.812 234.271ZM146.171 223.661C146.171 224.932 146.577 225.968 147.39 226.771C148.192 227.573 149.244 227.974 150.546 227.974C151.848 227.974 152.895 227.578 153.687 226.786C154.468 225.994 154.859 224.953 154.859 223.661C154.859 222.369 154.478 221.354 153.718 220.614C152.947 219.875 151.879 219.505 150.515 219.505C149.161 219.505 148.098 219.875 147.327 220.614C146.557 221.364 146.171 222.38 146.171 223.661ZM150.515 238.146C151.65 238.146 152.572 237.791 153.281 237.083C153.978 236.385 154.327 235.432 154.327 234.224C154.327 233.067 153.984 232.13 153.296 231.411C152.598 230.703 151.671 230.349 150.515 230.349C149.359 230.349 148.437 230.703 147.749 231.411C147.051 232.13 146.702 233.067 146.702 234.224C146.702 235.38 147.062 236.323 147.781 237.052C148.499 237.781 149.411 238.146 150.515 238.146Z" fill="black"/>
<path d="M138.694 194.098C139.06 199.694 150.382 210.226 150.747 212.861C151.112 210.228 162.434 199.695 162.799 194.098C163.054 190.142 160.242 188.502 157.685 188.502C154.916 188.532 152.63 192.365 151.842 193.11C151.477 192.123 154.26 183.894 155.129 183.894H146.363C147.232 183.894 150.015 192.123 149.65 193.11C148.96 192.426 146.939 188.617 143.806 188.502C141.25 188.503 138.44 190.142 138.694 194.098Z" fill="black"/>
<path d="M34.0173 191.391C34.6583 201.216 54.5366 219.708 55.1776 224.333C55.8186 219.71 75.6969 201.218 76.3379 191.391C76.7855 184.445 71.8484 181.566 67.3588 181.566C62.4981 181.618 58.4835 188.348 57.1005 189.657C56.4595 187.923 61.3463 173.475 62.872 173.475H47.4805C49.0062 173.475 53.893 187.923 53.252 189.657C52.0411 188.455 48.492 181.767 42.991 181.566C38.5041 181.568 33.5697 184.445 34.0173 191.391Z" fill="black"/>
<path d="M76.3765 126.916C75.7355 117.091 55.8572 98.5987 55.2162 93.9733C54.5752 98.5963 34.6969 117.089 34.0559 126.916C33.6083 133.861 38.5454 136.741 43.035 136.741C47.8957 136.689 51.9103 129.958 53.2933 128.65C53.9343 130.384 49.0475 144.832 47.5218 144.832H62.9133C61.3876 144.832 56.5008 130.384 57.1418 128.65C58.3527 129.852 61.9018 136.539 67.4028 136.741C71.8897 136.738 76.8241 133.861 76.3765 126.916Z" fill="black"/>
<path d="M134.18 52.2155C133.539 42.3905 113.66 23.8983 113.019 19.2728C112.378 23.8959 92.5 42.3881 91.859 52.2155C91.4114 59.1609 96.3485 62.0404 100.838 62.0404C105.699 61.9881 109.713 55.2579 111.096 53.9494C111.737 55.6834 106.851 70.1313 105.325 70.1313H120.716C119.191 70.1313 114.304 55.6834 114.945 53.9494C116.156 55.1513 119.705 61.8389 125.206 62.0404C129.693 62.0379 134.627 59.1609 134.18 52.2155Z" fill="black"/>
<path d="M91.9042 191.192C92.5452 201.017 112.424 219.509 113.065 224.134C113.706 219.511 133.584 201.019 134.225 191.192C134.672 184.246 129.735 181.367 125.246 181.367C120.385 181.419 116.37 188.149 114.987 189.458C114.346 187.724 119.233 173.276 120.759 173.276H105.367C106.893 173.276 111.78 187.724 111.139 189.458C109.928 188.256 106.379 181.568 100.878 181.367C96.3911 181.369 91.4566 184.246 91.9042 191.192Z" fill="black"/>
<path d="M134.263 126.717C133.622 116.892 113.744 98.3997 113.103 93.7742C112.462 98.3972 92.5838 116.889 91.9428 126.717C91.4951 133.662 96.4323 136.542 100.922 136.542C105.783 136.489 109.797 129.759 111.18 128.451C111.821 130.185 106.934 144.633 105.409 144.633H120.8C119.274 144.633 114.388 130.185 115.029 128.451C116.239 129.653 119.789 136.34 125.29 136.542C129.777 136.539 134.711 133.662 134.263 126.717Z" fill="black"/>
<path d="M105.176 91.7865C104.535 81.9616 84.6571 63.4694 84.0162 58.8439C83.3752 63.4669 63.4968 81.9592 62.8559 91.7865C62.4082 98.732 67.3454 101.611 71.8349 101.611C76.6956 101.559 80.7103 94.8289 82.0932 93.5204C82.7342 95.2544 77.8474 109.702 76.3217 109.702H91.7132C90.1876 109.702 85.3008 95.2544 85.9417 93.5204C87.1526 94.7223 90.7018 101.41 96.2027 101.611C100.69 101.609 105.624 98.732 105.176 91.7865Z" fill="black"/>
<path d="M62.5272 154.623C63.1681 164.448 83.0465 182.94 83.6875 187.565C84.3284 182.942 104.207 164.45 104.848 154.623C105.295 147.677 100.358 144.798 95.8687 144.798C91.008 144.85 86.9934 151.58 85.6104 152.889C84.9694 151.155 89.8562 136.707 91.3819 136.707H75.9904C77.516 136.707 82.4029 151.155 81.7619 152.889C80.551 151.687 77.0019 144.999 71.5009 144.798C67.014 144.8 62.0795 147.677 62.5272 154.623Z" fill="black"/>
</g>
<defs>
<clipPath id="clip0">
<rect x="0.521484" y="0.333984" width="167.087" height="242.667" fill="white"/>
</clipPath>
</defs>
</svg>
