<svg width="168" height="243" viewBox="0 0 168 243" fill="none" xmlns="http://www.w3.org/2000/svg">
<g clip-path="url(#clip0)">
<path d="M167.445 235.882C167.445 239.659 164.358 242.751 160.574 242.751H7.71924C3.94434 242.751 0.858398 239.659 0.858398 235.882V7.4541C0.858398 3.67676 3.94434 0.583984 7.71924 0.583984H160.574C164.358 0.583984 167.445 3.67676 167.445 7.4541V235.882V235.882Z" fill="white" stroke="black" stroke-width="0.5"/>
<path d="M22.1239 16.3473C21.5197 17.066 20.7958 17.6442 19.952 18.0817C19.1187 18.5192 18.202 18.7379 17.202 18.7379C15.8895 18.7379 14.7437 18.415 13.7645 17.7692C12.7958 17.1233 12.0458 16.2171 11.5145 15.0504C10.9833 13.8733 10.7177 12.5765 10.7177 11.1598C10.7177 9.63896 11.0041 8.26917 11.577 7.05042C12.1604 5.83167 12.9833 4.89937 14.0458 4.25354C15.1083 3.60771 16.3479 3.28479 17.7645 3.28479C20.0145 3.28479 21.7854 4.12854 23.077 5.81604C24.3791 7.49312 25.0302 9.78479 25.0302 12.691V13.5348C25.0302 17.9619 24.1552 21.1962 22.4052 23.2379C20.6552 25.2692 18.0145 26.3108 14.4833 26.3629H13.9208V23.9254H14.5302C16.9156 23.8837 18.7489 23.264 20.0302 22.066C21.3114 20.8577 22.0093 18.9515 22.1239 16.3473ZM17.6708 16.3473C18.6395 16.3473 19.5302 16.0504 20.3427 15.4567C21.1656 14.8629 21.7645 14.1285 22.1395 13.2535V12.0973C22.1395 10.2015 21.7281 8.65979 20.9052 7.47229C20.0822 6.28479 19.0406 5.69104 17.7802 5.69104C16.5093 5.69104 15.4885 6.18062 14.7177 7.15979C13.9468 8.12854 13.5614 9.40979 13.5614 11.0035C13.5614 12.5556 13.9312 13.8369 14.6708 14.8473C15.4208 15.8473 16.4208 16.3473 17.6708 16.3473Z" fill="black"/>
<path d="M29.5896 49.68C29.2245 44.084 17.9025 33.5515 17.5374 30.917C17.1723 33.5501 5.85034 44.0827 5.48526 49.68C5.23031 53.6359 8.04233 55.2759 10.5994 55.2759C13.3679 55.2461 15.6545 51.4128 16.4422 50.6676C16.8073 51.6551 14.0239 59.8842 13.155 59.8842H21.9214C21.0524 59.8842 18.2691 51.6551 18.6342 50.6676C19.3238 51.3521 21.3453 55.1612 24.4785 55.2759C27.034 55.2745 29.8445 53.6359 29.5896 49.68Z" fill="black"/>
<path d="M74.7796 39.6146C74.1386 29.7897 54.2603 11.2975 53.6193 6.672C52.9783 11.2951 33.1 29.7873 32.459 39.6146C32.0114 46.5601 36.9485 49.4395 41.438 49.4395C46.2988 49.3873 50.3134 42.657 51.6964 41.3486C52.3373 43.0825 47.4505 57.5305 45.9249 57.5305H61.3164C59.7907 57.5305 54.9039 43.0825 55.5449 41.3486C56.7557 42.5505 60.3049 49.2381 65.8059 49.4395C70.2927 49.4371 75.2272 46.5601 74.7796 39.6146Z" fill="black"/>
<path d="M146.617 227.458C147.222 226.739 147.946 226.161 148.789 225.724C149.623 225.286 150.539 225.067 151.539 225.067C152.852 225.067 153.998 225.39 154.977 226.036C155.946 226.682 156.696 227.588 157.227 228.755C157.758 229.932 158.024 231.229 158.024 232.646C158.024 234.166 157.737 235.536 157.164 236.755C156.581 237.974 155.758 238.906 154.696 239.552C153.633 240.198 152.393 240.521 150.977 240.521C148.727 240.521 146.956 239.677 145.664 237.989C144.362 236.312 143.711 234.021 143.711 231.114V230.271C143.711 225.843 144.586 222.609 146.336 220.567C148.086 218.536 150.727 217.494 154.258 217.442H154.821V219.88H154.211C151.826 219.922 149.992 220.541 148.711 221.739C147.43 222.948 146.732 224.854 146.617 227.458ZM151.071 227.458C150.102 227.458 149.211 227.755 148.399 228.349C147.576 228.942 146.977 229.677 146.602 230.552V231.708C146.602 233.604 147.013 235.146 147.836 236.333C148.659 237.521 149.701 238.114 150.961 238.114C152.232 238.114 153.253 237.625 154.024 236.646C154.795 235.677 155.18 234.396 155.18 232.802C155.18 231.25 154.81 229.968 154.071 228.958C153.321 227.958 152.321 227.458 151.071 227.458Z" fill="black"/>
<path d="M138.781 194.098C139.146 199.694 150.468 210.226 150.834 212.861C151.199 210.228 162.521 199.695 162.886 194.098C163.141 190.142 160.329 188.502 157.772 188.502C155.003 188.532 152.716 192.365 151.929 193.11C151.564 192.123 154.347 183.894 155.216 183.894H146.45C147.319 183.894 150.102 192.123 149.737 193.11C149.047 192.426 147.026 188.617 143.893 188.502C141.337 188.503 138.526 190.142 138.781 194.098Z" fill="black"/>
<path d="M75.1085 102.547C74.4675 92.7222 54.5891 74.23 53.9482 69.6045C53.3072 74.2276 33.4288 92.7198 32.7879 102.547C32.3402 109.493 37.2774 112.372 41.7669 112.372C46.6277 112.32 50.6423 105.59 52.0252 104.281C52.6662 106.015 47.7794 120.463 46.2537 120.463H61.6452C60.1196 120.463 55.2328 106.015 55.8737 104.281C57.0846 105.483 60.6338 112.171 66.1347 112.372C70.6216 112.37 75.5561 109.493 75.1085 102.547Z" fill="black"/>
<path d="M33.2374 205.483C33.8784 215.308 53.7567 233.801 54.3977 238.426C55.0386 233.803 74.917 215.311 75.558 205.483C76.0056 198.538 71.0685 195.658 66.5789 195.658C61.7182 195.711 57.7036 202.441 56.3206 203.749C55.6796 202.015 60.5664 187.568 62.0921 187.568H46.7006C48.2262 187.568 53.1131 202.015 52.4721 203.749C51.2612 202.548 47.7121 195.86 42.2111 195.658C37.7242 195.661 32.7897 198.538 33.2374 205.483Z" fill="black"/>
<path d="M32.9085 144.151C33.5495 153.976 53.4278 172.468 54.0688 177.094C54.7098 172.47 74.5881 153.978 75.2291 144.151C75.6767 137.205 70.7396 134.326 66.2501 134.326C61.3893 134.378 57.3747 141.108 55.9917 142.417C55.3508 140.683 60.2376 126.235 61.7632 126.235H46.3717C47.8974 126.235 52.7842 140.683 52.1432 142.417C50.9324 141.215 47.3832 134.527 41.8822 134.326C37.3954 134.328 32.4609 137.205 32.9085 144.151Z" fill="black"/>
<path d="M136.747 39.4266C136.106 29.6017 116.228 11.1095 115.587 6.48401C114.946 11.1071 95.0673 29.5993 94.4263 39.4266C93.9787 46.3721 98.9158 49.2515 103.405 49.2515C108.266 49.1993 112.281 42.4691 113.664 41.1606C114.305 42.8945 109.418 57.3425 107.892 57.3425H123.284C121.758 57.3425 116.871 42.8945 117.512 41.1606C118.723 42.3625 122.272 49.0501 127.773 49.2515C132.26 49.2491 137.195 46.3721 136.747 39.4266Z" fill="black"/>
<path d="M137.076 102.359C136.435 92.5342 116.556 74.042 115.915 69.4165C115.274 74.0396 95.3961 92.5318 94.7551 102.359C94.3075 109.305 99.2447 112.184 103.734 112.184C108.595 112.132 112.61 105.402 113.993 104.093C114.633 105.827 109.747 120.275 108.221 120.275H123.613C122.087 120.275 117.2 105.827 117.841 104.093C119.052 105.295 122.601 111.983 128.102 112.184C132.589 112.182 137.523 109.305 137.076 102.359Z" fill="black"/>
<path d="M95.2047 205.295C95.8456 215.12 115.724 233.613 116.365 238.238C117.006 233.615 136.884 215.123 137.525 205.295C137.973 198.35 133.036 195.471 128.546 195.471C123.685 195.523 119.671 202.253 118.288 203.561C117.647 201.828 122.534 187.38 124.059 187.38H108.668C110.194 187.38 115.08 201.828 114.439 203.561C113.229 202.36 109.679 195.672 104.178 195.471C99.6915 195.473 94.757 198.35 95.2047 205.295Z" fill="black"/>
<path d="M94.8759 143.963C95.5169 153.788 115.395 172.28 116.036 176.906C116.677 172.282 136.556 153.79 137.197 143.963C137.644 137.017 132.707 134.138 128.217 134.138C123.357 134.19 119.342 140.92 117.959 142.229C117.318 140.495 122.205 126.047 123.731 126.047H108.339C109.865 126.047 114.752 140.495 114.111 142.229C112.9 141.027 109.351 134.339 103.85 134.138C99.3628 134.14 94.4283 137.017 94.8759 143.963Z" fill="black"/>
<path d="M105.921 72.0198C105.28 62.1949 85.4015 43.7026 84.7605 39.0771C84.1196 43.7002 64.2412 62.1924 63.6002 72.0198C63.1526 78.9653 68.0898 81.8447 72.5793 81.8447C77.44 81.7924 81.4546 75.0622 82.8376 73.7537C83.4786 75.4877 78.5918 89.9356 77.0661 89.9356H92.4576C90.932 89.9356 86.0451 75.4877 86.6861 73.7537C87.897 74.9556 91.4461 81.6433 96.9471 81.8447C101.434 81.8423 106.368 78.9653 105.921 72.0198Z" fill="black"/>
</g>
<defs>
<clipPath id="clip0">
<rect x="0.608398" y="0.333984" width="167.087" height="242.667" fill="white"/>
</clipPath>
</defs>
</svg>
