<svg width="168" height="243" viewBox="0 0 168 243" fill="none" xmlns="http://www.w3.org/2000/svg">
<g clip-path="url(#clip0)">
<path d="M166.88 235.882C166.88 239.659 163.793 242.751 160.009 242.751H7.15381C3.37891 242.751 0.292969 239.659 0.292969 235.882V7.4541C0.292969 3.67676 3.37891 0.583984 7.15381 0.583984H160.009C163.793 0.583984 166.88 3.67676 166.88 7.4541V235.882V235.882Z" fill="white" stroke="black" stroke-width="0.5"/>
<path d="M21.4917 20.4098H11.9604L9.81982 26.3473H6.72607L15.4136 3.59729H18.0386L26.7417 26.3473H23.6636L21.4917 20.4098ZM12.8667 17.941H20.6011L16.7261 7.30042L12.8667 17.941Z" fill="black"/>
<path d="M145.748 223.368H155.279L157.42 217.431H160.514L151.826 240.181H149.201L140.498 217.431H143.576L145.748 223.368ZM154.373 225.837H146.639L150.514 236.478L154.373 225.837Z" fill="black"/>
<path d="M134.342 138.266C132.816 114.872 85.4839 70.8408 83.9577 59.8271C82.4315 70.835 35.0996 114.866 33.5733 138.266C32.5075 154.804 44.2632 161.66 54.9531 161.66C66.527 161.536 76.0861 145.51 79.379 142.395C80.9052 146.523 69.2693 180.925 65.6367 180.925H102.285C98.6523 180.925 87.0164 146.523 88.5427 142.395C91.4258 145.257 99.8766 161.18 112.975 161.66C123.658 161.654 135.408 154.804 134.342 138.266Z" fill="black"/>
<path d="M29.0243 49.6802C28.6592 44.0843 17.3372 33.5517 16.9721 30.9172C16.607 33.5504 5.28503 44.0829 4.91995 49.6802C4.665 53.6361 7.47702 55.2761 10.0341 55.2761C12.8026 55.2464 15.0892 51.4131 15.8769 50.6678C16.242 51.6554 13.4586 59.8844 12.5896 59.8844H21.3561C20.4871 59.8844 17.7038 51.6554 18.0689 50.6678C18.7585 51.3524 20.78 55.1614 23.9132 55.2761C26.4687 55.2747 29.2792 53.6361 29.0243 49.6802Z" fill="black"/>
<path d="M138.215 194.098C138.581 199.694 149.903 210.226 150.268 212.861C150.633 210.228 161.955 199.695 162.32 194.098C162.575 190.142 159.763 188.502 157.206 188.502C154.437 188.532 152.151 192.365 151.363 193.11C150.998 192.123 153.781 183.894 154.65 183.894H145.884C146.753 183.894 149.536 192.123 149.171 193.11C148.481 192.426 146.46 188.617 143.327 188.502C140.771 188.503 137.961 190.142 138.215 194.098Z" fill="black"/>
</g>
<defs>
<clipPath id="clip0">
<rect x="0.0429688" y="0.333984" width="167.087" height="242.667" fill="white"/>
</clipPath>
</defs>
</svg>
